<ttFont>
          <CharString index="0">
            -16 -3 -20 -4 -24 hhcurveto
            -27 -32 5 1 -17 hvcurveto
            245 423 rlineto
            -257 hlineto
            -71 -45 -60 -41 -78 callgsubr
            hvcurveto
            -37 callsubr
            return
          </CharString>
          <CharString index="1">
            -5 -24 4 callsubr
            60 callsubr
            -50 -15 -36 -95 callsubr
            return
          </CharString>
          <CharString index="2">
            -61 callgsubr
            123 101 117 186 16 hvcurveto
            72 12 66 30 38 41 -9 27 rcurveline
            -30 -43 -65 -30 -46 hhcurveto
            -3 -4 0 1 -4 hvcurveto
            104 -1 -42 53 -85 -65 callsubr
            -15 -41 2 hvcurveto
            return
          </CharString>
          <CharString index="3">
            -34 27 -27 34 33 28 27 34 33 -28 28 -33 -34 -27 -28 -33 vhcurveto
            return
          </CharString>
          <CharString index="4">
            157 736 rlineto
            10 -24 -33 4 -20 hhcurveto
            -119 -130 -135 -160 -101 hvcurveto
            2 -21 -19 1 -14 hhcurveto
            -115 -87 -55 -68 -39 28 -19 34 31 25 15 24 14 -8 17 -5 hvcurveto
            return
          </CharString>
          <CharString index="5">
            -44 35 -35 44 44 36 35 44 44 -36 36 -44 -44 -35 -36 -44 vhcurveto
            return
          </CharString>
          <CharString index="6">
            4 -21 -10 1 -17 hhcurveto
            -194 -43 callsubr
            11 49 vvcurveto
            120 68 81 109 29 vhcurveto
            -33 -132 rlineto
            -42 -169 -40 -141 -95 vvcurveto
            -104 48 -58 145 225 58 139 304 64 vhcurveto
            return
          </CharString>
          <CharString index="7">
            rmoveto
            75 hlineto
            121 -12 callsubr
            return
          </CharString>
          <CharString index="8">
            28 -96 callsubr
            return
          </CharString>
          <CharString index="9">
            1 -13 -13 1 -15 hhcurveto
            -88 callsubr
            return
          </CharString>
          <CharString index="10">
            47 callsubr
            15 72 62 17 76 38 39 132 rlinecurve
            -42 hlineto
            -28 -87 -37 -34 -61 -22 99 464 rcurveline
            return
          </CharString>
          <CharString index="11">
            9 1 10 3 13 hvcurveto
            return
          </CharString>
          <CharString index="12">
            -1 callgsubr
            -104 callgsubr
            return
          </CharString>
          <CharString index="13">
            447 -90 callsubr
            12 48 vvcurveto
            106 46 callsubr
            -145 -679 rlineto
            return
          </CharString>
          <CharString index="14">
            rmoveto
            40 -25 callsubr
            -29 12 callsubr
            -24 -30 -21 hhcurveto
            -22 -12 58 callgsubr
          </CharString>
          <CharString index="15">
            511 rmoveto
            -56 -97 -54 -57 -50 -5 rrcurveto
            102 -2 -42 51 -84 hhcurveto
            -96 callgsubr
            54 59 18 50 34 hvcurveto
            43 27 49 36 47 54 rrcurveto
            -42 hlineto
            -19 -15 -25 -19 -27 -15 rrcurveto
            2 11 1 13 13 vvcurveto
            77 callgsubr
            -510 -443 -16 callgsubr
            hintmask 0111111010100000
            -44 callgsubr
            return
          </CharString>
          <CharString index="16">
            -15 callgsubr
            hvcurveto
            -42 hlineto
            return
          </CharString>
          <CharString index="17">
            748 rmoveto
            -99 callgsubr
            return
          </CharString>
          <CharString index="18">
            rmoveto
            41 38 21 60 97 -99 18 -80 -86 -109 -31 -184 -39 hvcurveto
            -111 -526 rlineto
            -86 -26 -87 -31 -89 vvcurveto
            -69 51 -43 73 63 84 32 138 29 vhcurveto
            36 callsubr
            80 1 callgsubr
            -80 hlineto
            17 82 rlineto
            return
          </CharString>
          <CharString index="19">
            -166 -94 callgsubr
            return
          </CharString>
          <CharString index="20">
            291 345 rmoveto
            -8 12 17 -4 11 hhcurveto
            29 24 35 49 43 -22 45 -89 -203 -66 -238 -114 -49 callsubr
            hvcurveto
            -34 hlineto
            -57 -50 -48 -44 -79 hhcurveto
            -48 -28 17 68 hvcurveto
            return
          </CharString>
          <CharString index="21">
            163 57 hvcurveto
            -42 hlineto
            -98 callgsubr
            -80 callsubr
            return
          </CharString>
          <CharString index="22">
            -27 -143 -30 hvcurveto
            -120 17 callgsubr
            -78 -29 -92 vvcurveto
            -65 57 -43 61 return
          </CharString>
          <CharString index="23">
            -84 vvcurveto
            -65 51 -32 61 66 84 -58 callgsubr
            return
          </CharString>
          <CharString index="24">
            -8 callgsubr
            101 118 189 15 hvcurveto
            return
          </CharString>
          <CharString index="25">
            rmoveto
            -76 callsubr
            93 1 callgsubr
            -93 -59 callsubr
            -104 -491 rlineto
            -5 return
          </CharString>
          <CharString index="26">
            -131 24 29 -54 73 hhcurveto
            54 95 22 -64 callgsubr
            -12 66 rlineto
            102 92 44 64 66 -46 callsubr
            -38 -36 -47 -62 -56 vhcurveto
            return
          </CharString>
          <CharString index="27">
            72 340 rlineto
            return
          </CharString>
          <CharString index="28">
            -58 -34 33 -73 hhcurveto
            -76 -59 -34 -64 -32 hvcurveto
            6 -2 rlineto
            17 18 22 9 26 hhcurveto
            return
          </CharString>
          <CharString index="29">
            11 52 rlineto
            -144 hlineto
            -106 -500 39 callsubr
            return
          </CharString>
          <CharString index="30">
            -57 8 36 -30 54 hhcurveto
            54 90 16 -91 callsubr
            return
          </CharString>
          <CharString index="31">
            36 -90 -85 33 -90 hhcurveto
            -65 -87 -85 callsubr
            66 86 -58 callgsubr
            36 callsubr
            return
          </CharString>
          <CharString index="32">
            -71 callgsubr
            51 68 callsubr
            return
          </CharString>
          <CharString index="33">
            hhcurveto
            -74 -417 rmoveto
            -38 -13 15 66 98 62 178 71 return
          </CharString>
          <CharString index="34">
            15 callgsubr
            hintmask 11011010
            -56 callgsubr
            hintmask 10110110
            -74 callgsubr
            hintmask 11010110
            -85 callgsubr
            hintmask 11011010
            -57 callsubr
            return
          </CharString>
          <CharString index="35">
            66 -10 39 -12 259 vhcurveto
            -148 -20 return
          </CharString>
          <CharString index="36">
            2 callsubr
            250 -20 hstemhm
            83 110 193 111 hintmask 10101110
            404 85 -69 callgsubr
            hintmask 10011110
            -40 callsubr
            hintmask 01101110
            -3 callsubr
            return
          </CharString>
          <CharString index="37">
            -72 callsubr
            -54 -93 -52 -57 -49 -8 rlinecurve
            111 -5 -46 41 -66 hhcurveto
            -20 -21 -5 -25 -41 hvcurveto
            48 225 -148 -20 return
          </CharString>
          <CharString index="38">
            -29 callsubr
            -20 6 -17 21 -5 vhcurveto
            -118 -15 -52 -88 -49 hhcurveto
            return
          </CharString>
          <CharString index="39">
            -64 callgsubr
            -9 50 rlineto
            98 104 45 69 65 vvcurveto
            return
          </CharString>
          <CharString index="40">
            -64 -45 -123 -68 vvcurveto
            -57 24 -56 77 53 48 31 72 9 vhcurveto
            -4 -6 -10 -2 -17 hhcurveto
            -30 -10 17 25 hvcurveto
            return
          </CharString>
          <CharString index="41">
            163 57 hvcurveto
            -34 callgsubr
            -44 return
          </CharString>
          <CharString index="42">
            -72 callgsubr
            11 return
          </CharString>
          <CharString index="43">
            56 48 121 81 vvcurveto
            80 -47 33 -64 return
          </CharString>
          <CharString index="44">
            rmoveto
            -20 5 -13 11 -7 vhcurveto
            -98 -10 -48 -109 -57 hhcurveto
            -36 -17 17 29 7 1 8 2 8 hvcurveto
            55 254 rlineto
            13 11 34 5 14 hhcurveto
            25 16 -23 -30 7 hvcurveto
            -8 -10 -5 -13 -18 vvcurveto
            endchar
          </CharString>
          <CharString index="45">
            -414 rmoveto
            -16 -3 -20 -4 -24 hhcurveto
            -27 -32 5 1 -17 hvcurveto
            hintmask 100010011110101011000000
            59 callgsubr
            hintmask 000111001110101011000000
            -78 callgsubr
            vhcurveto
            -37 callsubr
            -103 callgsubr
            hintmask 001001001110101011000000
            -84 callgsubr
            hintmask 010010101101101011000000
            return
          </CharString>
          <CharString index="46">
            353 -44 callsubr
            -10 -47 rlineto
            return
          </CharString>
          <CharString index="47">
            rmoveto
            8 18 7 21 5 23 19 88 rcurveline
            89 18 -23 -109 rlineto
            -67 -14 -27 -25 -27 hhcurveto
            -10 -24 5 28 -3 hvcurveto
            228 642 rmoveto
            -85 hlineto
            16 82 rlineto
            43 8 22 51 56 hhcurveto
            14 10 -4 -6 8 hvcurveto
            -13 -22 -12 -29 -7 -36 rrcurveto
            -464 -707 -14 callgsubr
            hintmask 01111110
            -59 -12 -27 82 callsubr
          </CharString>
          <CharString index="48">
            hlineto
            22 107 rlineto
            67 14 32 12 22 hhcurveto
            13 43 -5 -11 26 hvcurveto
            return
          </CharString>
          <CharString index="49">
            rlineto
            -24 callgsubr
            return
          </CharString>
          <CharString index="50">
            -115 -28 -70 -126 -105 vvcurveto
            -94 56 -82 128 119 122 70 118 52 vhcurveto
            return
          </CharString>
          <CharString index="51">
            -20 hstemhm
            -15 53 -53 124 58 142 61 callsubr
            return
          </CharString>
          <CharString index="52">
            47 -7 -42 5 -33 hhcurveto
            -174 -83 -203 -127 -119 65 -42 68 return
          </CharString>
          <CharString index="53">
            -15 callsubr
            19 56 45 48 73 rrcurveto
            return
          </CharString>
          <CharString index="54">
            hvcurveto
            -9 49 rlineto
            101 109 42 67 65 vvcurveto
            48 -23 39 -47 vhcurveto
            hintmask 1011001110000000
            -30 -24 -16 -35 -25 12 -27 34 6 6 1 1 6 hvcurveto
            -73 callgsubr
            -36 -36 -59 -59 -64 vhcurveto
            hintmask 1010011110000000
            -39 216 rlineto
            -264 -89 rmoveto
            -82 -68 -75 -78 -4 vhcurveto
            hintmask 1011001110000000
            91 21 49 111 51 67 callsubr
          </CharString>
          <CharString index="55">
            rmoveto
            -60 -25 -55 -36 -38 27 -32 43 62 25 40 44 43 -23 34 -49 hvcurveto
            35 -80 rmoveto
            -28 -15 -18 -31 -24 -10 15 22 25 12 31 35 32 1 -28 -19 vhcurveto
            endchar
          </CharString>
          <CharString index="56">
            -43 21 -28 45 33 23 16 39 23 -7 26 -34 -4 -4 0 -1 -5 vhcurveto
            40 44 41 46 31 vhcurveto
            2 -7 rlineto
            return
          </CharString>
          <CharString index="57">
            -5 -21 -2 -19 -17 vvcurveto
            -80 48 -48 92 196 68 188 121 9 vhcurveto
            58 20 53 45 47 70 rrcurveto
            return
          </CharString>
          <CharString index="58">
            -113 62 -46 94 133 85 93 92 57 return
          </CharString>
          <CharString index="59">
            hhcurveto
            -22 -18 19 14 hvcurveto
            return
          </CharString>
          <CharString index="60">
            -19 -21 -48 callsubr
            endchar
          </CharString>
          <CharString index="61">
            vvcurveto
            49 -23 40 -45 -31 -25 -17 -30 -31 12 -25 35 5 6 1 1 6 vhcurveto
            -73 callgsubr
            return
          </CharString>
          <CharString index="62">
            28 -19 20 -25 15 vhcurveto
            -8 5 -4 6 6 vvcurveto
            49 70 rlineto
            5 -2 5 -7 4 vhcurveto
            -76 -49 -45 -67 -52 vvcurveto
            -38 23 -28 41 41 32 32 38 vhcurveto
            return
          </CharString>
          <CharString index="63">
            500 rmoveto
            return
          </CharString>
          <CharString index="64">
            -94 callgsubr
            -4 9 -10 return
          </CharString>
          <CharString index="65">
            460 rmoveto
            60 1 callgsubr
            -60 hlineto
            19 90 15 68 0 vvcurveto
            -148 -20 10 callsubr
            -64 -300 rlineto
            -4 -18 -2 -18 -17 vvcurveto
            -64 30 -49 70 34 44 12 86 28 vhcurveto
            -3 -8 -11 0 -7 hhcurveto
            -27 -8 15 21 11 2 12 3 12 hvcurveto
            return
          </CharString>
          <CharString index="66">
            57 12 29 56 65 hhcurveto
            32 22 -14 -26 1 hvcurveto
            1 -1 -5 0 -2 hhcurveto
            return
          </CharString>
          <CharString index="67">
            18 45 4 47 vhcurveto
            34 35 -2 21 hhcurveto
            -350 -696 rlineto
            361 hlineto
            80 48 65 51 hvcurveto
            return
          </CharString>
          <CharString index="68">
            55 47 -37 66 hhcurveto
            76 74 53 47 11 hvcurveto
            return
          </CharString>
          <CharString index="69">
            49 -49 124 24 145 -123 return
          </CharString>
          <CharString index="70">
            23 -11 -6 5 vvcurveto
            return
          </CharString>
          <CharString index="71">
            rmoveto
            132 110 113 143 143 -110 112 -132 -132 -110 -113 -143 -142 110 -113 132 hvcurveto
            -196 255 rmoveto
            120 90 93 108 107 90 -93 -120 -120 -90 -93 -107 -108 -90 93 120 vhcurveto
            return
          </CharString>
          <CharString index="72">
            -68 -321 rlineto
            -5 -24 4 callsubr
            -84 -20 callgsubr
            return
          </CharString>
          <CharString index="73">
            rmoveto
            42 48 34 63 20 vhcurveto
            -12 -58 rlineto
            -57 -12 -26 -21 -20 hhcurveto
            -11 -30 6 34 hvcurveto
            return
          </CharString>
          <CharString index="74">
            -250 57 callsubr
            369 40 return
          </CharString>
          <CharString index="75">
            -50 -15 -26 -38 -39 -62 callgsubr
            return
          </CharString>
          <CharString index="76">
            -38 callsubr
            145 return
          </CharString>
          <CharString index="77">
            rlineto
            36 -90 -85 33 -90 hhcurveto
            -37 -44 -9 -33 -36 hvcurveto
            28 -27 -38 14 -50 hhcurveto
            -66 -86 -85 callsubr
            vhcurveto
            297 710 rmoveto
            85 hlineto
            -87 -409 -88 -15 rlineto
            return
          </CharString>
          <CharString index="78">
            -18 -7 -13 -18 -28 vvcurveto
            return
          </CharString>
          <CharString index="79">
            39 callsubr
            -49 callgsubr
            return
          </CharString>
          <CharString index="80">
            -6 97 -70 -21 return
          </CharString>
          <CharString index="81">
            27 -14 21 -30 -37 -19 -25 -18 vhcurveto
            return
          </CharString>
          <CharString index="82">
            47 26 51 19 vhcurveto
            -6 return
          </CharString>
          <CharString index="83">
            -23 -88 -39 -77 callgsubr
            73 73 21 94 36 73 81 rlinecurve
            return
          </CharString>
          <CharString index="84">
            -148 -20 -145 -680 -58 callsubr
            52 247 rlineto
            23 28 23 14 23 hhcurveto
            26 10 -19 -29 return
          </CharString>
          <CharString index="85">
            68 -80 hhcurveto
            -134 -71 -178 -148 -31 hvcurveto
            42 hlineto
            165 35 60 79 39 hhcurveto
            18 10 -16 -67 10 hvcurveto
            16 -112 -202 -228 rlineto
            72 hlineto
            138 168 rlineto
            hintmask 10101000
            -122 20 return
          </CharString>
          <CharString index="86">
            -16 callsubr
            -54 54 return
          </CharString>
          <CharString index="87">
            -68 -321 rlineto
            -32 callsubr
            return
          </CharString>
          <CharString index="88">
            281 636 rmoveto
            -136 -636 -58 callsubr
            return
          </CharString>
          <CharString index="89">
            34 149 rlineto
            35 hlineto
            12 39 rlineto
            -38 hlineto
            50 217 -86 -11 -47 -206 rlineto
            -90 hlineto
            29 51 56 46 69 vvcurveto
            34 -31 17 -34 vhcurveto
            3 -11 1 -11 -11 vvcurveto
            -79 -64 -85 -20 -59 vhcurveto
            return
          </CharString>
          <CharString index="90">
            -22 19 34 -4 16 hhcurveto
            51 19 41 47 104 -94 34 -94 -221 -138 -190 -203 -156 81 -92 114 59 52 25 53 41 hvcurveto
            -50 -221 rlineto
            -103 -23 -34 -20 -38 hhcurveto
            return
          </CharString>
          <CharString index="91">
            155 -140 -21 361 145 return
          </CharString>
          <CharString index="92">
            -83 callsubr
            61 return
          </CharString>
          <CharString index="93">
            2 12 1 13 16 vvcurveto
            65 -57 43 -61 return
          </CharString>
          <CharString index="94">
            rmoveto
            -15 -14 -24 -8 -25 hhcurveto
            return
          </CharString>
          <CharString index="95">
            189 rlineto
            -105 hlineto
            return
          </CharString>
          <CharString index="96">
            100 132 100 return
          </CharString>
          <CharString index="97">
            rmoveto
            -82 -68 -75 -78 -4 vhcurveto
            94 21 50 108 57 callgsubr
          </CharString>
          <CharString index="98">
            rmoveto
            -216 -195 180 -185 40 44 -137 140 175 151 rlineto
            return
          </CharString>
          <CharString index="99">
            hstemhm
            260 138 -93 141 return
          </CharString>
          <CharString index="100">
            rmoveto
            -92 callgsubr
            return
          </CharString>
          <CharString index="101">
            85 -44 callsubr
            -68 -321 rlineto
            -5 -24 -3 -21 -19 vvcurveto
            -83 47 -38 60 42 57 13 83 50 vhcurveto
            -60 10 50 -36 55 hhcurveto
            81 79 39 95 75 hvcurveto
            return
          </CharString>
          <CharString index="102">
            69 -27 callsubr
            443 62 return
          </CharString>
          <CharString index="103">
            rmoveto
            -4 hlineto
            48 73 159 53 121 vvcurveto
            52 -31 34 -79 -88 -32 10 callgsubr
            vhcurveto
            -16 4 -6 20 13 vvcurveto
            return
          </CharString>
          <CharString index="104">
            28 -14 30 -37 -27 -33 -16 -42 -24 11 -7 7 vhcurveto
            return
          </CharString>
          <CharString index="105">
            -20 -4 callgsubr
            return
          </CharString>
          <CharString index="106">
            -176 171 193 hstem
            33 193 vstem
            33 267 rmoveto
            -53 43 -43 53 53 44 43 53 53 -44 44 -53 -53 -43 -44 -53 vhcurveto
            endchar
          </CharString>
          <CharString index="107">
            71 -71 155 200 145 -54 54 return
          </CharString>
          <CharString index="108">
            459 419 rmoveto
            -156 -38 -67 -67 -55 hhcurveto
            -52 -43 59 104 161 102 177 126 66 4 -49 -13 -29 -19 -49 -25 -7 hvcurveto
            return
          </CharString>
          <CharString index="109">
            78 0 63 -63 174 413 163 -52 52 return
          </CharString>
          <CharString index="110">
            174 -50 128 157 77 return
          </CharString>
          <CharString index="111">
            -3 -22 -19 vvcurveto
            return
          </CharString>
          <CharString index="112">
            4 15 2 14 11 vvcurveto
            62 -59 5 -27 -98 -36 -69 -69 -68 36 -69 119 140 67 96 153 33 vhcurveto
            82 376 rlineto
            return
          </CharString>
          <CharString index="113">
            -21 -13 -27 -22 -43 31 -11 29 hvcurveto
            -76 -53 rmoveto
            -68 -321 rlineto
            return
          </CharString>
          <CharString index="114">
            rmoveto
            -350 hlineto
            -18 -79 rlineto
            351 hlineto
            endchar
          </CharString>
          <CharString index="115">
            161 511 rmoveto
            -31 -98 -36 -99 -56 -99 rrcurveto
            -28 -13 -25 -34 -46 vvcurveto
            -61 44 -67 102 82 118 43 130 vhcurveto
            return
          </CharString>
          <CharString index="116">
            -84 callgsubr
            endchar
          </CharString>
          <CharString index="117">
            -30 -138 rlineto
            -33 hlineto
            -8 -40 rlineto
            33 hlineto
            return
          </CharString>
          <CharString index="118">
            rmoveto
            -8 11 12 -4 12 hhcurveto
            27 26 21 51 47 -22 46 -89 return
          </CharString>
          <CharString index="119">
            rlineto
            -59 -13 return
          </CharString>
          <CharString index="120">
            56 -308 -81 -93 -67 -35 -69 -25 rlinecurve
            98 461 rlineto
            return
          </CharString>
          <CharString index="121">
            52 callgsubr
            47 42 vhcurveto
            return
          </CharString>
          <CharString index="122">
            149 140 111 -80 80 return
          </CharString>
          <CharString index="123">
            -1 9 -13 8 51 vvcurveto
            return
          </CharString>
          <CharString index="124">
            -6 94 357 60 return
          </CharString>
          <CharString index="125">
            -28 callgsubr
            -104 callgsubr
            -80 callsubr
            303 -409 rmoveto
            return
          </CharString>
          <CharString index="126">
            -5 -24 4 callsubr
            -84 -20 callgsubr
            54 51 68 callsubr
            -28 callgsubr
            return
          </CharString>
          <CharString index="127">
            42 callsubr
            123 580 rlineto
            return
          </CharString>
          <CharString index="128">
            -136 222 79 hstem
            257 301 rmoveto
            -200 hlineto
            -18 -79 rlineto
            201 hlineto
            endchar
          </CharString>
          <CharString index="129">
            58 callsubr
            50 rlineto
            98 104 45 69 65 vvcurveto
            return
          </CharString>
          <CharString index="130">
            -6 77 -77 75 callgsubr
            355 return
          </CharString>
          <CharString index="131">
            -4 -20 25 -20 hstemhm
            507 138 -93 141 return
          </CharString>
          <CharString index="132">
            -73 -6 84 124 48 202 53 return
          </CharString>
          <CharString index="133">
            35 callsubr
            -4 -20 return
          </CharString>
          <CharString index="134">
            hlineto
            17 79 rlineto
            67 14 34 15 -27 callgsubr
            return
          </CharString>
          <CharString index="135">
            -11 6 -9 13 -1 vhcurveto
            endchar
          </CharString>
          <CharString index="136">
            -44 callsubr
            56 -305 -34 -29 -49 -26 -41 -17 rlinecurve
            2 13 2 15 16 vvcurveto
            return
          </CharString>
          <CharString index="137">
            46 callgsubr
            -69 -322 rlineto
            -145 hlineto
            -24 -112 rlineto
            146 hlineto
            return
          </CharString>
          <CharString index="138">
            -5 -25 4 callsubr
            -82 45 -37 61 92 return
          </CharString>
          <CharString index="139">
            rmoveto
            31 -20 19 -42 -15 -18 -3 -5 -20 vhcurveto
            return
          </CharString>
          <CharString index="140">
            rmoveto
            31 9 -25 -12 1 hvcurveto
            -44 -207 rlineto
            return
          </CharString>
          <CharString index="141">
            21 -21 745 -20 25 -20 return
          </CharString>
          <CharString index="142">
            -27 callsubr
            413 91 return
          </CharString>
          <CharString index="143">
            69 callsubr
            rlineto
            return
          </CharString>
          <CharString index="144">
            -79 -68 -78 -78 -5 vhcurveto
            96 21 49 110 52 hhcurveto
            18 6 -16 -28 hvcurveto
            return
          </CharString>
          <CharString index="145">
            148 -62 105 -180 -203 -195 -133 -140 -61 38 -23 63 return
          </CharString>
          <CharString index="146">
            -58 callsubr
            68 321 rlineto
            return
          </CharString>
          <CharString index="147">
            -66 -86 -27 -143 -30 return
          </CharString>
          <CharString index="148">
            561 189 hstem
            93 561 rmoveto
            75 hlineto
            91 -12 callsubr
            return
          </CharString>
          <CharString index="149">
            -75 47 callsubr
            return
          </CharString>
          <CharString index="150">
            64 19 8 -17 -24 -17 -4 -21 -8 -21 return
          </CharString>
          <CharString index="151">
            34 callsubr
            hstemhm
            55 93 return
          </CharString>
          <CharString index="152">
            -250 78 166 return
          </CharString>
          <CharString index="153">
            53 75 87 36 vhcurveto
            return
          </CharString>
          <CharString index="154">
            -23 -88 -42 -84 callsubr
            return
          </CharString>
          <CharString index="155">
            -332 hmoveto
            -32 callgsubr
            return
          </CharString>
          <CharString index="156">
            6 -33 hhcurveto
            -89 callgsubr
            return
          </CharString>
          <CharString index="157">
            -191 55 427 144 return
          </CharString>
          <CharString index="158">
            -229 -21 1000 -20 hstem
            return
          </CharString>
          <CharString index="159">
            305 362 rmoveto
            return
          </CharString>
          <CharString index="160">
            -29 104 -81 81 -81 97 354 60 -60 111 -56 -20 return
          </CharString>
          <CharString index="161">
            vvcurveto
            152 116 91 138 101 25 -49 -53 -81 -59 return
          </CharString>
          <CharString index="162">
            27 123 rlineto
            128 hlineto
            23 112 rlineto
            -127 hlineto
            return
          </CharString>
          <CharString index="163">
            -49 -19 33 34 38 23 39 49 17 26 -5 -21 15 hvcurveto
            return
          </CharString>
          <CharString index="164">
            89 155 97 return
          </CharString>
          <CharString index="165">
            -28 callgsubr
            -44 -8 29 59 -11 hvcurveto
            -9 return
          </CharString>
          <CharString index="166">
            0 37 254 37 46 37 256 35 48 -20 hstem
            return
          </CharString>
          <CharString index="167">
            -84 66 callgsubr
            return
          </CharString>
          <CharString index="168">
            -123 123 76 callsubr
            return
          </CharString>
          <CharString index="169">
            -29 -21 callgsubr
            return
          </CharString>
          <CharString index="170">
            41 callgsubr
            -28 callgsubr
            return
          </CharString>
          <CharString index="171">
            -36 198 rlineto
            -141 hlineto
            9 -48 -43 -60 -41 return
          </CharString>
          <CharString index="172">
            rmoveto
            54 48 29 63 21 vhcurveto
            -12 -59 12 callsubr
            return
          </CharString>
          <CharString index="173">
            24 33 5 12 42 hvcurveto
            -24 9 -15 26 33 vvcurveto
            return
          </CharString>
          <CharString index="174">
            -12 callgsubr
            endchar
          </CharString>
          <CharString index="175">
            32 71 5 vhcurveto
            return
          </CharString>
          <CharString index="176">
            114 540 return
          </CharString>
          <CharString index="177">
            98 62 178 71 25 11 -14 -40 2 vhcurveto
            return
          </CharString>
          <CharString index="178">
            61 -100 callsubr
            return
          </CharString>
          <CharString index="179">
            -250 141 849 -20 hstem
            54 93 vstem
            return
          </CharString>
          <CharString index="180">
            hlineto
            65 290 rlineto
            -88 hlineto
            -52 -290 rlineto
            return
          </CharString>
          <CharString index="181">
            -218 33 -33 60 51 49 return
          </CharString>
          <CharString index="182">
            62 -5 -2 callsubr
            return
          </CharString>
          <CharString index="183">
            -123 145 return
          </CharString>
          <CharString index="184">
            -6 97 609 -20 hstem
            9 144 vstem
            return
          </CharString>
          <CharString index="185">
            30 -40 64 hhcurveto
            41 callgsubr
            return
          </CharString>
          <CharString index="186">
            28 -155 rcurveline
            -73 -47 -75 -87 -66 vvcurveto
            return
          </CharString>
          <CharString index="187">
            34 -34 169 110 128 -29 29 return
          </CharString>
          <CharString index="188">
            hhcurveto
            50 96 22 -91 callsubr
            return
          </CharString>
          <CharString index="189">
            4 callgsubr
            endchar
          </CharString>
        <CharString name=".notdef">
          -72 endchar
        </CharString>
        <CharString name="A">
          -53 callgsubr
          -20 -6 callgsubr
          hintmask 11101100
          487 hmoveto
          -103 callsubr
          hintmask 11011010
          -102 callgsubr
          endchar
        </CharString>
        <CharString name="A.salt">
          78 -92 -21 134 -21 366 52 333 -20 hstem
          -32 120 vstem
          419 hmoveto
          157 736 rlineto
          10 -24 -32 5 -24 hhcurveto
          -238 -290 -563 -189 -106 65 -2 69 -4 hvcurveto
          -3 6 -11 4 46 vvcurveto
          97 42 172 64 154 vhcurveto
          158 hlineto
          -77 -366 rlineto
          -59 418 rmoveto
          58 126 72 106 73 32 -56 -264 rcurveline
          endchar
        </CharString>
        <CharString name="AE">
          385 -92 -21 113 106 171 178 -110 74 -20 56 185 91 -91 111 hstemhm
          15 118 -43 120 hintmask 1101010100000000
          766 hmoveto
          21 106 rlineto
          -224 hlineto
          51 239 rlineto
          151 hlineto
          20 74 rlineto
          -155 hlineto
          54 253 rlineto
          -15 38 36 -17 50 hhcurveto
          83 10 67 43 14 hvcurveto
          -14 -44 -38 -5 -35 hhcurveto
          hintmask 1110001010000000
          -70 -55 20 -55 hhcurveto
          -118 -130 -137 -162 -101 hvcurveto
          2 -22 -20 1 -17 hhcurveto
          hintmask 1110010100000000
          -103 -92 -54 -61 -45 28 -18 29 43 18 18 21 14 -8 17 -5 hvcurveto
          hintmask 1100110010000000
          14 36 43 12 60 4 rrcurveto
          -88 -152 -59 -163 -85 vvcurveto
          -106 65 -2 69 -4 vhcurveto
          -1 9 -13 -4 51 vvcurveto
          104 54 190 75 162 vhcurveto
          43 -3 41 -11 51 -22 -77 -363 rcurveline
          86 407 rmoveto
          -39 15 -43 11 -42 8 56 112 65 93 61 33 rrcurveto
          endchar
        </CharString>
        <CharString name="Aacute">
          -53 callgsubr
          -20 270 -20 -6 callgsubr
          hintmask 11101110
          487 hmoveto
          -103 callsubr
          hintmask 11011101
          -102 callgsubr
          -49 132 -100 callsubr
          endchar
        </CharString>
        <CharString name="Acircumflex">
          -53 callgsubr
          61 189 -20 -6 callgsubr
          hintmask 11101110
          487 hmoveto
          -103 callsubr
          hintmask 11011101
          -102 callgsubr
          165 132 rmoveto
          -60 189 rlineto
          -21 hlineto
          -212 -189 rlineto
          44 hlineto
          157 80 60 -80 rlineto
          endchar
        </CharString>
        <CharString name="Adieresis">
          -53 callgsubr
          -20 93 122 -6 callgsubr
          226 18 callgsubr
          hintmask 1110111011000000
          487 hmoveto
          -103 callsubr
          hintmask 1101110111000000
          -102 callgsubr
          75 205 -75 callgsubr
        </CharString>
        <CharString name="Agrave">
          -53 callgsubr
          -20 81 189 -6 callgsubr
          hintmask 11101110
          487 hmoveto
          -103 callsubr
          hintmask 11011101
          -102 callgsubr
          -39 132 -42 callgsubr
        </CharString>
        <CharString name="Aogonek">
          146 -193 59 -59 193 277 181 -59 59 292 -20 -6 callgsubr
          157 83 hintmask 01101101
          460 5 rmoveto
          -4 -2 -4 -1 -3 -2 rrcurveto
          38 hlineto
          -103 callsubr
          hintmask 01011011
          13 34 42 14 62 4 rrcurveto
          -87 -153 -60 -164 -90 vvcurveto
          -104 80 -2 54 vhcurveto
          -6 9 -8 13 38 vvcurveto
          101 55 189 75 163 vhcurveto
          44 -4 39 -9 51 -23 -77 -363 rcurveline
          40 hlineto
          7 5 rlineto
          39 402 rmoveto
          -39 16 -42 11 -41 8 56 112 64 93 60 32 rrcurveto
          -174 -794 rmoveto
          -35 24 -43 55 52 32 39 23 25 vhcurveto
          12 1 7 1 12 vhcurveto
          hintmask 10101101
          -13 -20 -24 -21 -24 hhcurveto
          -28 -11 28 22 hvcurveto
          hintmask 01101101
          35 27 34 26 15 vhcurveto
          -66 hlineto
          -46 -37 -24 -42 -36 vvcurveto
          endchar
        </CharString>
        <CharString name="Aring">
          -53 callgsubr
          -20 72 35 93 33 -6 callgsubr
          281 40 80 37 hintmask 1110111101100000
          487 hmoveto
          -103 callsubr
          hintmask 1101111011100000
          -102 callgsubr
          35 284 -52 callsubr
        </CharString>
        <CharString name="Atilde">
          -53 callgsubr
          -20 89 78 -41 74 -6 callgsubr
          hintmask 1110110100000000
          487 hmoveto
          -103 callsubr
          hintmask 1101110010000000
          13 34 42 14 62 4 rrcurveto
          -87 -153 -60 -164 -90 vvcurveto
          -104 80 -2 54 vhcurveto
          -6 9 -8 13 38 vvcurveto
          101 55 189 75 163 vhcurveto
          44 -4 39 -9 51 -23 -77 -363 rcurveline
          413 920 -13 callsubr
          hintmask 1110101100000000
          -79 callsubr
          hintmask 1110110100000000
          -39 callsubr
          -333 -512 rmoveto
          -39 16 -42 11 -41 8 56 112 64 93 60 32 rrcurveto
          endchar
        </CharString>
        <CharString name="B">
          224 -17 96 -58 -21 386 48 270 46 hstemhm
          57 93 362 139 -119 101 -101 119 hintmask 01111100
          -19 callsubr
          82 383 rlineto
          2 18 20 1 8 hhcurveto
          73 22 -57 -70 hvcurveto
          hintmask 10111001
          -76 -26 -104 -73 -23 -19 10 26 -25 vhcurveto
          -9 -23 -4 -19 -16 vvcurveto
          -61 56 -13 43 167 52 192 96 75 -33 69 -85 17 vhcurveto
          hintmask 10111010
          65 37 35 63 59 vvcurveto
          82 -66 77 -147 -189 -174 -127 -138 -67 41 -25 66 vhcurveto
          -3 9 -11 11 48 vvcurveto
          165 133 78 117 95 37 -51 -57 -75 -64 -87 -80 vhcurveto
          -6 hlineto
          47 222 rlineto
          endchar
        </CharString>
        <CharString name="B.salt">
          218 -28 92 -43 -21 393 41 270 46 hstemhm
          57 93 350 149 -119 105 -105 119 hintmask 01111100
          -19 callsubr
          6 30 rlineto
          hintmask 10111001
          -41 39 41 -17 39 hhcurveto
          125 110 175 136 72 -32 62 -82 15 hvcurveto
          hintmask 10111010
          64 38 36 61 58 vvcurveto
          83 -74 78 -144 -183 -177 -126 -139 -67 41 -25 66 vhcurveto
          -1 9 -13 8 51 54 callsubr
          -87 -83 vhcurveto
          -6 hlineto
          47 222 rlineto
          -59 -592 rmoveto
          -20 -21 8 21 -20 hvcurveto
          62 290 rlineto
          2 18 20 1 7 hhcurveto
          hintmask 10111100
          63 21 -49 -57 -96 -58 -120 -72 hvcurveto
          endchar
        </CharString>
        <CharString name="C">
          26 callgsubr
          hstemhm
          45 166 269 81 hintmask 10111000
          526 180 rmoveto
          -67 callgsubr
          hintmask 11011000
          -70 callgsubr
          endchar
        </CharString>
        <CharString name="Cacute">
          26 callgsubr
          250 -20 hstemhm
          45 166 269 81 hintmask 10111100
          526 180 rmoveto
          -67 callgsubr
          hintmask 11011100
          -70 callgsubr
          -186 641 -100 callsubr
          endchar
        </CharString>
        <CharString name="Ccaron">
          26 callgsubr
          250 -20 hstemhm
          45 166 269 81 hintmask 10111100
          526 180 rmoveto
          -67 callgsubr
          hintmask 11011100
          -70 callgsubr
          -231 830 rmoveto
          60 -189 rlineto
          21 hlineto
          212 189 rlineto
          -44 hlineto
          -157 -80 -60 80 rlineto
          endchar
        </CharString>
        <CharString name="Ccedilla">
          50 74 callsubr
          42 91 449 226 -47 47 hstemhm
          45 166 94 83 92 81 hintmask 1011011110000000
          388 -108 32 callsubr
          21 53 107 13 100 64 48 106 rlinecurve
          -23 10 rlineto
          -67 callgsubr
          hintmask 1011101110000000
          -22 19 22 -4 16 hhcurveto
          51 19 40 50 99 -74 37 -89 -269 -84 -340 -181 -171 75 -74 131 hvcurveto
          -37 -103 7 callgsubr
          hintmask 0111101110000000
          -17 callgsubr
        </CharString>
        <CharString name="Ccircumflex">
          26 callgsubr
          0 61 189 -20 hstemhm
          45 166 269 81 hintmask 10101110
          526 180 rmoveto
          -67 callgsubr
          hintmask 11001110
          -70 callgsubr
          hintmask 10011110
          -28 641 rmoveto
          -60 189 rlineto
          -21 hlineto
          -212 -189 rlineto
          44 hlineto
          157 80 60 -80 rlineto
          endchar
        </CharString>
        <CharString name="D">
          251 -13 88 -54 -21 704 46 hstemhm
          57 93 408 138 hintmask 01111000
          -19 callsubr
          8 40 rlineto
          hintmask 10111000
          80 callgsubr
          249 220 165 -73 129 -198 -197 -171 -127 -137 -68 41 -25 66 hvcurveto
          -3 9 -11 12 47 vvcurveto
          152 117 91 137 104 50 -52 -150 -182 -73 -245 -119 -19 -19 6 14 -19 vhcurveto
          120 561 rlineto
          endchar
        </CharString>
        <CharString name="E">
          8 callgsubr
          15 callgsubr
          hintmask 11010100
          -56 callgsubr
          hintmask 10101100
          -74 callgsubr
          hintmask 11001100
          -85 callgsubr
          hintmask 11010100
          -57 callsubr
          endchar
        </CharString>
        <CharString name="E.salt">
          129 0 101 244 74 211 108 -70 82 hstemhm
          63 93 hintmask 11101000
          376 419 rmoveto
          49 230 rlineto
          -10 46 48 -9 46 hhcurveto
          hintmask 11011000
          78 17 3 61 14 42 rrcurveto
          hintmask 11101000
          -9 -28 -31 -3 -31 hhcurveto
          hintmask 11011000
          -63 -63 12 -40 hhcurveto
          -247 -94 -43 callgsubr
          160 53 44 77 3 vhcurveto
          -144 -668 rlineto
          369 hlineto
          20 101 rlineto
          -224 hlineto
          53 244 rlineto
          150 hlineto
          20 74 rlineto
          endchar
        </CharString>
        <CharString name="E_x">
          331 -16 93 -93 107 -76 -21 459 103 -33 229 -59 59 15 callgsubr
          165 124 hintmask 1001011011000000
          461 462 rmoveto
          50 -274 rlineto
          -66 -58 -92 -45 -72 hhcurveto
          -58 -44 30 72 92 72 123 107 24 hvcurveto
          hintmask 1001010111000000
          -74 callgsubr
          hintmask 1000100111000000
          -85 callgsubr
          hintmask 0101011011000000
          -115 -28 -70 -126 -105 vvcurveto
          -124 86 -50 104 113 135 58 84 73 vhcurveto
          hintmask 0011011011000000
          -93 22 30 -39 63 hhcurveto
          54 95 22 -91 callsubr
          hintmask 0101011011000000
          -13 callgsubr
          -8 50 38 -7 hvcurveto
          -9 50 rlineto
          98 104 45 69 65 vvcurveto
          -107 callgsubr
          -32 178 rlineto
          endchar
        </CharString>
        <CharString name="Eacute">
          8 callgsubr
          248 -20 -73 callsubr
          -135 641 -100 callsubr
          endchar
        </CharString>
        <CharString name="Ecircumflex">
          8 callgsubr
          0 59 189 -20 15 callgsubr
          hintmask 11001101
          -56 callgsubr
          hintmask 10101011
          -74 callgsubr
          hintmask 11001011
          -85 callgsubr
          hintmask 10011101
          -57 callsubr
          11 641 rmoveto
          -60 189 rlineto
          -21 hlineto
          -212 -189 rlineto
          44 hlineto
          157 80 60 -80 rlineto
          endchar
        </CharString>
        <CharString name="Edieresis">
          8 callgsubr
          71 122 hstemhm
          13 174 -50 128 -21 122 56 77 -77 124 hintmask 1101101100000000
          -56 callgsubr
          hintmask 1011010100000000
          -74 callgsubr
          hintmask 1101010100000000
          -85 callgsubr
          hintmask 1101101010000000
          -57 callsubr
          -246 714 rmoveto
          -104 callsubr
          21 callgsubr
        </CharString>
        <CharString name="Egrave">
          8 callgsubr
          59 189 -73 callsubr
          -173 641 -42 callgsubr
        </CharString>
        <CharString name="Eogonek">
          7 -193 59 128 90 440 226 -44 44 hstemhm
          28 175 -93 135 -7 83 112 83 hintmask 11101011
          478 180 rmoveto
          -64 -37 -44 -32 -77 hhcurveto
          -64 -53 60 73 69 47 80 127 52 hvcurveto
          hintmask 11010101
          -94 42 -38 65 58 vvcurveto
          67 49 56 73 64 2 -58 -16 -25 -19 -50 -25 -7 vhcurveto
          hintmask 11100101
          -22 19 22 -4 16 hhcurveto
          51 19 39 53 97 -91 37 -93 -142 -80 -90 -91 -57 31 -58 68 -37 hvcurveto
          hintmask 11101011
          -121 -25 -60 -100 -96 vvcurveto
          -103 69 -99 138 24 26 2 5 25 vhcurveto
          -47 -37 -25 -43 -36 -51 callgsubr
          125 134 -15 46 144 hvcurveto
          endchar
        </CharString>
        <CharString name="Eth">
          250 -13 88 -54 -21 345 74 285 46 hstemhm
          57 93 408 138 hintmask 01111100
          281 636 rmoveto
          -46 -217 rlineto
          -35 hlineto
          -20 -74 rlineto
          39 hlineto
          -74 -345 rlineto
          144 1 callgsubr
          hintmask 10111100
          80 callgsubr
          235 258 141 -57 129 -231 -167 -184 -43 callgsubr
          152 108 91 162 115 23 -71 -125 -192 -73 -241 -119 -19 -19 6 14 -19 vhcurveto
          53 250 rlineto
          75 hlineto
          20 74 rlineto
          -79 hlineto
          51 237 rlineto
          endchar
        </CharString>
        <CharString name="Euro">
          162 -6 90 200 50 65 50 75 226 -47 47 hstemhm
          104 157 271 83 hintmask 11101110
          264 334 rmoveto
          2 21 3 22 3 22 rrcurveto
          199 hlineto
          14 50 rlineto
          -202 hlineto
          133 31 64 121 85 hhcurveto
          64 5 -55 -16 -25 -19 -50 -25 -7 hvcurveto
          hintmask 11110110
          -22 19 22 -4 16 hhcurveto
          51 19 39 53 97 -81 37 -93 -188 -91 -141 -160 -37 hvcurveto
          -67 hlineto
          -14 -50 rlineto
          71 hlineto
          -3 -22 -3 -22 -2 -21 rrcurveto
          -74 hlineto
          -14 -50 rlineto
          85 -35 hlineto
          -205 117 -50 102 94 72 22 79 60 vhcurveto
          -2 29 rlineto
          -31 -40 -37 -9 -77 hhcurveto
          -108 -24 56 131 hvcurveto
          13 185 vlineto
          14 50 rlineto
          endchar
        </CharString>
        <CharString name="F">
          102 21 -21 376 74 180 108 -70 82 hstemhm
          63 93 hintmask 11101000
          383 450 rmoveto
          42 198 rlineto
          -9 44 43 -9 37 hhcurveto
          hintmask 11011000
          46 42 14 106 23 hvcurveto
          hintmask 11101000
          -9 -28 -30 -3 -33 hhcurveto
          hintmask 11011000
          -67 -43 12 -69 hhcurveto
          -223 -104 -127 -129 -76 36 -25 71 hvcurveto
          -5 11 -9 12 54 vvcurveto
          151 57 44 73 3 vhcurveto
          -144 -668 -58 callsubr
          81 376 rlineto
          146 hlineto
          16 74 rlineto
          endchar
        </CharString>
        <CharString name="F_i">
          361 0 91 -76 -21 382 74 50 -20 114 136 -62 82 hstemhm
          118 93 349 144 hintmask 10111011
          458 450 rmoveto
          43 200 rlineto
          -22 83 45 -34 82 hhcurveto
          80 30 84 71 14 hvcurveto
          -14 -54 -48 -5 -43 hhcurveto
          hintmask 10110111
          -90 -73 20 -68 hhcurveto
          -247 -94 -43 callgsubr
          166 58 41 81 vhcurveto
          11 hlineto
          -144 -668 -58 callsubr
          81 376 rlineto
          126 hlineto
          16 74 rlineto
          52 50 rmoveto
          -68 -321 rlineto
          -5 -24 4 callsubr
          hintmask 01111011
          60 callsubr
          hintmask 10111011
          -50 -15 -36 -95 callsubr
          -80 callsubr
          endchar
        </CharString>
        <CharString name="G">
          48 callgsubr
          hstemhm
          50 154 -104 84 -84 220 182 95 hintmask 1110110010000000
          1 callsubr
          hintmask 1111010010000000
          -17 callsubr
          hintmask 1111001010000000
          56 callsubr
          hintmask 1111000110000000
          5 callsubr
          endchar
        </CharString>
        <CharString name="Gbreve">
          48 callgsubr
          65 42 -42 138 hstemhm
          50 154 -104 84 -84 220 23 79 80 95 hintmask 1110110100110000
          1 callsubr
          hintmask 1111010100110000
          -17 callsubr
          hintmask 1111010010110000
          56 callsubr
          hintmask 1111001001110000
          5 callsubr
          55 535 rmoveto
          hintmask 1111010100110000
          33 callgsubr
          hintmask 1111001100110000
          -23 callgsubr
          endchar
        </CharString>
        <CharString name="H">
          238 21 -21 376 74 298 -20 22 -20 hstemhm
          56 93 hintmask 11101000
          447 748 rmoveto
          hintmask 11011000
          -99 callgsubr
          11 49 vvcurveto
          105 52 77 88 36 vhcurveto
          -145 -680 -58 callsubr
          80 376 rlineto
          147 hlineto
          -80 -376 -58 callsubr
          hintmask 11101000
          159 748 rlineto
          -144 hlineto
          -64 -298 rlineto
          -147 hlineto
          endchar
        </CharString>
        <CharString name="I">
          76 callgsubr
          -20 hstem
          56 93 vstem
          -94 callsubr
          144 hlineto
          endchar
        </CharString>
        <CharString name="IJ">
          223 -207 50 178 -21 750 -20 hstemhm
          56 93 13 84 -84 205 hintmask 11111000
          -94 callsubr
          34 hlineto
          -11 -20 -5 -23 -27 vvcurveto
          -79 48 -58 113 155 66 109 138 29 vhcurveto
          150 710 -150 -33 -164 -751 rlineto
          -100 -22 -30 -23 -40 hhcurveto
          -44 -27 29 39 40 29 33 36 16 17 -7 -16 16 hvcurveto
          hintmask 11110100
          4 11 3 11 11 vvcurveto
          34 -26 24 -41 6 vhcurveto
          endchar
        </CharString>
        <CharString name="Iacute">
          76 callgsubr
          -20 270 -20 hstem
          56 93 vstem
          -94 callsubr
          144 hlineto
          31 811 -100 callsubr
          endchar
        </CharString>
        <CharString name="Icircumflex">
          76 callgsubr
          61 189 -20 hstem
          56 93 vstem
          -94 callsubr
          144 hlineto
          206 811 rmoveto
          -60 189 rlineto
          -21 hlineto
          -212 -189 rlineto
          44 hlineto
          157 80 60 -80 rlineto
          endchar
        </CharString>
        <CharString name="Idieresis">
          76 callgsubr
          -20 93 122 hstem
          56 93 68 18 callgsubr
          vstem
          -94 callsubr
          144 hlineto
          109 884 -75 callgsubr
        </CharString>
        <CharString name="Igrave">
          76 callgsubr
          -20 81 189 hstem
          56 93 vstem
          -94 callsubr
          144 hlineto
          -8 811 -42 callgsubr
        </CharString>
        <CharString name="J">
          -12 -207 50 144 81 682 -20 hstemhm
          -73 84 -84 220 -50 93 hintmask 11110100
          448 750 rmoveto
          -167 -94 callgsubr
          -3 9 -11 11 48 vvcurveto
          107 54 76 87 36 vhcurveto
          -157 -714 rlineto
          -103 -23 -29 -20 -38 hhcurveto
          -43 -30 25 44 38 23 37 48 18 28 -5 -21 13 hvcurveto
          hintmask 11101000
          4 15 2 14 11 vvcurveto
          62 -59 5 -27 -99 -35 -67 -69 -81 47 -58 114 149 70 100 147 31 vhcurveto
          150 710 rlineto
          endchar
        </CharString>
        <CharString name="K">
          190 4 -21 38 -21 381 45 319 -20 25 -20 hstemhm
          56 93 259 138 -85 85 -85 134 hintmask 0110110100000000
          447 -90 callsubr
          12 48 vvcurveto
          105 52 77 88 36 vhcurveto
          -145 -680 -58 callsubr
          80 377 rlineto
          2 12 12 2 10 hhcurveto
          44 15 -28 -40 hvcurveto
          hintmask 1010111000000000
          74 callgsubr
          hintmask 0110111000000000
          66 callsubr
          hintmask 0111010010000000
          60 49 109 83 vvcurveto
          62 -27 44 -103 vhcurveto
          -9 -11 -1 -13 hhcurveto
          282 320 rlineto
          -93 hlineto
          -242 -316 rlineto
          endchar
        </CharString>
        <CharString name="L">
          -2 72 callsubr
          445 738 rmoveto
          -98 callsubr
          -4 9 -10 13 47 vvcurveto
          106 46 callsubr
          -149 -693 rlineto
          1 8 7 0 8 174 137 -227 128 hhcurveto
          66 34 61 96 11 hvcurveto
          -12 -29 -29 -4 -25 hhcurveto
          -130 -103 106 23 -104 hvcurveto
          endchar
        </CharString>
        <CharString name="Lslash">
          35 72 callsubr
          711 -93 rmoveto
          -12 -29 -28 -4 -27 hhcurveto
          -128 -104 106 23 -104 hvcurveto
          84 385 127 78 4 61 -116 -69 55 263 rlineto
          1 -13 -13 1 -14 hhcurveto
          -167 -184 -43 callgsubr
          107 46 callsubr
          -66 -311 -76 -49 -2 -53 65 39 -70 -319 rlineto
          1 8 7 0 8 177 126 -227 143 hhcurveto
          54 40 61 96 10 hvcurveto
          endchar
        </CharString>
        <CharString name="M">
          333 21 -21 750 -20 hstem
          59 93 142 147 vstem
          689 hmoveto
          105 736 rlineto
          -144 hlineto
          -220 -527 23 527 rlineto
          9 -24 -25 5 -29 hhcurveto
          -150 -166 -138 -129 -65 43 -25 64 hvcurveto
          -3 9 -11 13 47 vvcurveto
          114 60 78 99 33 vhcurveto
          -254 -687 rlineto
          80 hlineto
          167 451 -20 -451 rlineto
          137 hlineto
          188 449 -64 -449 rlineto
          endchar
        </CharString>
        <CharString name="N">
          266 21 -21 748 -20 22 -20 hstemhm
          61 93 hintmask 11010000
          14 callgsubr
          hintmask 10110000
          -65 callgsubr
          hintmask 11010000
          170 748 rlineto
          endchar
        </CharString>
        <CharString name="N.salt">
          246 -27 callsubr
          659 91 hstemhm
          57 93 308 138 -40 141 hintmask 01110100
          407 750 rmoveto
          -88 callsubr
          -1 9 -13 7 53 vvcurveto
          100 47 73 79 39 vhcurveto
          -144 -674 rlineto
          157 hlineto
          115 542 rlineto
          51 11 50 66 42 hhcurveto
          19 30 -14 -50 hvcurveto
          hintmask 10111000
          -90 -98 -318 -86 vvcurveto
          -48 31 -59 87 53 77 21 164 56 vhcurveto
          -42 hlineto
          -52 -22 -18 -36 -44 hhcurveto
          -30 -10 18 21 hvcurveto
          hintmask 10110100
          68 101 312 108 vvcurveto
          71 -44 61 -77 -56 -54 -33 -55 -37 vhcurveto
          19 86 rlineto
          1 -14 -17 1 -10 hhcurveto
          endchar
        </CharString>
        <CharString name="Nacute">
          266 21 -21 748 -20 22 -20 270 -20 hstemhm
          61 93 hintmask 11011000
          14 callgsubr
          hintmask 10111000
          -65 callgsubr
          hintmask 11011000
          170 748 rlineto
          -219 63 -100 callsubr
          endchar
        </CharString>
        <CharString name="Ntilde">
          266 21 -21 748 -20 22 -20 89 78 -41 74 hstemhm
          61 93 hintmask 11010100
          14 callgsubr
          hintmask 10110100
          -65 callgsubr
          hintmask 11010100
          170 748 rlineto
          -12 172 -13 callsubr
          hintmask 10101100
          -79 callsubr
          hintmask 10110100
          -39 callsubr
          endchar
        </CharString>
        <CharString name="O">
          34 callgsubr
          hstem
          -26 callgsubr
          vstem
          -106 callgsubr
          endchar
        </CharString>
        <CharString name="OE">
          413 0 83 -83 106 -91 -21 351 74 211 108 -34 46 hstemhm
          -26 callgsubr
          hintmask 1001101110000000
          689 419 rmoveto
          3 27 2 26 25 vvcurveto
          67 -13 58 -31 44 vhcurveto
          -8 66 63 -28 78 hhcurveto
          hintmask 1001011110000000
          78 17 3 61 14 42 rrcurveto
          hintmask 1001101110000000
          -9 -28 -31 -3 -31 hhcurveto
          hintmask 1001011110000000
          -63 -63 12 -40 hhcurveto
          -58 -37 -7 -12 -35 hvcurveto
          13 -31 -38 6 -45 hhcurveto
          -203 -195 -133 -140 -61 38 -23 63 hvcurveto
          -5 9 -5 9 37 vvcurveto
          158 139 98 144 101 32 -48 -117 -216 -108 -240 -99 -44 -16 40 68 154 84 256 91 55 vhcurveto
          6 -18 -18 2 -15 hhcurveto
          -182 -90 -307 -162 hvcurveto
          hintmask 0011101110000000
          -146 73 -55 109 vhcurveto
          hintmask 1001101110000000
          24 23 3 3 21 hvcurveto
          387 hlineto
          hintmask 0101101110000000
          21 106 rlineto
          -243 hlineto
          56 66 37 87 21 86 rrcurveto
          127 hlineto
          20 74 rlineto
          endchar
        </CharString>
        <CharString name="Oacute">
          34 callgsubr
          250 -20 hstem
          -26 callgsubr
          vstem
          -106 callgsubr
          -34 155 -100 callsubr
          endchar
        </CharString>
        <CharString name="Ocircumflex">
          240 -6 89 581 40 0 46 0 61 189 -20 hstemhm
          -26 callgsubr
          hintmask 11011111
          469 656 rmoveto
          6 -18 -18 2 -15 hhcurveto
          -182 -90 -307 -162 -146 73 -55 109 258 108 307 196 hvcurveto
          hintmask 10101111
          29 callgsubr
          -5 9 -5 9 37 vvcurveto
          158 139 98 144 101 32 -48 -117 -216 -108 -240 -99 -44 -16 40 68 154 84 256 91 55 vhcurveto
          hintmask 11011111
          134 155 rmoveto
          -60 189 rlineto
          -21 hlineto
          -212 -189 rlineto
          44 hlineto
          157 80 60 -80 rlineto
          endchar
        </CharString>
        <CharString name="Odieresis">
          34 callgsubr
          73 122 hstemhm
          54 91 1 148 32 18 callgsubr
          -67 133 hintmask 11111101
          -106 callgsubr
          -143 228 rmoveto
          -104 callsubr
          hintmask 11111110
          21 callgsubr
        </CharString>
        <CharString name="Ograve">
          34 callgsubr
          61 189 hstem
          -26 callgsubr
          vstem
          -106 callgsubr
          -80 155 -42 callgsubr
        </CharString>
        <CharString name="Ohungarumlaut">
          34 callgsubr
          61 189 hstem
          -26 callgsubr
          vstem
          -106 callgsubr
          -37 155 -48 callgsubr
          39 -189 -48 callgsubr
          endchar
        </CharString>
        <CharString name="Oslash">
          203 -50 -21 86 -21 665 43 48 -20 hstem
          46 88 1 143 257 128 vstem
          348 -71 rmoveto
          15 70 rlineto
          212 38 88 259 166 vvcurveto
          117 -41 89 -112 26 vhcurveto
          12 56 rlineto
          -52 hlineto
          -11 -49 rlineto
          1 -8 -8 0 -8 hhcurveto
          -203 -186 -124 -132 -57 37 -21 61 hvcurveto
          7 -10 7 36 vvcurveto
          149 130 92 148 14 13 -1 -2 11 vhcurveto
          -9 -41 rlineto
          5 -15 -15 2 -15 hhcurveto
          -173 -88 -288 -151 -137 71 -52 104 hvcurveto
          -14 -65 rlineto
          -18 250 rmoveto
          141 77 233 85 57 vhcurveto
          -114 -540 rlineto
          -34 6 -14 43 60 vvcurveto
          257 316 rmoveto
          -158 -73 -191 -80 -58 vhcurveto
          115 546 rlineto
          30 -26 8 -47 -66 vvcurveto
          endchar
        </CharString>
        <CharString name="Otilde">
          34 callgsubr
          69 78 -41 74 hstemhm
          -26 callgsubr
          hintmask 11101110
          -106 callgsubr
          238 264 -13 callsubr
          hintmask 11011110
          -79 callsubr
          hintmask 11101110
          -39 callsubr
          endchar
        </CharString>
        <CharString name="P">
          145 21 -21 285 37 382 46 hstem
          57 93 383 111 vstem
          -19 callsubr
          61 285 rlineto
          5 hlineto
          180 109 142 125 104 -75 94 -154 -177 -181 -124 -141 -67 41 -25 66 hvcurveto
          -5 10 -9 9 50 vvcurveto
          156 111 86 131 112 29 -62 -70 -113 -74 -129 -101 -8 vhcurveto
          71 334 rlineto
          endchar
        </CharString>
        <CharString name="Q">
          241 -113 84 23 81 45 37 547 46 hstem
          -26 callgsubr
          vstem
          469 656 rmoveto
          6 -18 -18 2 -15 hhcurveto
          -182 -90 -307 -162 -146 73 -55 109 32 31 5 9 28 hvcurveto
          -60 17 23 -61 86 hhcurveto
          47 32 18 68 26 hvcurveto
          -1 -8 -6 -1 -10 hhcurveto
          -62 -31 39 42 -29 hvcurveto
          132 99 58 202 144 vvcurveto
          29 callgsubr
          -3 9 -7 8 38 vvcurveto
          158 139 98 144 101 32 -48 -117 -154 -55 -170 -67 -85 vhcurveto
          16 -21 -26 11 -34 hhcurveto
          -18 -20 -3 -6 -24 hvcurveto
          -2 13 0 14 16 vvcurveto
          154 84 256 91 55 vhcurveto
          -115 -581 rmoveto
          -25 -16 15 26 -9 hvcurveto
          3 11 9 1 9 hhcurveto
          28 17 -14 -21 12 hvcurveto
          -7 -12 -12 -3 -12 hhcurveto
          endchar
        </CharString>
        <CharString name="R">
          199 4 -21 38 -21 381 44 279 46 hstemhm
          57 93 259 138 -85 85 -17 66 -66 105 hintmask 0111101000000000
          -19 callsubr
          80 377 rlineto
          2 13 11 2 10 hhcurveto
          44 15 -28 -40 hvcurveto
          hintmask 1011110000000000
          74 callgsubr
          hintmask 0111110000000000
          66 callsubr
          hintmask 0111100100000000
          60 49 109 83 vvcurveto
          47 -16 37 -54 15 vhcurveto
          hintmask 0111100010000000
          70 40 39 70 60 vvcurveto
          83 -73 78 -145 -185 -175 -127 -138 -67 41 -25 66 vhcurveto
          -3 9 -11 12 47 54 callsubr
          -96 -83 vhcurveto
          -8 hlineto
          49 231 rlineto
          endchar
        </CharString>
        <CharString name="S">
          69 -18 80 187 66 214 221 -48 48 hstemhm
          -1 116 9 143 62 163 -59 83 hintmask 11011101
          516 630 rmoveto
          110 -114 10 -47 -129 -102 -75 -104 vhcurveto
          hintmask 11011110
          -147 205 -61 -171 vvcurveto
          -84 -48 -46 -67 -64 -35 40 50 69 64 28 55 vhcurveto
          52 -8 -45 14 -35 hhcurveto
          -70 -77 -56 -108 -122 98 -47 114 145 136 79 168 hvcurveto
          216 -225 20 147 vvcurveto
          60 37 30 55 vhcurveto
          hintmask 11101101
          55 19 -31 -35 -33 -18 -37 -27 -16 hvcurveto
          -15 13 15 -6 18 hhcurveto
          50 32 43 58 hvcurveto
          endchar
        </CharString>
        <CharString name="Sacute">
          -81 callgsubr
          -186 181 -100 callsubr
          endchar
        </CharString>
        <CharString name="Scaron">
          -81 callgsubr
          -246 370 rmoveto
          60 -189 rlineto
          21 hlineto
          212 189 rlineto
          -44 hlineto
          -157 -80 -60 80 rlineto
          endchar
        </CharString>
        <CharString name="T">
          217 21 -21 620 106 -64 87 hstemhm
          62 93 hintmask 11010000
          647 620 rmoveto
          84 42 40 87 2 hvcurveto
          -11 -27 -40 -10 -55 hhcurveto
          hintmask 10110000
          -83 -55 23 -107 hhcurveto
          -252 -94 -127 -127 -78 35 -25 72 hvcurveto
          -4 12 -10 6 55 vvcurveto
          156 84 41 105 vhcurveto
          11 hlineto
          -142 -662 -58 callsubr
          138 642 rlineto
          hintmask 11010000
          -12 54 52 -10 46 hhcurveto
          endchar
        </CharString>
        <CharString name="T_h">
          551 0 91 -76 -21 419 91 160 85 hstemhm
          60 93 610 138 -93 93 -93 141 hintmask 10111010
          153 460 rmoveto
          157 89 43 112 4 vhcurveto
          -143 -664 -58 callsubr
          141 655 46 -6 45 -8 41 -3 rlinecurve
          -137 -638 -58 callsubr
          24 133 20 107 17 87 rrcurveto
          47 15 26 39 35 hhcurveto
          24 12 -18 -33 hvcurveto
          hintmask 01111100
          -64 -45 -123 -68 vvcurveto
          -57 31 -56 87 53 77 21 164 56 vhcurveto
          -42 hlineto
          hintmask 10111100
          -52 -22 -18 -36 -44 hhcurveto
          -30 -10 17 25 hvcurveto
          hintmask 10111001
          -64 callsubr
          -32 -44 -9 -49 -43 vhcurveto
          46 228 14 29 24 44 rrcurveto
          -18 -28 -44 -6 -49 -102 -122 26 -46 hhcurveto
          -247 -105 -43 callgsubr
          endchar
        </CharString>
        <CharString name="T_i">
          326 0 91 -76 -21 506 -20 101 152 -59 75 hstemhm
          62 93 370 144 hintmask 10110110
          213 hmoveto
          -24 callgsubr
          137 637 rlineto
          -29 85 58 -27 46 hhcurveto
          36 67 19 81 19 -3 22 -8 25 hvcurveto
          -11 -27 -42 -3 -46 hhcurveto
          hintmask 10101110
          -98 -118 16 -41 hhcurveto
          -247 -94 -43 callgsubr
          165 70 49 92 13 13 -1 -2 14 vhcurveto
          244 -171 rmoveto
          -68 -321 rlineto
          -5 -24 4 callsubr
          hintmask 01110110
          60 callsubr
          hintmask 10110110
          -50 -15 -36 -95 callsubr
          -80 callsubr
          endchar
        </CharString>
        <CharString name="Thorn">
          146 21 -21 175 37 382 46 110 -20 hstem
          34 93 383 111 vstem
          278 730 rmoveto
          -25 -114 rlineto
          -119 -43 -100 -95 -98 vvcurveto
          -72 38 -25 69 vhcurveto
          16 callsubr
          99 41 73 74 39 vhcurveto
          -120 -562 -58 callsubr
          37 175 rlineto
          29 hlineto
          180 109 141 127 99 -67 91 -152 7 hvcurveto
          24 110 rlineto
          -115 -538 rmoveto
          82 382 rlineto
          83 -3 34 -61 -72 vvcurveto
          -110 -79 -136 -106 vhcurveto
          endchar
        </CharString>
        <CharString name="U">
          3 callgsubr
          -20 hstemhm
          55 93 62 136 hintmask 11011000
          -80 callgsubr
          hintmask 10111000
          -101 callsubr
          hintmask 11011000
          66 312 rlineto
          endchar
        </CharString>
        <CharString name="Uacute">
          3 callgsubr
          -20 270 -20 hstemhm
          55 93 62 136 hintmask 11011100
          -80 callgsubr
          hintmask 10111100
          -101 callsubr
          hintmask 11011100
          66 312 rlineto
          -310 63 -100 callsubr
          endchar
        </CharString>
        <CharString name="Ucircumflex">
          3 callgsubr
          61 189 -20 hstem
          55 93 62 136 vstem
          -80 callgsubr
          -101 callsubr
          66 312 rlineto
          -105 63 rmoveto
          -60 189 rlineto
          -21 hlineto
          -212 -189 rlineto
          44 hlineto
          157 80 60 -80 rlineto
          endchar
        </CharString>
        <CharString name="Udieresis">
          3 callgsubr
          -20 93 122 hstemhm
          55 93 62 136 82 18 callgsubr
          hintmask 11011111
          -80 callgsubr
          hintmask 10111111
          -101 callsubr
          hintmask 11011111
          66 312 rlineto
          -208 136 -75 callgsubr
        </CharString>
        <CharString name="Ugrave">
          3 callgsubr
          -20 81 189 hstemhm
          55 93 62 136 hintmask 11011100
          -80 callgsubr
          hintmask 10111100
          -101 callsubr
          hintmask 11011100
          66 312 rlineto
          -292 63 -42 callgsubr
        </CharString>
        <CharString name="Uhungarumlaut">
          3 callgsubr
          -20 81 189 hstemhm
          55 93 62 136 hintmask 11011100
          -80 callgsubr
          hintmask 10111100
          -101 callsubr
          hintmask 11011100
          66 312 rlineto
          -182 63 -48 callgsubr
          -221 -189 -48 callgsubr
          endchar
        </CharString>
        <CharString name="V">
          203 44 callsubr
          157 145 hintmask 10111000
          446 -90 callsubr
          13 47 vvcurveto
          109 56 78 93 34 vhcurveto
          16 -683 -58 callsubr
          hintmask 11011000
          73 callgsubr
          rlineto
          endchar
        </CharString>
        <CharString name="W">
          549 44 callsubr
          157 145 203 143 hintmask 10111100
          446 -90 callsubr
          11 49 vvcurveto
          109 56 78 93 34 vhcurveto
          16 -683 -58 callsubr
          190 509 12 -509 -58 callsubr
          hintmask 11011100
          73 callgsubr
          -9 612 rlineto
          -127 hlineto
          -210 -612 rlineto
          endchar
        </CharString>
        <CharString name="X">
          213 44 callsubr
          hintmask 11010000
          628 hmoveto
          -96 392 173 353 rlineto
          -65 hlineto
          -128 -268 -66 271 rlineto
          hintmask 10110000
          -99 callgsubr
          11 49 vvcurveto
          109 56 78 93 34 vhcurveto
          80 -319 -192 -364 rlineto
          67 hlineto
          147 276 70 -276 rlineto
          endchar
        </CharString>
        <CharString name="Y">
          204 44 callsubr
          hintmask 11010000
          -11 callgsubr
          hintmask 10110000
          -99 callgsubr
          11 49 vvcurveto
          109 56 78 93 34 vhcurveto
          96 -375 -66 -308 rlineto
          endchar
        </CharString>
        <CharString name="Yacute">
          204 34 callsubr
          270 -20 hstemhm
          55 93 hintmask 11011000
          -11 callgsubr
          hintmask 10111000
          -99 callgsubr
          11 49 vvcurveto
          109 56 78 93 34 vhcurveto
          96 -375 -66 -308 rlineto
          175 811 -100 callsubr
          endchar
        </CharString>
        <CharString name="Ydieresis">
          204 34 callsubr
          93 122 hstemhm
          55 93 280 18 callgsubr
          hintmask 11011110
          -11 callgsubr
          hintmask 10111110
          -99 callgsubr
          11 49 vvcurveto
          109 56 78 93 34 vhcurveto
          96 -375 -66 -308 rlineto
          281 884 -75 callgsubr
        </CharString>
        <CharString name="Z">
          2 callsubr
          hstemhm
          83 110 193 111 hintmask 10101100
          404 85 -69 callgsubr
          hintmask 10011100
          -40 callsubr
          hintmask 01101100
          -3 callsubr
          endchar
        </CharString>
        <CharString name="Zacute">
          -71 callsubr
          -44 726 -100 callsubr
          endchar
        </CharString>
        <CharString name="Zcaron">
          -71 callsubr
          -103 915 rmoveto
          60 -189 rlineto
          21 hlineto
          212 189 rlineto
          -44 hlineto
          -157 -80 -60 80 rlineto
          endchar
        </CharString>
        <CharString name="Zdotaccent">
          2 callsubr
          73 122 hstemhm
          83 110 103 122 -32 111 hintmask 10101110
          418 884 rmoveto
          33 -28 28 -33 -34 -27 -28 -33 -34 27 -27 34 33 28 27 34 vhcurveto
          -14 -799 -69 callgsubr
          hintmask 10011101
          -40 callsubr
          hintmask 01101101
          -3 callsubr
          endchar
        </CharString>
        <CharString name="a">
          -25 callgsubr
          hstemhm
          4 148 hintmask 10011000
          -61 callsubr
          hintmask 10101000
          46 -7 -42 -95 callgsubr
          hintmask 01101000
          -77 callsubr
          hintmask 10011000
          -98 callgsubr
          73 340 rlineto
          hintmask 10101000
          -206 -57 -100 callgsubr
          endchar
        </CharString>
        <CharString name="a.end">
          79 -6 97 352 75 callsubr
          hintmask 10110000
          -61 callsubr
          hintmask 11010000
          46 -7 -42 -95 callgsubr
          -58 8 36 -35 54 hhcurveto
          54 19 31 70 27 hvcurveto
          -3 -7 -6 -1 -9 hhcurveto
          -104 callgsubr
          hintmask 10110000
          -80 callsubr
          hintmask 11010000
          -205 -57 -100 callgsubr
          endchar
        </CharString>
        <CharString name="a_x">
          444 -47 callgsubr
          95 22 -68 callsubr
          hintmask 10101100
          -36 callgsubr
          hintmask 11001100
          -205 -57 -100 callgsubr
          endchar
        </CharString>
        <CharString name="a_x.end">
          457 -47 callgsubr
          51 32 71 5 hvcurveto
          22 callsubr
          hintmask 10101100
          -36 callgsubr
          hintmask 11001100
          -205 -57 -100 callgsubr
          endchar
        </CharString>
        <CharString name="a_z">
          449 23 callsubr
          150 -62 75 callsubr
          398 -11 callsubr
          hintmask 1000001111000000
          -61 callsubr
          hintmask 0010100111000000
          46 -7 -42 -95 callgsubr
          -58 8 36 -35 54 hhcurveto
          54 19 31 70 27 hvcurveto
          hintmask 0100001111000000
          -3 -7 -6 -1 -9 hhcurveto
          -104 callgsubr
          -80 callsubr
          304 -409 rmoveto
          hintmask 1000001111000000
          -16 -3 -20 -4 -24 hhcurveto
          -27 -32 5 1 -17 hvcurveto
          59 callgsubr
          hintmask 0001100111000000
          -78 callgsubr
          vhcurveto
          -37 callsubr
          -103 callgsubr
          hintmask 0010100111000000
          -26 callsubr
          hintmask 0100010111000000
          -11 6 -9 13 -1 vhcurveto
          -509 352 -100 callgsubr
          endchar
        </CharString>
        <CharString name="aacute">
          -25 callgsubr
          270 -2 callsubr
          hintmask 10011100
          -61 callsubr
          hintmask 10101100
          46 -7 -42 -95 callgsubr
          hintmask 01101100
          -77 callsubr
          hintmask 10011100
          -98 callgsubr
          73 340 rlineto
          hintmask 10101100
          -206 -57 -100 callgsubr
          -30 118 -100 callsubr
          endchar
        </CharString>
        <CharString name="aacute.end">
          80 -6 97 352 62 -5 -20 270 -2 callsubr
          hintmask 10111000
          -61 callsubr
          hintmask 11011000
          46 -7 -42 -95 callgsubr
          -58 8 36 -35 54 hhcurveto
          54 19 31 70 27 hvcurveto
          -3 -7 -6 -1 -9 hhcurveto
          -104 callgsubr
          hintmask 10111000
          -80 callsubr
          hintmask 11011000
          -205 -57 -100 callgsubr
          -21 118 -100 callsubr
          endchar
        </CharString>
        <CharString name="acircumflex">
          -25 callgsubr
          25 56 189 -2 callsubr
          hintmask 10011110
          -61 callsubr
          hintmask 10100110
          46 -7 -42 -95 callgsubr
          hintmask 01100110
          -77 callsubr
          hintmask 10011110
          -98 callgsubr
          73 340 rlineto
          hintmask 10100110
          -206 -57 -100 callgsubr
          hintmask 10011110
          164 118 rmoveto
          -60 189 rlineto
          -21 hlineto
          -212 -189 rlineto
          44 hlineto
          157 80 60 -80 rlineto
          endchar
        </CharString>
        <CharString name="acute">
          -141 36 callgsubr
          120 561 -100 callsubr
          endchar
        </CharString>
        <CharString name="adieresis">
          -25 callgsubr
          93 122 -4 callgsubr
          45 18 callgsubr
          hintmask 10011111
          -61 callsubr
          hintmask 10101111
          46 -7 -42 -95 callgsubr
          hintmask 01101111
          -77 callsubr
          hintmask 10011111
          -98 callgsubr
          73 340 rlineto
          hintmask 10101111
          -206 -57 -100 callgsubr
          -95 191 rmoveto
          -104 callsubr
          21 callgsubr
        </CharString>
        <CharString name="ae">
          192 -4 82 -82 95 -76 -21 208 48 -21 61 155 64 hstemhm
          9 141 423 77 hintmask 00110111
          136 -6 rmoveto
          80 35 45 51 27 hvcurveto
          hintmask 10010111
          -67 19 55 -27 73 hhcurveto
          136 84 93 49 callgsubr
          10 1 11 1 11 hvcurveto
          120 7 110 90 111 vvcurveto
          53 -20 46 -89 -54 -45 -17 -27 -36 vhcurveto
          28 -34 -46 12 -50 hhcurveto
          -56 -52 -2 -76 -74 hvcurveto
          28 -29 rlineto
          26 29 32 21 60 hhcurveto
          42 19 -31 -40 -28 -8 -32 -13 -28 hvcurveto
          hintmask 00101111
          2 -12 -16 2 -24 hhcurveto
          -126 -96 -42 -124 -106 69 -24 58 hvcurveto
          437 418 rmoveto
          hintmask 10010111
          37 callsubr
          hintmask 01001111
          -314 -183 rmoveto
          6 5 0 -1 6 hvcurveto
          -109 -20 -27 -28 -33 hhcurveto
          -12 -34 4 46 53 44 35 65 hvcurveto
          endchar
        </CharString>
        <CharString name="agrave">
          -25 callgsubr
          81 189 -4 callgsubr
          hintmask 10011100
          -61 callsubr
          hintmask 10101100
          46 -7 -42 -95 callgsubr
          hintmask 01101100
          -77 callsubr
          hintmask 10011100
          -98 callgsubr
          73 340 rlineto
          hintmask 10101100
          -206 -57 -100 callgsubr
          118 vmoveto
          75 hlineto
          -29 -12 callsubr
          endchar
        </CharString>
        <CharString name="ampersand">
          216 -18 96 200 97 148 229 -59 59 hstemhm
          9 3 callsubr
          hintmask 11101010
          678 413 rmoveto
          -30 -17 -41 -13 -37 -25 -23 5 -28 hhcurveto
          -103 -70 -59 -82 -20 hvcurveto
          7 -1 rlineto
          30 19 32 15 43 hhcurveto
          25 26 -5 -1 27 hvcurveto
          -131 -40 -64 -63 -111 hhcurveto
          -68 -27 45 56 92 72 123 107 24 hvcurveto
          hintmask 11010110
          -74 callgsubr
          hintmask 11100110
          -85 callgsubr
          hintmask 11101010
          -115 -28 -70 -126 -105 vvcurveto
          -94 56 -82 128 169 129 129 163 38 vhcurveto
          84 12 71 71 56 vvcurveto
          endchar
        </CharString>
        <CharString name="aogonek">
          68 -193 59 128 91 358 75 callsubr
          154 83 hintmask 11011100
          353 -44 callsubr
          -11 -52 rlineto
          6 vlineto
          hintmask 11101100
          29 -24 22 -57 -79 callgsubr
          47 46 46 31 vhcurveto
          5 -55 31 -31 48 -5 rrcurveto
          -42 -37 -22 -39 -34 -51 callgsubr
          40 34 39 22 10 hvcurveto
          47 21 54 43 39 110 rrcurveto
          -42 hlineto
          -50 -15 -27 -44 -39 hhcurveto
          -28 -13 15 -99 callsubr
          hintmask 11011100
          -80 callsubr
          hintmask 11101100
          -205 -57 rmoveto
          32 9 -26 -12 hvcurveto
          -48 -226 rlineto
          -58 -12 -42 -30 -29 hhcurveto
          -18 -32 1 77 94 55 180 85 hvcurveto
          endchar
        </CharString>
        <CharString name="aring">
          -25 callgsubr
          72 35 93 33 -4 callgsubr
          99 40 80 37 hintmask 1001111110000000
          -61 callsubr
          hintmask 1010111110000000
          46 -7 -42 -95 callgsubr
          hintmask 0110111110000000
          -77 callsubr
          hintmask 1001111110000000
          -98 callgsubr
          73 340 rlineto
          hintmask 1010111110000000
          -206 -57 -100 callgsubr
          44 270 -52 callsubr
        </CharString>
        <CharString name="asciicircum">
          -36 36 callgsubr
          343 561 rmoveto
          -60 189 rlineto
          -21 hlineto
          -212 -189 rlineto
          44 hlineto
          157 80 60 -80 rlineto
          endchar
        </CharString>
        <CharString name="asciitilde">
          -16 569 78 -41 74 hstemhm
          hintmask 10000000
          481 670 -13 callsubr
          hintmask 01000000
          -79 callsubr
          hintmask 10000000
          -39 callsubr
          endchar
        </CharString>
        <CharString name="asterisk">
          -45 397 -21 376 -20 hstem
          225 64 vstem
          225 752 rmoveto
          -135 vlineto
          -107 62 -30 -52 109 -63 -109 -63 30 -52 107 62 rlineto
          -135 64 135 vlineto
          107 -62 30 52 -109 63 109 63 -30 52 -107 -62 rlineto
          135 vlineto
          endchar
        </CharString>
        <CharString name="at">
          92 -38 81 77 70 -54 54 203 39 72 53 hstemhm
          16 100 62 58 -58 246 33 58 hintmask 1101110110000000
          220 -38 rmoveto
          124 80 46 63 16 -5 19 -18 8 hvcurveto
          -42 -33 -49 -29 -70 hhcurveto
          -101 -32 61 80 138 97 182 141 79 24 -57 -56 -87 -59 -114 -28 -6 -6 5 14 7 2 8 2 8 hvcurveto
          45 192 -55 6 -4 -15 rlineto
          9 -7 -13 8 -19 hhcurveto
          -82 -49 -136 -88 -60 23 -28 36 29 18 18 24 16 hvcurveto
          hintmask 1011111010000000
          -15 7 14 -11 24 hhcurveto
          85 85 134 130 138 -97 19 -61 -186 -155 -175 -218 -154 110 -48 94 hvcurveto
          77 254 rmoveto
          -2 -6 -1 -6 -6 vvcurveto
          -11 -14 -14 -8 -9 hhcurveto
          -16 -5 26 19 51 36 118 47 9 7 -4 -6 5 hvcurveto
          endchar
        </CharString>
        <CharString name="atilde">
          -25 callgsubr
          89 78 -41 74 -4 callgsubr
          hintmask 10011010
          -61 callsubr
          hintmask 10101010
          46 -7 -42 -95 callgsubr
          hintmask 01101010
          -77 callsubr
          hintmask 10011010
          -98 callgsubr
          73 340 rlineto
          hintmask 10101010
          -206 -57 -100 callgsubr
          222 227 -13 callsubr
          hintmask 10100110
          -79 callsubr
          hintmask 10101010
          -39 callsubr
          endchar
        </CharString>
        <CharString name="b">
          -13 -6 97 341 73 195 -20 hstem
          10 143 170 101 vstem
          17 179 rmoveto
          -5 -21 -2 -19 -17 vvcurveto
          -80 48 -48 92 212 62 221 117 127 -48 46 -70 -20 -21 -5 -25 -41 vhcurveto
          48 225 -148 -20 rlineto
          199 -344 rmoveto
          -105 -52 -140 -65 -36 -17 17 29 7 1 8 2 8 vhcurveto
          55 254 rlineto
          13 11 34 5 14 hhcurveto
          36 17 -47 -49 hvcurveto
          endchar
        </CharString>
        <CharString name="b_s">
          342 6 callgsubr
          123 -123 145 hintmask 1011111100010000
          816 179 rmoveto
          -19 -15 -25 -19 -27 -15 rrcurveto
          2 11 1 13 13 vvcurveto
          hintmask 1011111101000000
          -70 callsubr
          -107 -501 rlineto
          -50 callsubr
          hintmask 1011111100100000
          -97 callgsubr
          hintmask 0111111011000000
          -91 callgsubr
          54 59 18 50 34 hvcurveto
          43 27 49 36 47 54 rrcurveto
          -553 159 -63 callsubr
        </CharString>
        <CharString name="b_s.end">
          352 6 callgsubr
          145 hintmask 1011111101000000
          17 179 rmoveto
          -50 callsubr
          hintmask 1011111100100000
          -97 callgsubr
          hintmask 0111111010100000
          -39 callgsubr
          hintmask 0111111101000000
          -70 callsubr
          rlineto
          181 -342 -63 callsubr
        </CharString>
        <CharString name="b_s_x">
          689 -6 79 -79 97 44 87 210 73 -52 103 -56 -20 220 -20 hstemhm
          10 143 152 118 10 -38 callsubr
          123 -123 145 274 124 hintmask 1010011111000110
          812 29 callsubr
          hintmask 1011001111010010
          -70 callsubr
          -107 -501 rlineto
          -50 callsubr
          hintmask 1011001111001010
          -97 callgsubr
          hintmask 1011001110110010
          -18 callgsubr
          hintmask 0110101111010010
          -13 callgsubr
          -8 50 38 -7 hvcurveto
          -9 50 rlineto
          98 104 45 69 65 vvcurveto
          -107 callgsubr
          hintmask 0110011111010010
          -39 216 rlineto
          -648 -162 rmoveto
          -20 5 -13 11 -7 vhcurveto
          -98 -10 -48 -109 -57 hhcurveto
          -36 -17 17 29 7 1 8 2 8 hvcurveto
          55 254 rlineto
          hintmask 1011001111010010
          13 11 34 5 14 hhcurveto
          25 16 -23 -30 7 hvcurveto
          -8 -10 -5 -13 -18 vvcurveto
          endchar
        </CharString>
        <CharString name="b_s_z">
          701 -6 79 -79 75 callgsubr
          135 87 133 145 -68 68 -54 54 200 -20 hstemhm
          10 143 152 118 10 -31 callsubr
          54 -11 callsubr
          hintmask 100011001111010110000000
          17 179 rmoveto
          -50 callsubr
          hintmask 100011001111001110000000
          -97 callgsubr
          hintmask 010011001110101110000000
          -39 callgsubr
          hintmask 010011001111010110000000
          -70 callsubr
          rlineto
          929 -589 rmoveto
          -107 callsubr
          hintmask 000110011111010110000000
          -103 callgsubr
          hintmask 001001001111010110000000
          -26 callsubr
          hintmask 010010101111010110000000
          -11 6 -9 13 -1 vhcurveto
          -748 247 -63 callsubr
        </CharString>
        <CharString name="backslash">
          69 51 callsubr
          318 -250 rmoveto
          72 hlineto
          -212 1000 rlineto
          -72 hlineto
          endchar
        </CharString>
        <CharString name="bar">
          -143 -229 -21 1001 -20 hstem
          95 93 vstem
          188 751 rmoveto
          -93 -1001 93 hlineto
          endchar
        </CharString>
        <CharString name="braceleft">
          -169 -249 45 432 51 471 -20 hstemhm
          -7 86 5 85 -55 83 hintmask 11110100
          337 750 rmoveto
          -43 hlineto
          -133 -47 -125 -76 hvcurveto
          -51 7 -53 -55 vvcurveto
          -47 -4 -64 -63 -9 -10 1 2 -12 vhcurveto
          -12 -57 rlineto
          2 13 10 1 9 hhcurveto
          hintmask 11111000
          32 9 -13 -18 hvcurveto
          -101 -91 -125 -111 vvcurveto
          -66 45 -43 88 vhcurveto
          29 hlineto
          9 45 rlineto
          -82 -3 30 50 hvcurveto
          100 90 153 89 vvcurveto
          16 -5 12 -7 8 vhcurveto
          hintmask 11110100
          24 20 16 33 58 57 -6 57 57 vvcurveto
          54 10 44 36 40 vhcurveto
          24 22 28 2 41 hhcurveto
          endchar
        </CharString>
        <CharString name="braceright">
          -170 -228 -21 471 51 432 45 hstemhm
          60 83 -55 85 5 86 hintmask 11110100
          -80 -249 rmoveto
          43 hlineto
          133 47 125 76 hvcurveto
          51 -7 53 55 vvcurveto
          47 4 64 63 9 10 -1 -2 12 vhcurveto
          12 57 rlineto
          -2 -13 -10 -1 -9 hhcurveto
          hintmask 11101100
          -32 -9 13 18 hvcurveto
          101 91 125 111 vvcurveto
          66 -45 43 -88 vhcurveto
          -29 hlineto
          -9 -45 rlineto
          82 3 -30 -50 hvcurveto
          -100 -90 -153 -89 vvcurveto
          -16 5 -12 7 -8 vhcurveto
          hintmask 11110100
          -24 -20 -16 -33 -58 -57 6 -57 -57 vvcurveto
          -54 -10 -44 -36 -40 vhcurveto
          -24 -22 -28 -2 -41 hhcurveto
          endchar
        </CharString>
        <CharString name="bracketleft">
          -159 -250 62 876 62 hstem
          168 -188 rmoveto
          -111 hlineto
          186 876 rlineto
          111 hlineto
          13 62 rlineto
          -203 hlineto
          -212 -1000 rlineto
          203 hlineto
          endchar
        </CharString>
        <CharString name="bracketright">
          -160 -250 62 876 62 hstem
          100 688 rmoveto
          111 hlineto
          -186 -876 rlineto
          -111 hlineto
          -13 -62 rlineto
          203 hlineto
          212 1000 rlineto
          -203 hlineto
          endchar
        </CharString>
        <CharString name="breve">
          -26 565 42 -42 138 hstemhm
          66 79 hintmask 01100000
          355 703 rmoveto
          hintmask 10100000
          33 callgsubr
          hintmask 01100000
          -23 callgsubr
          endchar
        </CharString>
        <CharString name="brokenbar">
          -139 -229 -21 1001 -20 hstem
          97 93 vstem
          190 222 rmoveto
          -93 -472 93 hlineto
          551 vmoveto
          450 -93 -450 vlineto
          endchar
        </CharString>
        <CharString name="bullet">
          -1 callsubr
        </CharString>
        <CharString name="c">
          25 callgsubr
          hstemhm
          4 144 160 76 hintmask 11011000
          -87 callsubr
          hintmask 10111000
          -33 callgsubr
          endchar
        </CharString>
        <CharString name="c.end">
          -75 -6 93 257 165 -53 53 hstemhm
          -3 148 156 76 hintmask 11011000
          289 356 11 callsubr
          -203 -66 -240 -116 -113 62 -46 93 80 72 34 114 21 hvcurveto
          79 callgsubr
          hvcurveto
          hintmask 10111000
          99 65 187 43 callsubr
          vhcurveto
          endchar
        </CharString>
        <CharString name="c_x">
          308 -6 82 -82 97 253 165 -53 53 -53 100 -56 -20 hstemhm
          5 148 156 76 256 124 hintmask 1010001110000000
          297 356 11 callsubr
          -204 -65 -243 -108 -121 81 -43 97 106 126 52 86 84 hvcurveto
          -97 22 30 -41 68 81 callsubr
          hintmask 0100101110000000
          -13 callgsubr
          -8 50 38 -7 hvcurveto
          -9 49 rlineto
          101 109 42 67 65 vvcurveto
          48 -23 39 -47 -30 -24 -16 -35 -25 12 -27 34 6 6 1 1 6 vhcurveto
          -73 callgsubr
          -36 -36 -59 -59 -64 vhcurveto
          hintmask 1000011110000000
          -39 216 rlineto
          -141 hlineto
          57 -310 rlineto
          -75 -66 -97 -39 -71 hhcurveto
          -57 -44 25 74 hvcurveto
          hintmask 1001001110000000
          91 65 190 43 callsubr
          vhcurveto
          endchar
        </CharString>
        <CharString name="c_z">
          320 0 65 -65 87 -87 -16 callsubr
          -44 44 9 -20 hstemhm
          5 148 156 76 56 100 112 100 hintmask 1000100111100000
          672 91 rmoveto
          -20 -4 -12 -6 -16 -29 -25 12 -37 hhcurveto
          245 423 rlineto
          -237 hlineto
          -71 -45 -60 -41 -78 callgsubr
          hvcurveto
          -37 callsubr
          -37 callgsubr
          36 hlineto
          -255 -446 rlineto
          265 hlineto
          77 45 61 46 hvcurveto
          hintmask 0010001111100000
          -84 callgsubr
          -375 265 11 callsubr
          -203 -66 -240 -116 hvcurveto
          hintmask 0001100111100000
          -113 62 -46 93 80 72 34 114 21 vhcurveto
          hintmask 0100010111100000
          79 callgsubr
          99 65 187 43 callsubr
          hvcurveto
          endchar
        </CharString>
        <CharString name="cacute">
          25 callgsubr
          245 -20 hstemhm
          4 144 160 76 hintmask 11011100
          -87 callsubr
          hintmask 10111100
          -33 callgsubr
          -30 216 -100 callsubr
          endchar
        </CharString>
        <CharString name="caron">
          -163 36 callgsubr
          100 750 rmoveto
          60 -189 rlineto
          21 hlineto
          212 189 rlineto
          -44 hlineto
          -157 -80 -60 80 rlineto
          endchar
        </CharString>
        <CharString name="ccaron">
          25 callgsubr
          245 -20 hstemhm
          4 144 160 76 hintmask 11011100
          -87 callsubr
          hintmask 10111100
          -33 callgsubr
          -68 405 rmoveto
          60 -189 rlineto
          21 hlineto
          212 189 rlineto
          -44 hlineto
          -157 -80 -60 80 rlineto
          endchar
        </CharString>
        <CharString name="ccedilla">
          -73 74 callsubr
          52 84 255 172 -53 53 hstemhm
          4 144 3 83 74 76 hintmask 1011101110000000
          291 345 rmoveto
          -8 12 17 -4 11 hhcurveto
          29 24 35 49 43 -22 45 -89 -203 -66 -238 -114 -88 38 -48 61 -16 hvcurveto
          10 28 35 -23 -5 -11 rlineto
          -1 6 5 0 6 hhcurveto
          133 85 93 92 57 hvcurveto
          -34 hlineto
          -57 -50 -48 -44 -79 hhcurveto
          -48 -28 17 68 hvcurveto
          hintmask 1011011110000000
          -33 callgsubr
          -57 -453 32 callsubr
          24 61 -14 1 -14 2 -12 3 rlinecurve
          -43 -120 7 callgsubr
          hintmask 0111101110000000
          -17 callgsubr
        </CharString>
        <CharString name="ccircumflex">
          25 callgsubr
          0 56 189 -20 hstemhm
          4 144 160 76 hintmask 11001110
          -87 callsubr
          hintmask 10101110
          -33 callgsubr
          hintmask 10011110
          132 216 rmoveto
          -60 189 rlineto
          -21 hlineto
          -212 -189 rlineto
          44 hlineto
          157 80 60 -80 rlineto
          endchar
        </CharString>
        <CharString name="cedilla">
          -230 74 callsubr
          87 -20 hstemhm
          144 83 hintmask 10111000
          227 -108 32 callsubr
          29 72 -35 23 -53 -148 7 callgsubr
          hintmask 01111000
          -17 callgsubr
        </CharString>
        <CharString name="cent">
          -66 -6 -21 172 68 505 -20 hstem
          34 105 189 57 vstem
          130 -27 rmoveto
          27 hlineto
          38 172 98 4 50 48 14 84 rlinecurve
          -34 -39 -39 -34 -54 hhcurveto
          -6 -4 0 1 -5 hvcurveto
          76 343 rlineto
          5 hlineto
          22 15 -10 -24 -8 -2 -9 -3 -11 hvcurveto
          57 hlineto
          4 13 1 9 11 vvcurveto
          48 -43 17 -47 3 vhcurveto
          27 122 rlineto
          -58 hlineto
          -22 -123 rlineto
          -135 -18 -73 -126 -135 vvcurveto
          -102 58 -58 69 -10 vhcurveto
          -22 173 rmoveto
          80 38 93 54 42 vhcurveto
          -55 -305 rlineto
          -26 20 -11 37 33 vvcurveto
          endchar
        </CharString>
        <CharString name="circumflex">
          -164 36 callgsubr
          293 561 rmoveto
          -60 189 rlineto
          -21 hlineto
          -212 -189 rlineto
          44 hlineto
          157 80 60 -80 rlineto
          endchar
        </CharString>
        <CharString name="circunflex">
          -164 36 callgsubr
          293 561 rmoveto
          -60 189 rlineto
          -21 hlineto
          -212 -189 rlineto
          44 hlineto
          157 80 60 -80 rlineto
          endchar
        </CharString>
        <CharString name="colon">
          -182 56 159 81 159 hstemhm
          20 159 -109 159 hintmask 11100000
          20 135 -101 callgsubr
          hintmask 11010000
          50 240 -101 callgsubr
          endchar
        </CharString>
        <CharString name="comma">
          -225 -105 -21 281 -20 hstemhm
          -1 139 -93 93 hintmask 11010000
          -9 75 rmoveto
          -52 54 -10 -25 vvcurveto
          hintmask 11100000
          11 callgsubr
        </CharString>
        <CharString name="copyright">
          107 76 42 64 52 197 53 60 43 hstem
          42 46 55 55 285 43 vstem
          143 336 rmoveto
          -83 65 -71 81 49 46 26 42 28 vhcurveto
          -44 29 rlineto
          -28 -15 -29 -17 -31 hhcurveto
          -53 -42 47 60 60 46 30 45 36 36 -20 -40 7 hvcurveto
          47 18 rlineto
          65 -20 -51 30 -52 hhcurveto
          -73 -76 -58 -90 hvcurveto
          141 -260 -36 callsubr
          endchar
        </CharString>
        <CharString name="currency">
          22 185 -21 26 56 200 56 27 -20 hstem
          87 57 200 56 vstem
          59 492 rmoveto
          57 -57 rlineto
          -18 -25 -11 -31 -34 vvcurveto
          -33 11 -31 18 -25 vhcurveto
          -56 -56 36 -36 56 56 rlineto
          -19 26 32 -11 34 hhcurveto
          34 31 11 18 25 hvcurveto
          55 -55 36 36 -55 55 rlineto
          19 26 11 31 34 vvcurveto
          34 -11 32 -19 26 vhcurveto
          55 55 -36 36 -56 -56 rlineto
          18 -25 -31 11 -33 hhcurveto
          -34 -31 -11 -19 -26 hvcurveto
          -56 56 rlineto
          147 -82 rmoveto
          55 45 -45 -55 -55 -45 -45 -55 -55 -45 45 55 55 45 45 55 hvcurveto
          endchar
        </CharString>
        <CharString name="d">
          -5 callsubr
          195 -2 callsubr
          hintmask 10111000
          392 680 rmoveto
          -49 -228 rlineto
          47 -6 -43 -95 callgsubr
          hintmask 01111000
          -77 callsubr
          hintmask 10111000
          -98 callgsubr
          53 callgsubr
          -248 -257 rmoveto
          32 9 -27 -12 hvcurveto
          -48 -225 rlineto
          -58 -12 -42 -30 -29 hhcurveto
          -18 -32 1 77 94 55 180 85 hvcurveto
          endchar
        </CharString>
        <CharString name="d.end">
          85 -6 97 352 62 195 -20 hstem
          4 148 vstem
          539 700 rmoveto
          -148 -20 -48 -226 rlineto
          46 -7 -42 5 -33 hhcurveto
          -89 callgsubr
          66 46 40 43 30 hvcurveto
          -58 12 41 -25 51 hhcurveto
          63 callsubr
          44 callgsubr
          -222 -69 rmoveto
          -18 -32 1 77 94 55 180 85 30 9 -23 -13 2 hvcurveto
          -49 -228 rlineto
          -66 -14 -42 -22 -26 hhcurveto
          endchar
        </CharString>
        <CharString name="dagger">
          -46 -229 -21 566 112 322 -20 hstem
          330 30 callsubr
          -120 -566 rlineto
          72 hlineto
          120 566 61 callgsubr
        </CharString>
        <CharString name="daggerdbl">
          -27 -229 -21 351 112 103 112 322 -20 hstem
          339 30 callsubr
          -22 -103 rlineto
          -144 hlineto
          -24 -112 -58 callsubr
          -74 -351 rlineto
          72 hlineto
          74 351 rlineto
          153 hlineto
          23 112 rlineto
          -152 hlineto
          22 103 61 callgsubr
        </CharString>
        <CharString name="dcroat">
          68 -27 callsubr
          443 62 76 40 79 -2 callsubr
          hintmask 10111100
          392 680 rmoveto
          -13 -59 rlineto
          -33 hlineto
          -8 -40 rlineto
          33 hlineto
          -28 -129 rlineto
          47 -6 -43 -95 callgsubr
          hintmask 01111100
          -77 callsubr
          hintmask 10111100
          -98 callgsubr
          89 421 rlineto
          64 1 callgsubr
          -63 hlineto
          17 79 rlineto
          -248 -257 rmoveto
          32 9 -27 -12 hvcurveto
          -48 -225 rlineto
          -58 -12 -42 -30 -29 hhcurveto
          -18 -32 1 77 94 55 180 85 hvcurveto
          endchar
        </CharString>
        <CharString name="degree">
          -137 374 37 256 35 hstem
          84 72 112 60 vstem
          246 702 rmoveto
          -100 -62 -96 -118 -72 18 -42 78 96 52 130 85 73 -24 40 -58 hvcurveto
          -88 -183 rmoveto
          97 8 49 51 28 hhcurveto
          21 4 -28 -35 -101 -32 -92 -53 -22 -5 33 32 16 1 15 1 12 hvcurveto
          endchar
        </CharString>
        <CharString name="dieresis">
          -65 573 122 hstem
          56 18 callgsubr
          vstem
          56 634 rmoveto
          -104 callsubr
          21 callgsubr
        </CharString>
        <CharString name="divide">
          -42 1 159 46 79 51 159 hstemhm
          102 159 -99 159 hintmask 11110000
          102 80 -101 callgsubr
          hintmask 11101000
          60 335 -101 callgsubr
          212 -130 7 callsubr
        </CharString>
        <CharString name="dollar">
          -69 -6 -21 135 200 410 -20 hstemhm
          23 75 -28 95 75 105 -45 63 hintmask 11101100
          109 -27 rmoveto
          27 hlineto
          29 134 rlineto
          99 1 81 51 93 vvcurveto
          69 -44 39 -69 48 vhcurveto
          36 161 rlineto
          hintmask 11101010
          21 -9 11 -17 -21 vvcurveto
          -17 -7 -22 -17 -10 vhcurveto
          -16 13 10 -7 15 hhcurveto
          33 16 35 38 60 -41 18 -46 8 hvcurveto
          25 109 rlineto
          -58 hlineto
          -19 -106 rlineto
          -74 -3 -80 -54 -74 vvcurveto
          -64 58 -33 48 -40 vhcurveto
          -36 -196 rlineto
          hintmask 11110100
          -28 14 -14 19 33 vvcurveto
          26 9 38 31 5 vhcurveto
          13 -16 12 -25 -41 -33 -31 -59 -75 53 -31 57 -4 vhcurveto
          107 124 rmoveto
          -41 -18 -41 -48 -6 vhcurveto
          37 166 rlineto
          17 -21 12 -23 -34 vvcurveto
          hintmask 11101100
          -75 269 rmoveto
          29 13 36 39 8 vhcurveto
          -24 -135 rlineto
          -20 20 -8 19 23 vvcurveto
          endchar
        </CharString>
        <CharString name="dotlessi">
          -2 callgsubr
          hstem
          9 144 vstem
          85 500 rmoveto
          -68 -321 rlineto
          -50 callgsubr
          endchar
        </CharString>
        <CharString name="dotlessi.end">
          -180 -2 callgsubr
          hstemhm
          9 -7 callgsubr
          hintmask 11010000
          85 500 rmoveto
          -68 -321 rlineto
          19 callsubr
          hintmask 11100000
          -104 callgsubr
          -80 callsubr
          endchar
        </CharString>
        <CharString name="e">
          25 callsubr
          hstem
          4 148 155 77 vstem
          -90 callgsubr
          155 249 -41 callgsubr
          endchar
        </CharString>
        <CharString name="e.end">
          -60 -6 95 113 48 202 53 hstem
          3 148 155 77 vstem
          153 -54 callgsubr
          -50 -12 42 40 11 1 10 1 10 hvcurveto
          153 209 -10 callsubr
        </CharString>
        <CharString name="e_x">
          306 -6 82 -82 97 111 48 202 53 -53 104 -56 -20 hstemhm
          5 148 155 77 256 124 hintmask 1010011110000000
          431 -44 callsubr
          57 -310 rlineto
          -75 -66 -98 -39 -71 hhcurveto
          -56 -44 24 75 8 0 9 1 10 hvcurveto
          121 7 110 86 114 vvcurveto
          hintmask 1011001110000000
          50 -21 46 -89 -205 -65 -240 -108 -121 81 -42 97 112 124 56 83 80 vhcurveto
          -101 24 30 -38 66 81 callsubr
          hintmask 0110101110000000
          -13 callgsubr
          -8 50 38 -7 -53 callsubr
        </CharString>
        <CharString name="e_x.end">
          320 -6 82 -82 97 111 48 202 53 -53 104 -56 -20 hstemhm
          5 148 155 77 256 124 hintmask 1010011110000000
          431 -44 callsubr
          57 -310 rlineto
          -75 -66 -98 -39 -71 hhcurveto
          -56 -44 24 75 8 0 9 1 10 hvcurveto
          121 7 110 86 114 vvcurveto
          hintmask 1011001110000000
          50 -21 46 -89 -205 -65 -240 -108 -121 81 -42 97 112 124 56 83 80 vhcurveto
          -99 23 78 callsubr
          hintmask 0110101110000000
          -3 -6 -8 -3 -18 hhcurveto
          -44 -8 29 59 -11 -53 callsubr
        </CharString>
        <CharString name="e_z">
          339 -6 77 -77 95 -95 45 callgsubr
          202 48 105 150 -59 59 -5 -20 hstemhm
          5 149 154 77 55 -11 callsubr
          hintmask 0100110011110000
          155 -54 callgsubr
          -52 -9 46 41 9 0 9 1 8 hvcurveto
          536 -111 rmoveto
          hintmask 1000100111110000
          -16 -3 -20 -4 -24 hhcurveto
          -27 -32 5 1 -17 hvcurveto
          59 callgsubr
          hintmask 1000110011110000
          -78 callgsubr
          vhcurveto
          -37 callsubr
          hintmask 0001101011110000
          -103 callgsubr
          hintmask 0010110011110000
          -84 callgsubr
          -383 320 -10 callsubr
        </CharString>
        <CharString name="eacute">
          25 callsubr
          245 -20 hstem
          4 148 155 77 vstem
          -90 callgsubr
          59 399 -100 callsubr
          5 -339 -41 callgsubr
          endchar
        </CharString>
        <CharString name="eacute.end">
          -60 -6 95 113 48 202 53 245 -20 hstem
          3 149 154 77 vstem
          153 -54 callgsubr
          -52 -9 46 41 9 0 9 1 8 hvcurveto
          71 359 -100 callsubr
          -9 -339 -10 callsubr
        </CharString>
        <CharString name="eacute_x">
          308 -6 82 -82 97 111 48 202 53 -53 104 -56 -20 270 -20 hstemhm
          5 148 155 77 256 124 hintmask 1010011111000000
          431 -44 callsubr
          57 -310 rlineto
          -75 -66 -98 -39 -68 hhcurveto
          -59 -44 26 68 10 1 11 1 11 hvcurveto
          120 7 110 88 109 vvcurveto
          hintmask 1011001111000000
          53 -20 46 -89 -206 -65 -237 -114 -117 81 -43 100 105 127 55 84 81 vhcurveto
          -98 56 callgsubr
          hintmask 0110101111000000
          -13 callgsubr
          -8 50 38 -7 hvcurveto
          -9 50 rlineto
          98 104 45 69 65 vvcurveto
          -107 callgsubr
          hintmask 1010011111000000
          -39 216 rlineto
          -328 71 callsubr
          -27 -342 rmoveto
          -77 -68 -77 -78 -4 vhcurveto
          hintmask 1011001111000000
          95 21 49 107 52 hhcurveto
          18 6 -16 -28 hvcurveto
          endchar
        </CharString>
        <CharString name="ecircumflex">
          -73 -6 84 0 124 48 202 53 56 189 -2 callsubr
          155 77 hintmask 01111110
          152 162 rmoveto
          12 1 14 1 14 vhcurveto
          120 7 110 87 113 vvcurveto
          50 -21 46 -89 -205 -65 -238 -114 vhcurveto
          hintmask 10111110
          -49 callsubr
          vhcurveto
          -34 hlineto
          -57 -50 -48 -44 -79 hhcurveto
          -48 -24 16 68 hvcurveto
          263 399 rmoveto
          -60 189 rlineto
          -21 hlineto
          -212 -189 rlineto
          44 hlineto
          157 80 60 -80 rlineto
          -76 -150 -41 callgsubr
          endchar
        </CharString>
        <CharString name="edieresis">
          25 callsubr
          68 122 -4 callgsubr
          -16 122 49 77 -77 131 hintmask 11111010
          -90 callgsubr
          155 249 -41 callgsubr
          hintmask 11110101
          -171 223 rmoveto
          -104 callsubr
          21 callgsubr
        </CharString>
        <CharString name="egrave">
          25 callsubr
          56 189 hstem
          4 148 155 77 vstem
          -90 callgsubr
          97 399 rmoveto
          75 hlineto
          -29 -12 callsubr
          117 -339 -41 callgsubr
          endchar
        </CharString>
        <CharString name="eight">
          98 -6 84 621 51 hstemhm
          20 137 -42 131 120 142 -103 122 hintmask 11101000
          238 78 rmoveto
          -49 -32 52 58 67 42 90 79 33 hvcurveto
          41 -20 47 -49 -66 vvcurveto
          -76 -63 -89 -65 vhcurveto
          -9 -84 rmoveto
          164 115 141 120 70 -40 66 -81 26 hvcurveto
          hintmask 11010100
          93 45 47 75 67 vvcurveto
          78 -66 68 -117 -142 -87 -101 -96 -52 26 -50 59 -34 vhcurveto
          hintmask 11101000
          -123 -36 -57 -103 -89 vvcurveto
          -102 75 -93 134 vhcurveto
          70 457 rmoveto
          hintmask 11010100
          -36 30 -17 45 44 vvcurveto
          69 44 60 54 42 19 -36 -40 -58 -40 -71 -66 -43 vhcurveto
          endchar
        </CharString>
        <CharString name="ellipsis">
          263 -4 159 hstem
          -9 159 76 159 86 159 vstem
          -9 75 -101 callgsubr
          235 hmoveto
          -102 callsubr
          245 hmoveto
          -102 callsubr
          endchar
        </CharString>
        <CharString name="emdash">
          14 222 79 hstem
          407 301 7 callsubr
        </CharString>
        <CharString name="endash">
          -76 222 79 hstem
          317 301 rmoveto
          -260 hlineto
          -18 -79 rlineto
          261 hlineto
          endchar
        </CharString>
        <CharString name="eogonek">
          -72 -193 59 128 84 124 48 206 53 hstemhm
          5 148 -17 83 89 77 hintmask 11110110
          219 -84 rmoveto
          115 112 -30 105 178 vhcurveto
          -34 hlineto
          -57 -50 -48 -44 -79 hhcurveto
          hintmask 11111010
          -48 -24 16 68 12 1 14 1 14 hvcurveto
          120 7 110 89 115 vvcurveto
          50 -21 46 -89 -205 -65 -241 -115 -113 62 -46 94 15 14 1 2 13 vhcurveto
          hintmask 11110110
          -44 -37 -23 -40 -35 -51 callgsubr
          hvcurveto
          89 499 rmoveto
          -83 -68 -77 -77 -5 vhcurveto
          99 20 49 107 51 67 callsubr
        </CharString>
        <CharString name="equal">
          43 101 112 103 112 hstem
          456 428 rmoveto
          -368 hlineto
          -24 -112 rlineto
          369 hlineto
          -21 -103 rmoveto
          -368 hlineto
          -24 -112 rlineto
          369 hlineto
          endchar
        </CharString>
        <CharString name="eth">
          81 -27 callsubr
          443 62 195 -20 hstemhm
          16 148 hintmask 10111000
          491 415 rmoveto
          7 35 4 31 27 vvcurveto
          34 -6 27 -9 23 vhcurveto
          53 9 rlineto
          41 vlineto
          -74 -13 -24 31 -33 21 -33 19 rlinecurve
          -45 hlineto
          22 -29 12 -27 6 -31 -70 -11 rcurveline
          -2 -39 75 12 -1 -26 -4 -30 -7 -34 rlinecurve
          -8 -37 rlineto
          6 vlineto
          29 -24 22 -57 -79 callgsubr
          48 47 46 30 vhcurveto
          hintmask 01111000
          -77 callsubr
          hintmask 10111000
          -98 callgsubr
          -140 19 rmoveto
          -58 -12 -42 -30 -29 hhcurveto
          -18 -32 1 77 94 55 180 85 33 8 -27 -11 hvcurveto
          endchar
        </CharString>
        <CharString name="exclam">
          -187 0 159 541 -20 hstem
          7 159 vstem
          156 231 rmoveto
          130 469 rlineto
          -144 hlineto
          -71 -469 rlineto
          95 -151 28 callgsubr
        </CharString>
        <CharString name="exclamdown">
          -198 -227 -21 541 159 hstem
          59 159 vstem
          69 221 rmoveto
          -130 -469 -58 callsubr
          71 469 rlineto
          -95 151 -101 callgsubr
          endchar
        </CharString>
        <CharString name="f">
          43 callgsubr
          -191 55 490 48 vstem
          399 600 rmoveto
          -14 callsubr
          12 callgsubr
          -121 17 callgsubr
          -77 16 callgsubr
          83 -58 callgsubr
          53 callgsubr
          74 hlineto
          7 40 rlineto
          -73 27 callsubr
          -488 -728 -57 callgsubr
        </CharString>
        <CharString name="f_f_t">
          323 -250 75 -75 57 callsubr
          369 40 176 73 hstemhm
          -191 61 653 144 hintmask 10111110
          -73 -250 rmoveto
          41 48 11 43 39 hvcurveto
          -34 20 39 -20 50 hhcurveto
          63 84 32 138 29 hvcurveto
          53 callgsubr
          135 hlineto
          -59 -281 rlineto
          -106 callsubr
          63 300 rlineto
          61 1 callgsubr
          -60 hlineto
          38 180 -30 callsubr
          465 464 rmoveto
          -136 -59 callsubr
          -546 -812 -60 callsubr
        </CharString>
        <CharString name="f_i_x">
          442 -33 callsubr
          -40 96 -3 42 callgsubr
          269 124 hintmask 1110011001100000
          427 553 -89 callsubr
          -41 callsubr
          hintmask 1110101010100000
          6 callsubr
          hintmask 1101011100100000
          -5 -25 4 callsubr
          -82 45 -37 61 93 95 65 73 65 vhcurveto
          -97 22 30 -41 -35 callgsubr
          -107 callgsubr
          hintmask 1110101100100000
          -68 callgsubr
          -80 callsubr
          -631 -621 -34 callsubr
          endchar
        </CharString>
        <CharString name="f_i_z">
          446 -250 89 161 -29 callgsubr
          -40 40 53 64 callgsubr
          -144 217 -125 139 -97 97 41 -11 callsubr
          hintmask 110000011010001110000000
          -136 -121 -34 callsubr
          563 674 -89 callsubr
          hintmask 110001000110001110000000
          -41 callsubr
          hintmask 110001001010010110000000
          6 callsubr
          hintmask 100011001010100110000000
          -5 -24 4 callsubr
          -84 -20 callgsubr
          54 51 68 callsubr
          hintmask 101001001011000110000000
          18 callsubr
          hintmask 110001001011000110000000
          -107 callsubr
          hintmask 110000101010100110000000
          -103 callgsubr
          hintmask 100101001011000110000000
          -26 callsubr
          hintmask 101001001011000110000000
          28 callsubr
        </CharString>
        <CharString name="f_l_x">
          458 -33 callsubr
          -40 96 130 63 hstemhm
          50 callsubr
          356 124 hintmask 11101111
          549 680 -82 callsubr
          -25 4 callsubr
          -82 45 -37 61 93 95 65 73 65 vhcurveto
          -97 22 30 -41 -35 callgsubr
          hintmask 11011111
          -107 callgsubr
          hintmask 11101111
          -68 callgsubr
          -575 -288 -14 callgsubr
          -59 -13 -25 -47 callsubr
        </CharString>
        <CharString name="f_l_z">
          482 -250 89 161 -29 callgsubr
          -40 40 186 63 hstemhm
          50 callsubr
          -144 217 75 -11 callsubr
          hintmask 1000100111011100
          -136 -75 callsubr
          hintmask 1010010011101100
          -28 callgsubr
          -104 callgsubr
          395 -69 rmoveto
          hintmask 1100010011101100
          -107 callsubr
          hintmask 1100001011101100
          -103 callgsubr
          hintmask 1001010011101100
          -26 callsubr
          hintmask 1010010011101100
          28 callsubr
        </CharString>
        <CharString name="f_t">
          91 -33 callsubr
          186 63 hstem
          50 callsubr
          vstem
          502 460 rmoveto
          61 1 callgsubr
          -60 hlineto
          38 180 rlineto
          -76 callsubr
          135 hlineto
          -59 -281 rlineto
          -106 callsubr
          -72 340 rmoveto
          -136 -59 callsubr
          -539 -798 -14 callgsubr
          -59 -13 -25 -47 callsubr
        </CharString>
        <CharString name="f_u">
          314 -33 callsubr
          161 88 hstemhm
          -191 55 412 145 -67 48 hintmask 11111010
          229 -44 callsubr
          17 79 rlineto
          67 14 34 15 -27 callgsubr
          47 hlineto
          -14 callsubr
          12 callgsubr
          -121 17 callgsubr
          -77 16 callgsubr
          83 -58 callgsubr
          53 callgsubr
          122 hlineto
          -59 -281 rlineto
          hintmask 11111100
          -5 -24 4 callsubr
          -84 -20 callgsubr
          42 56 13 82 50 vhcurveto
          -62 6 36 -33 57 hhcurveto
          54 90 22 -86 callsubr
          -144 -38 callgsubr
          -22 -8 18 23 9 1 9 2 10 hvcurveto
          -80 callsubr
          -632 -628 -57 callgsubr
        </CharString>
        <CharString name="f_u.end">
          335 -33 callsubr
          161 88 hstemhm
          -191 55 412 145 -67 48 hintmask 11111010
          229 -44 callsubr
          17 79 rlineto
          67 14 34 15 -27 callgsubr
          47 hlineto
          -14 callsubr
          12 callgsubr
          -121 17 callgsubr
          -77 16 callgsubr
          83 -58 callgsubr
          53 callgsubr
          122 hlineto
          -59 -281 rlineto
          hintmask 11111100
          -86 callgsubr
          -632 -628 -57 callgsubr
        </CharString>
        <CharString name="f_x">
          207 -250 89 132 104 -81 97 369 40 -40 96 105 88 hstemhm
          -191 52 369 122 2 48 139 124 hintmask 1101011111000000
          229 -44 callsubr
          17 79 rlineto
          67 14 34 15 -27 callgsubr
          47 hlineto
          -14 callsubr
          12 callgsubr
          -121 17 callgsubr
          -77 16 callgsubr
          83 -58 callgsubr
          53 callgsubr
          117 hlineto
          40 -218 rlineto
          -73 -47 -75 -87 -66 vvcurveto
          -51 callsubr
          hintmask 1010111111000000
          -81 callsubr
          hintmask 1101011111000000
          -36 198 rlineto
          -611 -628 -57 callgsubr
        </CharString>
        <CharString name="ff">
          55 43 callgsubr
          -191 61 728 48 vstem
          -73 -250 rmoveto
          44 53 12 51 39 hvcurveto
          -38 16 35 -25 57 hhcurveto
          66 86 27 143 30 hvcurveto
          113 540 rlineto
          99 hlineto
          9 40 rlineto
          -100 hlineto
          18 82 rlineto
          67 15 31 12 -27 callgsubr
          47 hlineto
          -14 callsubr
          -44 -53 -12 -51 -40 vhcurveto
          39 -19 -43 24 -45 hhcurveto
          -66 -86 -85 callsubr
          vhcurveto
          295 710 rmoveto
          99 hlineto
          -85 -405 -103 -18 rlineto
          -43 -178 rmoveto
          7 17 7 21 5 23 19 92 rcurveline
          103 19 -24 -114 12 callsubr
          -25 -19 -21 hhcurveto
          -26 -23 4 16 -9 hvcurveto
          264 768 rmoveto
          -8 0 -6 -2 -8 vhcurveto
          -23 -105 rlineto
          -99 hlineto
          18 82 rlineto
          67 15 31 12 22 hhcurveto
          20 18 -11 -23 hvcurveto
          -484 -755 -14 callgsubr
          -59 -13 -25 -47 callsubr
        </CharString>
        <CharString name="ffi">
          308 -250 75 -75 57 callsubr
          369 40 53 196 -73 73 -54 54 hstemhm
          -191 61 637 144 -53 139 -97 97 hintmask 1011001100100000
          462 -44 callsubr
          17 82 rlineto
          -41 callsubr
          hintmask 1011100101000000
          -21 -13 -27 -22 -43 31 -11 29 41 38 21 60 97 -99 18 -80 -49 -55 -10 -42 -47 hvcurveto
          35 -27 -41 17 -55 hhcurveto
          -66 -86 -85 callsubr
          41 49 11 42 38 vhcurveto
          -33 20 40 -20 49 hhcurveto
          63 84 32 138 29 hvcurveto
          36 callsubr
          120 hlineto
          -59 -281 rlineto
          hintmask 1011010110000000
          -50 callgsubr
          -503 -40 rmoveto
          84 hlineto
          -86 -409 -88 -15 rlineto
          -8 -211 rmoveto
          -10 -23 5 27 -4 hvcurveto
          8 18 7 21 5 24 19 88 rcurveline
          89 18 -23 -109 rlineto
          -67 -14 -27 -25 -27 hhcurveto
          191 675 rmoveto
          -85 hlineto
          16 82 rlineto
          43 8 22 51 56 hhcurveto
          19 12 -7 -10 9 hvcurveto
          -21 -31 -18 -40 -11 -54 rrcurveto
          -454 -662 -14 callgsubr
          hintmask 0111100110000000
          -59 -12 -27 82 callsubr
        </CharString>
        <CharString name="ffl">
          323 -250 75 -75 57 callsubr
          369 40 176 73 hstemhm
          -191 61 653 144 hintmask 10111110
          -73 -250 rmoveto
          41 48 11 43 39 hvcurveto
          -34 20 39 -20 50 hhcurveto
          63 84 32 138 29 hvcurveto
          53 callgsubr
          93 1 callgsubr
          -93 -59 callsubr
          -104 -491 rlineto
          -106 callsubr
          110 520 -30 callsubr
          -45 -178 -60 callsubr
        </CharString>
        <CharString name="fi">
          76 -33 callsubr
          53 42 callgsubr
          hintmask 1110110010000000
          427 553 -89 callsubr
          -41 callsubr
          hintmask 1111010100000000
          -21 -13 -27 -22 -43 31 -11 29 hvcurveto
          -563 -674 -34 callsubr
          487 621 rmoveto
          -68 -321 rlineto
          hintmask 1111011000000000
          -50 callgsubr
          endchar
        </CharString>
        <CharString name="fi.end">
          87 -33 callsubr
          53 196 -54 54 hstemhm
          -190 55 411 -7 callgsubr
          -125 139 -97 97 hintmask 1111010001000000
          -135 -121 -34 callsubr
          563 674 -89 callsubr
          hintmask 1110110001000000
          -41 callsubr
          hintmask 1111010010000000
          6 callsubr
          hintmask 1111010100000000
          19 callsubr
          hintmask 1111011000000000
          -104 callgsubr
          -80 callsubr
          endchar
        </CharString>
        <CharString name="five">
          70 -6 74 323 84 125 117 32 -20 hstem
          14 110 212 144 vstem
          499 749 rmoveto
          -24 -61 -50 -8 -51 hhcurveto
          -55 -55 9 8 -70 hvcurveto
          -82 -399 rlineto
          24 38 57 32 54 hhcurveto
          67 45 -51 -88 -86 -43 -98 -88 -46 -35 26 54 56 39 20 52 6 hvcurveto
          35 -7 -25 16 -39 hhcurveto
          -60 -70 -37 -105 -124 98 -21 80 202 86 136 138 111 -55 96 -121 -37 -42 -9 -22 -46 hvcurveto
          40 181 rlineto
          -5 41 73 -20 53 hhcurveto
          85 30 52 64 11 -1 11 -1 11 hvcurveto
          endchar
        </CharString>
        <CharString name="fl">
          91 -33 callsubr
          186 63 hstem
          50 callsubr
          vstem
          -136 -71 callgsubr
          99 22 -15 callgsubr
          vhcurveto
          -34 callgsubr
          -28 -13 9 28 9 1 10 3 13 hvcurveto
          endchar
        </CharString>
        <CharString name="fl.end">
          99 -33 callsubr
          186 63 hstemhm
          -192 55 427 -7 callgsubr
          hintmask 11111010
          -137 -75 callsubr
          -3 -6 -8 -3 -18 hhcurveto
          hintmask 11111100
          -104 callgsubr
          endchar
        </CharString>
        <CharString name="florin">
          -186 43 callgsubr
          -185 55 490 48 vstem
          226 460 rmoveto
          75 1 callgsubr
          -74 27 callsubr
          47 hlineto
          -14 callsubr
          12 callgsubr
          -17 -79 rlineto
          -60 hlineto
          -8 -40 rlineto
          60 hlineto
          -96 -452 rlineto
          -95 -29 -77 16 callgsubr
          83 -58 callgsubr
          -242 -48 -57 callgsubr
        </CharString>
        <CharString name="four">
          50 21 -21 270 79 401 -20 hstem
          161 99 vstem
          252 270 rmoveto
          -57 -270 -58 callsubr
          57 270 rlineto
          61 hlineto
          20 79 rlineto
          -64 hlineto
          86 401 -148 -20 -82 -381 rlineto
          -146 hlineto
          50 95 87 95 105 vvcurveto
          80 -53 26 -58 vhcurveto
          5 -23 7 -41 -20 vvcurveto
          -146 -115 -140 -36 -110 vhcurveto
          endchar
        </CharString>
        <CharString name="g">
          50 32 callgsubr
          hstemhm
          4 133 -55 70 hintmask 11011000
          -61 callsubr
          hintmask 11101000
          -55 callsubr
          58 40 31 36 29 hvcurveto
          -19 -85 rlineto
          hintmask 11010100
          -75 -97 callsubr
          hintmask 11100100
          -205 63 callgsubr
          -59 -13 -45 -29 62 callsubr
          hintmask 11101000
          -155 -582 -93 callsubr
        </CharString>
        <CharString name="g.end">
          47 32 callgsubr
          hstemhm
          4 133 -55 70 hintmask 11011000
          -61 callsubr
          hintmask 11101000
          -55 callsubr
          58 40 31 36 29 hvcurveto
          -19 -85 rlineto
          hintmask 11010100
          20 callsubr
          hintmask 11100100
          -205 63 callgsubr
          -63 -13 -47 -25 -27 -21 callgsubr
          hintmask 11101000
          -155 -582 -93 callsubr
        </CharString>
        <CharString name="g_p">
          518 45 callsubr
          82 -62 97 332 62 -62 94 -37 -20 hstemhm
          4 133 -55 70 678 137 hintmask 1100101010000000
          600 60 callgsubr
          hintmask 1100011010000000
          98 459 rlineto
          -144 hlineto
          -10 -47 rlineto
          hintmask 1011001010000000
          -55 callsubr
          58 40 31 36 28 hvcurveto
          -17 -80 rlineto
          hintmask 1101000110000000
          -76 -25 -88 -45 -77 callgsubr
          71 34 7 32 3 31 1 rlinecurve
          -53 -252 151 36 45 211 rlineto
          -2 28 30 -1 34 hhcurveto
          194 52 218 135 119 -54 39 -68 -50 -38 -18 -25 -29 hvcurveto
          hintmask 1100101010000000
          2 callgsubr
          -398 367 rmoveto
          30 10 -24 -13 1 hvcurveto
          -47 -218 rlineto
          hintmask 1011000110000000
          -51 -15 -42 -26 -27 -21 callgsubr
          hintmask 1101001010000000
          -155 -582 -93 callsubr
        </CharString>
        <CharString name="g_x">
          437 45 callsubr
          97 -77 97 332 62 -62 113 -56 -20 hstemhm
          4 133 -55 70 618 124 hintmask 1100011010000000
          560 -44 callsubr
          13 callsubr
          -144 hlineto
          -10 -47 rlineto
          hintmask 1011001010000000
          -55 callsubr
          59 40 32 36 28 hvcurveto
          -19 -89 rlineto
          hintmask 1100100110000000
          -75 -24 callsubr
          -97 22 30 -40 -35 callgsubr
          -107 callgsubr
          hintmask 1100011010000000
          -39 216 rlineto
          hintmask 1011000110000000
          -409 63 callgsubr
          -58 -12 -46 -30 62 callsubr
          hintmask 1101001010000000
          -155 -582 rmoveto
          41 -25 callsubr
          -30 12 callsubr
          -24 -30 -21 hhcurveto
          -22 -12 58 callgsubr
        </CharString>
        <CharString name="g_z">
          451 -250 78 172 71 -71 155 -141 97 244 150 -62 62 -5 -20 hstemhm
          4 133 -55 70 400 -11 callsubr
          hintmask 1100001101100000
          -61 callsubr
          hintmask 1001100101100000
          -55 callsubr
          58 40 31 36 29 hvcurveto
          -19 -85 rlineto
          hintmask 1100001011100000
          20 callsubr
          306 -409 rmoveto
          -16 -3 -20 -4 -24 hhcurveto
          -27 -32 5 1 -17 hvcurveto
          59 callgsubr
          hintmask 1100100101100000
          -78 callgsubr
          vhcurveto
          -37 callsubr
          -103 callgsubr
          hintmask 1010010101100000
          -84 callgsubr
          -511 352 33 callsubr
          hintmask 1001010011100000
          -63 -13 -47 -25 -27 -21 callgsubr
          hintmask 1100100101100000
          -155 -582 -93 callsubr
        </CharString>
        <CharString name="gbreve">
          50 32 callgsubr
          85 42 -42 138 hstemhm
          4 133 -55 70 6 79 hintmask 1101101010000000
          -61 callsubr
          hintmask 1110101010000000
          -55 callsubr
          58 40 31 36 29 hvcurveto
          -19 -85 rlineto
          hintmask 1101100110000000
          -75 -97 callsubr
          hintmask 1110010110000000
          -205 63 callgsubr
          -59 -13 -45 -29 62 callsubr
          155 260 rmoveto
          hintmask 1110101010000000
          33 callgsubr
          hintmask 1110011010000000
          -23 callgsubr
          -386 -842 rmoveto
          40 -25 callsubr
          -29 rlineto
          -59 -12 -26 -30 -20 hhcurveto
          -22 -12 58 callgsubr
        </CharString>
        <CharString name="germandbls">
          -7 -229 -21 250 61 551 88 hstemhm
          321 101 -72 72 hintmask 11101000
          242 530 rmoveto
          67 14 34 15 22 hhcurveto
          26 12 -11 -39 -59 -42 -35 -41 -17 hvcurveto
          -18 -58 rlineto
          hintmask 11110000
          54 -14 18 -29 -44 vvcurveto
          -91 -26 -154 -83 vhcurveto
          -13 -59 rlineto
          -1 11 11 -1 11 hhcurveto
          72 118 81 204 60 -26 58 -71 24 hvcurveto
          60 28 32 61 57 vvcurveto
          66 -44 61 -93 12 callgsubr
          -166 -780 151 36 rlineto
          endchar
        </CharString>
        <CharString name="grave">
          -256 561 189 hstem
          83 561 -42 callgsubr
        </CharString>
        <CharString name="greater">
          -95 122 -21 328 -20 hstem
          71 374 rmoveto
          194 -120 -240 -96 -14 -57 304 124 11 54 -246 150 rlineto
          endchar
        </CharString>
        <CharString name="guillemotleft">
          59 90 -21 380 -20 hstem
          224 449 -9 callsubr
          166 45 -9 callsubr
          endchar
        </CharString>
        <CharString name="guillemotright">
          62 90 -21 380 -20 hstem
          267 69 -9 callgsubr
          -166 -45 -9 callgsubr
          endchar
        </CharString>
        <CharString name="guilsinglleft">
          -149 90 -21 380 -20 hstem
          224 449 -9 callsubr
          endchar
        </CharString>
        <CharString name="guilsinglright">
          -146 90 -21 380 -20 hstem
          59 69 -9 callgsubr
          endchar
        </CharString>
        <CharString name="h">
          48 35 callsubr
          196 50 callgsubr
          hintmask 10110100
          52 callsubr
          hintmask 10111000
          -83 callgsubr
          hintmask 01110100
          -64 callsubr
          -31 -44 -8 -48 -42 vhcurveto
          54 252 -148 -20 -145 -680 -28 callsubr
          endchar
        </CharString>
        <CharString name="h.end">
          61 35 callsubr
          196 -20 hstemhm
          259 138 -93 141 hintmask 10110100
          304 362 rmoveto
          hintmask 10111000
          -67 callsubr
          hintmask 01110100
          -64 callsubr
          -31 -43 -8 -47 -43 vhcurveto
          54 251 -148 -20 -145 -680 -58 callsubr
          71 333 rlineto
          45 15 27 35 33 hhcurveto
          24 12 -18 -33 hvcurveto
          endchar
        </CharString>
        <CharString name="hungarumlaut">
          -21 561 189 hstem
          120 561 -48 callgsubr
          39 -189 -48 callgsubr
          endchar
        </CharString>
        <CharString name="hyphen">
          21 callsubr
        </CharString>
        <CharString name="i">
          -2 callgsubr
          74 159 hstemhm
          9 144 -48 159 hintmask 11101000
          105 633 -101 callgsubr
          -20 -133 rmoveto
          -68 -321 rlineto
          hintmask 11110000
          -50 callgsubr
          endchar
        </CharString>
        <CharString name="i.end">
          -180 -2 callgsubr
          74 159 hstemhm
          9 -7 callgsubr
          -121 159 hintmask 11100100
          105 633 -101 callgsubr
          -20 -133 rmoveto
          -68 -321 rlineto
          hintmask 11101000
          19 callsubr
          hintmask 11110000
          -104 callgsubr
          -80 callsubr
          endchar
        </CharString>
        <CharString name="i_x">
          176 35 callgsubr
          74 159 hstemhm
          9 144 -48 159 245 124 hintmask 10111010
          85 -44 callsubr
          -68 -321 rlineto
          -5 -25 4 callsubr
          -82 45 -37 61 93 95 65 73 65 vhcurveto
          -97 22 30 -41 -35 callgsubr
          hintmask 11001010
          -107 callgsubr
          hintmask 10111010
          -68 callgsubr
          -80 callsubr
          hintmask 10110110
          20 callgsubr
          endchar
        </CharString>
        <CharString name="i_x.end">
          189 35 callgsubr
          74 159 hstemhm
          9 144 -48 159 245 124 hintmask 10111010
          85 -44 callsubr
          -68 -321 rlineto
          31 callsubr
          96 64 73 65 vhcurveto
          -97 22 30 -40 64 hhcurveto
          54 51 32 71 5 hvcurveto
          22 callsubr
          hintmask 11001010
          -107 callgsubr
          hintmask 10111010
          -68 callgsubr
          -80 callsubr
          hintmask 10110110
          20 callgsubr
          endchar
        </CharString>
        <CharString name="i_z">
          180 0 -29 callgsubr
          54 159 hstemhm
          9 -7 callgsubr
          -121 159 17 -11 callsubr
          hintmask 1000101001110000
          105 633 -101 callgsubr
          -20 -133 rmoveto
          -68 -321 rlineto
          hintmask 0001101010110000
          -5 -24 4 callsubr
          -84 -20 callgsubr
          54 51 68 callsubr
          hintmask 0100101100110000
          18 callsubr
          hintmask 1000101100110000
          -107 callsubr
          hintmask 1000011010110000
          -103 callgsubr
          hintmask 0010101100110000
          -26 callsubr
          hintmask 0100101100110000
          28 callsubr
        </CharString>
        <CharString name="iacute">
          -2 callgsubr
          270 -20 hstem
          9 144 vstem
          85 500 rmoveto
          -68 -321 rlineto
          -50 callgsubr
          -91 71 callsubr
          endchar
        </CharString>
        <CharString name="iacute.end">
          -180 -2 callgsubr
          270 -20 hstemhm
          9 -7 callgsubr
          hintmask 11101000
          85 500 rmoveto
          -68 -321 rlineto
          19 callsubr
          hintmask 11110000
          -104 callgsubr
          -80 callsubr
          -101 71 callsubr
          endchar
        </CharString>
        <CharString name="iacute_x">
          176 35 callgsubr
          270 -20 hstemhm
          9 144 356 124 hintmask 10111100
          85 -44 callsubr
          -68 -321 rlineto
          -5 -25 4 callsubr
          -82 45 -37 61 93 95 65 73 65 vhcurveto
          -97 22 30 -41 -35 callgsubr
          hintmask 11011100
          -107 callgsubr
          hintmask 10111100
          -68 callgsubr
          -80 callsubr
          -100 71 callsubr
          endchar
        </CharString>
        <CharString name="iacute_z">
          180 0 -29 callgsubr
          250 -20 hstemhm
          9 -7 callgsubr
          55 -11 callsubr
          hintmask 0001101011100000
          31 callgsubr
          51 68 callsubr
          hintmask 0100101101100000
          18 callsubr
          hintmask 1000101101100000
          -107 callsubr
          hintmask 1000011011100000
          -103 callgsubr
          hintmask 0010101101100000
          -26 callsubr
          hintmask 0100101101100000
          -11 6 -9 13 -1 vhcurveto
          -404 470 -100 callsubr
          endchar
        </CharString>
        <CharString name="icircumflex">
          -2 callgsubr
          270 -20 hstem
          9 144 vstem
          85 500 rmoveto
          -68 -321 rlineto
          -50 callgsubr
          87 61 rmoveto
          -60 189 rlineto
          -21 hlineto
          -212 -189 rlineto
          44 hlineto
          157 80 60 -80 rlineto
          endchar
        </CharString>
        <CharString name="idieresis">
          -2 callgsubr
          93 122 hstemhm
          9 144 -119 119 61 122 hintmask 11110100
          85 500 rmoveto
          -68 -321 rlineto
          -50 callgsubr
          hintmask 11101100
          -195 134 rmoveto
          -104 callsubr
          21 callgsubr
        </CharString>
        <CharString name="igrave">
          -2 callgsubr
          81 189 hstem
          9 144 vstem
          85 500 rmoveto
          -68 -321 rlineto
          -50 callgsubr
          -87 61 -42 callgsubr
        </CharString>
        <CharString name="ij">
          50 45 callsubr
          5 callgsubr
          74 159 1 -20 hstemhm
          9 144 -71 55 -55 144 -121 159 100 159 hintmask 1111000101000000
          353 -44 callsubr
          -108 -504 rlineto
          -75 -97 callsubr
          -412 hmoveto
          -68 -321 rlineto
          hintmask 1111010001000000
          -5 -24 4 callsubr
          -84 -20 callgsubr
          vhcurveto
          hintmask 1111000101000000
          63 callsubr
          hintmask 1111010001000000
          -10 callgsubr
          259 72 callgsubr
          hintmask 1110101001000000
          44 -36 36 -44 -44 -35 -36 -44 vhcurveto
          -227 -773 -93 callsubr
        </CharString>
        <CharString name="ij.end">
          47 -250 89 155 5 callgsubr
          74 159 1 -20 hstemhm
          9 121 -55 78 -78 151 -121 159 104 159 hintmask 1111000101000000
          248 8 rmoveto
          -95 -19 callgsubr
          -267 hmoveto
          -68 -321 rlineto
          hintmask 1111010001000000
          -5 -24 4 callsubr
          -84 -20 callgsubr
          vhcurveto
          hintmask 1111000101000000
          63 callsubr
          hintmask 1111001001000000
          -10 callgsubr
          263 72 callgsubr
          hintmask 1110110001000000
          44 -36 36 -44 -44 -35 -36 -44 vhcurveto
          -238 -762 65 callsubr
          -25 -47 callsubr
        </CharString>
        <CharString name="j">
          -217 -250 78 672 -20 75 159 hstem
          -185 55 227 159 vstem
          86 -44 callsubr
          -107 -504 rlineto
          -76 -97 callsubr
          -133 134 -101 callgsubr
          -227 -773 -93 callsubr
        </CharString>
        <CharString name="j.end">
          -220 -250 89 661 -20 75 159 hstem
          -192 55 238 159 vstem
          -18 8 rmoveto
          -96 -19 callgsubr
          16 134 -101 callgsubr
          -238 -762 rmoveto
          54 48 29 64 21 vhcurveto
          -13 -59 12 callsubr
          -25 -47 callsubr
        </CharString>
        <CharString name="j_x">
          168 45 callsubr
          40 callgsubr
          75 159 hstemhm
          -185 55 227 159 247 124 hintmask 11011111
          293 -44 callsubr
          13 callsubr
          -144 hlineto
          -107 -507 rlineto
          -76 -24 callsubr
          -97 22 30 -40 -35 callgsubr
          hintmask 11100111
          -107 callgsubr
          hintmask 11011111
          -39 216 rlineto
          -337 134 -101 callgsubr
          -227 -773 rmoveto
          41 47 26 52 19 vhcurveto
          -7 -30 12 callsubr
          -24 -30 -21 hhcurveto
          -22 -12 58 callgsubr
        </CharString>
        <CharString name="j_z">
          159 -250 89 161 0 callsubr
          55 159 hstemhm
          -191 55 238 159 -1 -11 callsubr
          hintmask 1101011011000000
          -17 8 rmoveto
          -96 -19 callgsubr
          425 -409 rmoveto
          -107 callsubr
          hintmask 1100111101000000
          -103 callgsubr
          hintmask 1011011101000000
          -84 callgsubr
          -409 543 -101 callgsubr
          -238 -762 rmoveto
          54 48 29 64 21 vhcurveto
          -13 -59 12 callsubr
          -25 -47 callsubr
        </CharString>
        <CharString name="k">
          61 38 callgsubr
          -127 127 -127 147 hintmask 01111010
          390 -44 callsubr
          -193 -152 75 352 -23 callsubr
          hvcurveto
          hintmask 10111100
          -42 -18 -40 -46 vvcurveto
          -73 44 -41 82 46 81 17 168 57 vhcurveto
          -42 hlineto
          -52 -22 -18 -36 -44 hhcurveto
          -31 -8 17 20 hvcurveto
          hintmask 10111001
          39 20 38 43 39 callgsubr
        </CharString>
        <CharString name="k.end">
          77 38 callgsubr
          -145 219 -201 147 hintmask 01111001
          390 -44 callsubr
          -193 -152 75 352 -23 callsubr
          -11 -1 -13 -3 -13 hvcurveto
          -8 -39 rlineto
          hintmask 10111010
          -4 -19 -2 -17 -16 vvcurveto
          -73 44 -41 82 26 62 68 callsubr
          -3 -7 -4 -3 -24 hhcurveto
          hintmask 10111100
          -31 -8 17 20 11 3 11 2 10 hvcurveto
          11 50 rlineto
          hintmask 10111001
          3 13 1 13 12 39 callgsubr
        </CharString>
        <CharString name="k.salt">
          61 -27 callsubr
          284 81 38 103 -91 91 194 -20 hstemhm
          267 145 -127 147 hintmask 10101101
          428 210 rmoveto
          3 13 1 13 12 vvcurveto
          64 -36 53 -74 -35 -33 -12 -17 -32 vhcurveto
          58 61 32 21 45 hhcurveto
          hintmask 01110101
          17 17 -12 23 hhcurveto
          31 20 25 28 22 -14 28 -33 -52 -39 -19 -124 -130 hvcurveto
          72 337 -23 callsubr
          -11 -1 -13 -3 -13 hvcurveto
          -8 -39 rlineto
          hintmask 10110110
          -4 -19 -2 -17 -16 vvcurveto
          -73 44 -41 82 46 81 17 168 57 vhcurveto
          -42 hlineto
          -52 -22 -18 -36 -44 hhcurveto
          -31 -8 17 20 11 3 11 2 10 hvcurveto
          endchar
        </CharString>
        <CharString name="l">
          77 callsubr
          124 680 rmoveto
          -107 -501 rlineto
          -106 callsubr
          53 callgsubr
          endchar
        </CharString>
        <CharString name="l.end">
          -184 -6 99 609 -20 hstemhm
          7 -7 callgsubr
          hintmask 11010000
          270 13 callgsubr
          -28 callgsubr
          hintmask 11100000
          44 callgsubr
          endchar
        </CharString>
        <CharString name="l_x">
          176 35 callgsubr
          220 -20 hstemhm
          10 144 355 124 hintmask 11011100
          18 179 rmoveto
          31 callsubr
          95 64 73 65 vhcurveto
          -97 22 30 -40 -35 callgsubr
          -107 callgsubr
          hintmask 10111100
          -39 216 rlineto
          -141 hlineto
          58 -315 rlineto
          -55 -44 -65 -38 -50 hhcurveto
          -26 -18 11 25 -96 callsubr
          69 callsubr
          -148 -20 rlineto
          endchar
        </CharString>
        <CharString name="l_z">
          181 0 71 -71 93 -93 -21 callsubr
          202 -20 hstemhm
          10 -7 callgsubr
          55 -11 callsubr
          hintmask 0001101011100000
          273 13 callgsubr
          hintmask 0100101101100000
          -28 callgsubr
          44 callgsubr
          375 -71 rmoveto
          hintmask 1000101101100000
          -107 callsubr
          hintmask 1000011011100000
          -103 callgsubr
          hintmask 0010101101100000
          9 callsubr
        </CharString>
        <CharString name="less">
          -99 122 -21 328 -20 hstem
          323 429 rmoveto
          -307 -150 -9 -41 247 -137 12 57 -194 96 241 120 rlineto
          endchar
        </CharString>
        <CharString name="logicalnot">
          10 51 250 -79 79 hstemhm
          hintmask 01000000
          400 301 rmoveto
          -362 hlineto
          -18 -79 rlineto
          251 hlineto
          hintmask 10000000
          -35 -171 rlineto
          113 hlineto
          endchar
        </CharString>
        <CharString name="lslash">
          -191 77 callsubr
          17 179 rmoveto
          -5 -24 -3 -21 -19 vvcurveto
          -85 66 callgsubr
          -50 -15 -36 -95 callsubr
          50 235 36 23 46 29 47 26 rlinecurve
          4 61 -118 -71 50 237 -148 -20 -70 -330 -71 -43 rlineto
          -58 vlineto
          57 37 rlineto
          endchar
        </CharString>
        <CharString name="m">
          295 -27 callsubr
          414 90 24 callsubr
          hintmask 10100010
          552 362 rmoveto
          hintmask 10100100
          -83 callgsubr
          hintmask 10100010
          -64 callsubr
          -37 -54 -11 -74 -49 vhcurveto
          hintmask 10001100
          67 -13 -40 19 -49 51 callgsubr
          hintmask 01010100
          -78 callsubr
          hintmask 01100010
          50 15 27 43 39 hhcurveto
          22 8 -22 -22 -9 -1 -8 -2 -8 hvcurveto
          -73 -345 -28 callsubr
          endchar
        </CharString>
        <CharString name="m.end">
          309 -27 callsubr
          414 90 24 callsubr
          hintmask 10100010
          552 362 rmoveto
          hintmask 10100100
          -67 callsubr
          hintmask 10100010
          -64 callsubr
          -37 -54 -11 -74 -48 vhcurveto
          hintmask 10001100
          65 callgsubr
          hintmask 01010100
          -78 callsubr
          hintmask 01100010
          50 15 27 43 39 hhcurveto
          22 8 -22 -22 -9 -1 -8 -2 -8 hvcurveto
          -73 -345 -28 callsubr
          endchar
        </CharString>
        <CharString name="m_x">
          669 0 91 -76 -21 420 90 -51 103 -56 -20 hstemhm
          507 138 -93 93 -93 141 309 124 hintmask 1000101010000000
          792 -44 callsubr
          57 -314 rlineto
          -55 -45 -69 -40 -46 hhcurveto
          -30 -14 17 25 hvcurveto
          hintmask 1010000110000000
          -64 callsubr
          -37 -54 -11 -74 -48 vhcurveto
          65 callgsubr
          hintmask 1000110010000000
          -78 callsubr
          hintmask 1010001010000000
          50 15 27 43 39 hhcurveto
          22 8 -22 -22 -9 -1 -8 -2 -8 hvcurveto
          -73 -345 -28 callsubr
          hintmask 0110010010000000
          -64 -45 -123 -68 vvcurveto
          -57 25 -56 87 71 102 65 73 68 vhcurveto
          -97 56 callgsubr
          hintmask 1001010010000000
          -13 callgsubr
          -8 50 38 -7 hvcurveto
          -9 50 rlineto
          98 104 45 69 65 vvcurveto
          -107 callgsubr
          hintmask 1000110010000000
          -39 216 rlineto
          endchar
        </CharString>
        <CharString name="m_z">
          668 23 callsubr
          149 -90 90 -58 58 24 callsubr
          76 -11 callsubr
          hintmask 1000100000111000
          552 362 rmoveto
          hintmask 0100100001011000
          -67 callsubr
          hintmask 1000010000111000
          -64 callsubr
          -37 -54 -11 -74 -48 vhcurveto
          hintmask 1000000011011000
          65 callgsubr
          hintmask 0001000101011000
          -78 callsubr
          hintmask 0001010000111000
          50 15 27 43 39 hhcurveto
          22 8 -22 -22 -9 -1 -8 -2 -8 hvcurveto
          -73 -345 -28 callsubr
          hintmask 0100100001011000
          468 -271 rmoveto
          hintmask 1000000101011000
          -16 -3 -20 -4 -24 hhcurveto
          -27 -32 5 1 -17 hvcurveto
          59 callgsubr
          hintmask 1000100001011000
          -78 callgsubr
          vhcurveto
          -37 callsubr
          hintmask 0001001001011000
          -103 callgsubr
          hintmask 0010100001011000
          -26 callsubr
          hintmask 0100100001011000
          28 callsubr
        </CharString>
        <CharString name="minus">
          14 222 79 hstem
          407 301 7 callsubr
        </CharString>
        <CharString name="mu">
          48 -145 -21 166 91 409 -20 hstem
          85 -44 callsubr
          -141 -666 151 36 27 130 41 1 54 13 48 76 rlinecurve
          -59 6 37 -31 55 hhcurveto
          54 90 16 -86 callsubr
          -144 -38 callgsubr
          -22 -8 21 23 9 1 8 2 8 hvcurveto
          -80 callsubr
          endchar
        </CharString>
        <CharString name="multiply">
          -43 121 -21 320 -20 hstem
          35 355 rmoveto
          95 -95 -95 -95 65 -64 94 94 96 -95 64 65 -95 95 95 95 -64 65 -96 -96 -94 95 rlineto
          endchar
        </CharString>
        <CharString name="n">
          78 callgsubr
          hstemhm
          260 138 -93 141 hintmask 10100100
          52 callsubr
          hintmask 10101000
          -83 callgsubr
          hintmask 10100100
          -64 callsubr
          -31 -44 -8 -48 -42 vhcurveto
          hintmask 01011000
          -78 callsubr
          hintmask 10100100
          -49 callgsubr
          endchar
        </CharString>
        <CharString name="n.end">
          62 -6 97 -70 -21 413 91 -4 50 callgsubr
          hintmask 10100100
          52 callsubr
          hintmask 10101000
          -67 callsubr
          hintmask 10100100
          -64 callsubr
          -31 -44 -8 -48 -42 vhcurveto
          hintmask 01011000
          -78 callsubr
          hintmask 10100100
          -49 callgsubr
          endchar
        </CharString>
        <CharString name="n_z">
          425 23 callsubr
          149 -91 91 -58 58 -4 50 callgsubr
          80 -11 callsubr
          hintmask 1000100001110000
          52 callsubr
          hintmask 0100100010110000
          -67 callsubr
          hintmask 1000010001110000
          -64 callsubr
          -31 -44 -8 -48 -42 vhcurveto
          hintmask 0001000110110000
          -78 callsubr
          hintmask 0100010001110000
          -49 callgsubr
          472 -271 rmoveto
          hintmask 1000000110110000
          -16 -3 -20 -4 -24 hhcurveto
          -27 -32 5 1 -17 hvcurveto
          59 callgsubr
          hintmask 1000100010110000
          -78 callgsubr
          vhcurveto
          -37 callsubr
          hintmask 0001001010110000
          -103 callgsubr
          hintmask 0010100010110000
          -26 callsubr
          hintmask 0100100010110000
          28 callsubr
        </CharString>
        <CharString name="nacute">
          78 callgsubr
          270 50 callgsubr
          hintmask 10101010
          52 callsubr
          hintmask 10101100
          -83 callgsubr
          hintmask 10101010
          -64 callsubr
          -31 -44 -8 -48 -42 vhcurveto
          hintmask 01011100
          -78 callsubr
          hintmask 10101010
          -49 callgsubr
          -24 199 -100 callsubr
          endchar
        </CharString>
        <CharString name="nine">
          99 -5 87 -87 177 133 70 314 61 hstemhm
          70 67 -67 114 213 139 hintmask 10110110
          324 444 rmoveto
          -44 -16 -31 -25 -32 hhcurveto
          -54 -7 72 37 102 55 103 80 46 34 -34 -115 -20 -1 -14 -1 -19 hvcurveto
          -401 -25 -159 -4 -16 hhcurveto
          hintmask 01111010
          -48 -12 35 21 12 4 12 10 10 hvcurveto
          -69 -17 -43 -35 -50 35 -49 92 202 142 258 269 144 -51 84 -152 -161 -102 -121 -145 -92 41 -87 103 68 66 38 53 13 -4 23 -20 12 hvcurveto
          endchar
        </CharString>
        <CharString name="ntilde">
          78 callgsubr
          89 78 -41 74 -8 callsubr
          hintmask 10101001
          52 callsubr
          hintmask 10101010
          -83 callgsubr
          hintmask 10101001
          -64 callsubr
          -31 -44 -8 -48 -42 vhcurveto
          hintmask 01011010
          -78 callsubr
          hintmask 10101001
          -49 callgsubr
          195 308 -13 callsubr
          hintmask 10100110
          -79 callsubr
          hintmask 10101010
          -39 callsubr
          endchar
        </CharString>
        <CharString name="numbersign">
          85 -27 240 -102 102 113 102 290 -20 hstemhm
          hintmask 10110000
          261 -27 rmoveto
          57 hlineto
          hintmask 01110000
          30 138 rlineto
          110 hlineto
          20 102 rlineto
          -107 hlineto
          25 113 rlineto
          106 hlineto
          20 102 rlineto
          -104 73 callsubr
          -105 73 callsubr
          -99 hlineto
          -21 -102 rlineto
          102 hlineto
          -21 -113 rlineto
          -104 hlineto
          -21 -102 rlineto
          107 hlineto
          hintmask 10110000
          -25 -138 rlineto
          57 hlineto
          hintmask 01110000
          30 138 rlineto
          118 hlineto
          hintmask 10110000
          -70 215 rmoveto
          109 hlineto
          -21 -113 rlineto
          -113 hlineto
          endchar
        </CharString>
        <CharString name="o">
          -18 17 callsubr
          hstemhm
          3 149 140 113 -82 82 hintmask 11101000
          -105 callsubr
          hintmask 11110000
          -69 callsubr
          endchar
        </CharString>
        <CharString name="o.end">
          26 17 callsubr
          hstem
          3 149 140 111 vstem
          -61 callgsubr
          126 103 122 194 11 hvcurveto
          52 30 29 61 20 42 rrcurveto
          -32 hlineto
          -10 -18 -25 -42 -33 -9 rrcurveto
          87 -7 -42 44 -78 -72 callgsubr
          10 -14 -39 3 hvcurveto
          -59 callgsubr
          -88 -49 hhcurveto
          endchar
        </CharString>
        <CharString name="o_ae">
          631 -6 84 -84 97 111 48 -21 61 156 59 hstemhm
          3 149 139 113 44 141 423 77 hintmask 1001111110000000
          -61 callgsubr
          127 103 124 196 11 hvcurveto
          47 140 18 85 114 hhcurveto
          50 18 -31 -39 -28 -9 -33 -13 -29 hvcurveto
          2 -11 -15 2 -20 hhcurveto
          -133 -95 -42 -123 -107 65 -24 68 73 38 49 47 25 hvcurveto
          -68 19 55 -28 73 hhcurveto
          136 84 95 49 callgsubr
          hvcurveto
          hintmask 1010111110000000
          10 1 11 1 11 vhcurveto
          120 7 110 90 111 vvcurveto
          53 -20 42 -89 -53 -44 -16 -25 -35 vhcurveto
          29 -33 -49 12 -67 hhcurveto
          -130 -45 -98 -48 -119 hvcurveto
          97 -3 -43 49 -82 -74 callsubr
          24 10 -13 -35 4 hvcurveto
          -19 -8 -13 -18 -28 vvcurveto
          -27 9 -18 19 -3 vhcurveto
          -118 -15 -52 -89 -49 hhcurveto
          809 324 rmoveto
          37 callsubr
          hintmask 0101111110000000
          -318 -183 rmoveto
          7 7 0 -1 7 hvcurveto
          -108 -19 -31 -29 -25 hhcurveto
          -18 -33 5 42 63 53 28 52 hvcurveto
          endchar
        </CharString>
        <CharString name="o_s">
          329 -6 79 -79 94 47 87 223 60 26 -20 hstemhm
          3 -40 callgsubr
          565 -92 callsubr
          endchar
        </CharString>
        <CharString name="o_s.end">
          339 -6 79 -79 94 47 87 223 60 26 -20 hstemhm
          3 -40 callgsubr
          277 -87 callgsubr
          endchar
        </CharString>
        <CharString name="o_s_x">
          677 -6 79 -79 97 44 87 223 60 -60 111 -56 -20 hstemhm
          3 149 141 110 -80 80 18 -38 callsubr
          123 -123 145 274 124 hintmask 1010011101000110
          800 29 callsubr
          hintmask 1011001011010010
          -72 callsubr
          -56 -97 -55 -58 -50 -4 rlinecurve
          102 -2 -42 51 -84 hhcurveto
          -15 callsubr
          18 56 46 49 73 rrcurveto
          hintmask 1011001101001010
          -97 callgsubr
          hintmask 1011001100110010
          -18 callgsubr
          hintmask 0110101101010010
          -13 callgsubr
          -8 50 38 -7 hvcurveto
          -9 50 rlineto
          98 104 45 69 65 vvcurveto
          -107 callgsubr
          hintmask 1010011101010010
          -39 216 rlineto
          -738 -412 rmoveto
          -38 -13 15 66 hvcurveto
          hintmask 1011001011010010
          70 callsubr
          hintmask 1011001101010010
          -18 -8 -12 -17 -28 vvcurveto
          -26 9 -14 17 -5 vhcurveto
          -117 -16 -51 -88 -49 hhcurveto
          endchar
        </CharString>
        <CharString name="o_s_z">
          682 23 callgsubr
          51 -20 hstemhm
          3 149 140 111 -80 80 17 -22 callgsubr
          19 56 45 48 -46 callgsubr
          -54 -57 -50 -5 rlinecurve
          102 -2 -42 51 -84 hhcurveto
          757 -62 callsubr
          -831 -3 -16 callgsubr
          hintmask 010011001110101011000000
          -44 callgsubr
          endchar
        </CharString>
        <CharString name="o_x">
          394 53 callsubr
          hstemhm
          3 149 139 112 -80 80 14 122 189 124 hintmask 0101001011100000
          -61 callgsubr
          124 102 119 188 14 hvcurveto
          48 16 45 32 41 48 79 callsubr
          hintmask 1001001101100000
          -51 callsubr
          hintmask 0010101101100000
          -81 callsubr
          hintmask 1000011101100000
          64 callsubr
          -35 -38 -5 rlinecurve
          hintmask 1001001011100000
          102 -2 -42 51 -84 -72 callgsubr
          10 -14 -39 3 hvcurveto
          hintmask 1001001101100000
          -19 -8 -13 -18 -28 vvcurveto
          -27 10 -14 18 -5 vhcurveto
          -117 -16 -51 -87 -49 hhcurveto
          endchar
        </CharString>
        <CharString name="oacute">
          -18 17 callsubr
          245 -20 hstemhm
          3 149 140 113 -82 82 hintmask 11110100
          -105 callsubr
          hintmask 11111000
          -69 callsubr
          39 473 -100 callsubr
          endchar
        </CharString>
        <CharString name="oacute.end">
          23 17 callsubr
          245 -20 hstem
          4 149 140 111 vstem
          278 505 rmoveto
          -93 callgsubr
          126 103 122 194 11 hvcurveto
          52 30 29 61 20 42 rrcurveto
          -32 hlineto
          -10 -18 -25 -42 -33 -9 rrcurveto
          87 -7 -42 44 -78 -72 callgsubr
          10 -14 -39 3 hvcurveto
          -59 callgsubr
          -88 -49 hhcurveto
          32 473 -100 callsubr
          endchar
        </CharString>
        <CharString name="oacute_s">
          330 -6 79 -79 94 47 87 223 60 245 -20 hstemhm
          4 -40 callgsubr
          566 -92 callsubr
          32 473 -100 callsubr
          endchar
        </CharString>
        <CharString name="oacute_s.end">
          340 -6 79 -79 94 47 87 223 60 245 -20 hstemhm
          4 -40 callgsubr
          278 -87 callgsubr
          32 473 -100 callsubr
          endchar
        </CharString>
        <CharString name="oacute_s_x">
          677 -6 79 -79 97 44 87 223 60 -60 111 -56 -20 270 -20 hstemhm
          3 149 142 109 -80 80 19 -38 callsubr
          123 -123 145 273 124 hintmask 1010011110100011
          800 -44 callsubr
          56 -305 -34 -29 -48 -26 -41 -17 rlinecurve
          3 13 1 15 16 vvcurveto
          hintmask 1011001101101001
          -72 callsubr
          -57 -98 -54 -58 -51 -3 rlinecurve
          102 -2 -42 51 -84 hhcurveto
          -8 callgsubr
          101 118 188 15 hvcurveto
          62 19 56 46 49 73 rrcurveto
          hintmask 1011001110100101
          -97 callgsubr
          hintmask 1011001110011001
          -91 callgsubr
          53 58 18 49 35 hvcurveto
          43 21 67 25 49 35 rrcurveto
          -104 23 30 -44 66 hhcurveto
          54 95 22 -91 callsubr
          hintmask 0110101110101001
          -13 callgsubr
          -8 50 38 -7 hvcurveto
          -9 50 rlineto
          98 104 45 69 65 vvcurveto
          -107 callgsubr
          hintmask 1010011110101001
          -39 216 rlineto
          -738 -412 rmoveto
          -38 -13 15 66 hvcurveto
          hintmask 1011001101101001
          70 callsubr
          hintmask 1011001110101001
          -17 -8 -12 -18 -27 vvcurveto
          -25 8 -14 17 -6 vhcurveto
          -117 -16 -51 -88 -49 hhcurveto
          34 473 -100 callsubr
          endchar
        </CharString>
        <CharString name="oacute_s_z">
          683 23 callgsubr
          270 -20 hstemhm
          3 149 141 110 -80 80 18 -22 callgsubr
          18 56 46 49 -46 callgsubr
          -55 -58 -50 -4 rlinecurve
          102 -2 -42 51 -84 hhcurveto
          758 -62 callsubr
          -832 -3 -16 callgsubr
          hintmask 010011001110101011000000
          -18 -8 -12 -17 -28 vvcurveto
          -26 9 -14 17 -5 vhcurveto
          -117 -16 -51 -88 -49 hhcurveto
          33 473 -100 callsubr
          endchar
        </CharString>
        <CharString name="oacute_x">
          395 53 callsubr
          270 -20 hstemhm
          3 15 callsubr
          15 122 189 124 hintmask 0101001101110000
          277 505 rmoveto
          -83 callsubr
          48 15 46 32 41 49 79 callsubr
          hintmask 1001001110110000
          -51 callsubr
          hintmask 0010101110110000
          -81 callsubr
          hintmask 1000011110110000
          64 callsubr
          -36 -39 -4 rlinecurve
          hintmask 1001001101110000
          102 -2 -42 51 -84 hhcurveto
          -74 -417 -16 callgsubr
          hintmask 1001001110110000
          -44 callgsubr
          32 473 -100 callsubr
          endchar
        </CharString>
        <CharString name="ocircumflex">
          -18 17 callsubr
          0 56 189 -20 hstemhm
          3 149 140 113 -82 82 hintmask 11011010
          -105 callsubr
          hintmask 10111100
          -69 callsubr
          208 473 rmoveto
          -60 189 rlineto
          -21 hlineto
          -212 -189 rlineto
          44 hlineto
          157 80 60 -80 rlineto
          endchar
        </CharString>
        <CharString name="odieresis">
          -18 17 callsubr
          68 122 hstemhm
          3 149 -24 122 42 113 -97 122 -107 82 hintmask 11110001
          -105 callsubr
          hintmask 11101100
          -69 callsubr
          -75 546 rmoveto
          -104 callsubr
          hintmask 11110010
          21 callgsubr
        </CharString>
        <CharString name="oe">
          214 -6 78 -78 97 -70 -21 284 225 -58 58 1 -20 hstemhm
          8 133 470 60 hintmask 10000111
          271 510 rmoveto
          -138 -125 -106 -246 -119 46 -45 107 56 59 31 62 44 hvcurveto
          hintmask 00110011
          -51 21 46 -36 68 hhcurveto
          129 96 101 103 57 hvcurveto
          -45 hlineto
          hintmask 10001011
          -74 -35 -84 -58 -49 hhcurveto
          -39 -43 20 66 12 1 15 2 16 hvcurveto
          95 12 131 70 122 vvcurveto
          70 -46 34 -82 -72 -51 -34 -50 -37 vhcurveto
          hintmask 01000111
          48 -13 -32 37 -67 hhcurveto
          -63 -419 rmoveto
          -39 -28 16 60 hvcurveto
          hintmask 10001011
          80 40 204 94 28 11 -19 -33 3 vhcurveto
          -27 -10 -17 -31 -29 vvcurveto
          hintmask 01010011
          -24 13 -21 29 vhcurveto
          -97 -12 -34 -96 -61 hhcurveto
          403 309 rmoveto
          -1 -71 -65 -79 -92 -1 rrcurveto
          94 21 46 113 56 hhcurveto
          30 5 -35 -21 hvcurveto
          endchar
        </CharString>
        <CharString name="ogonek">
          -166 -193 59 -59 198 hstemhm
          45 83 hintmask 10100000
          122 5 rmoveto
          -50 -39 -27 -44 -37 -51 callgsubr
          hvcurveto
          hintmask 01100000
          40 35 38 29 11 vhcurveto
          endchar
        </CharString>
        <CharString name="ograve">
          -18 17 callsubr
          56 189 hstemhm
          3 149 140 113 -82 82 hintmask 11110100
          -105 callsubr
          hintmask 11111000
          -69 callsubr
          58 473 -42 callgsubr
        </CharString>
        <CharString name="ohungarumlaut">
          -18 17 callsubr
          56 189 hstemhm
          3 149 140 113 -82 82 hintmask 11110100
          -105 callsubr
          hintmask 11111000
          -69 callsubr
          11 473 -48 callgsubr
          39 -189 -48 callgsubr
          endchar
        </CharString>
        <CharString name="one">
          -122 21 -21 598 72 78 -20 hstem
          348 748 rmoveto
          -72 -121 -78 -6 -55 hhcurveto
          -18 -72 rlineto
          95 hlineto
          -126 -598 -58 callsubr
          endchar
        </CharString>
        <CharString name="onehalf">
          227 -144 -21 184 47 -46 -21 381 29 341 -20 hstemhm
          390 64 82 69 -69 84 hintmask 11011101
          449 24 callgsubr
          40 794 0 callgsubr
          284 -149 -4 callsubr
          9 callgsubr
          hintmask 10111110
          81 callgsubr
          hintmask 11011110
          67 callgsubr
        </CharString>
        <CharString name="onequarter">
          219 -144 -21 315 39 561 -20 hstem
          437 61 vstem
          454 24 callgsubr
          304 315 rmoveto
          -34 -149 rlineto
          83 hlineto
          -18 callsubr
          -128 479 0 callgsubr
          endchar
        </CharString>
        <CharString name="onesuperior">
          -230 366 -21 404 -20 hstem
          257 749 0 callgsubr
          endchar
        </CharString>
        <CharString name="ordfeminine">
          -101 467 45 199 34 hstem
          95 78 vstem
          374 740 rmoveto
          -83 hlineto
          -3 -13 rlineto
          10 -10 -15 8 -26 hhcurveto
          -95 -47 -110 -78 -49 18 -41 50 43 29 30 27 17 hvcurveto
          -35 5 12 -19 40 hhcurveto
          15 25 3 47 16 hvcurveto
          -2 -5 -6 0 -4 hhcurveto
          -16 -5 9 10 4 1 6 2 9 hvcurveto
          -79 155 rmoveto
          8 11 -3 -8 10 hvcurveto
          -32 -139 rlineto
          -25 -11 -19 -24 -18 hhcurveto
          -12 -17 11 42 61 35 85 45 hvcurveto
          endchar
        </CharString>
        <CharString name="ordmasculine">
          -148 466 53 -53 224 24 31 hstemhm
          97 77 85 45 -45 58 hintmask 01111000
          317 671 rmoveto
          15 -5 4 -14 -19 -20 -22 -19 -11 4 -8 11 -3 vhcurveto
          hintmask 10111000
          -49 -6 -17 -59 -36 hhcurveto
          -24 -17 9 32 43 21 111 57 13 8 -7 -12 5 hvcurveto
          12 4 14 6 16 vvcurveto
          14 -27 10 -28 -79 -73 -58 -132 -64 29 -25 62 vhcurveto
          hintmask 10110100
          54 69 57 112 6 hvcurveto
          23 13 10 25 6 19 -6 11 rcurveline
          -13 -14 -5 -9 -15 -9 rrcurveto
          endchar
        </CharString>
        <CharString name="oslash">
          -18 -82 -21 548 59 101 -20 hstem
          3 149 137 114 vstem
          187 -103 rmoveto
          22 103 103 26 80 113 11 167 rlinecurve
          77 21 74 49 28 41 rrcurveto
          -32 hlineto
          -32 -22 -62 -35 -51 -3 -2 82 -30 47 -58 14 22 105 rcurveline
          -52 hlineto
          -21 -101 rlineto
          -196 -10 -65 -230 -112 vvcurveto
          -111 63 -45 90 -2 vhcurveto
          -21 -97 rlineto
          68 191 rmoveto
          -38 -13 15 66 98 62 178 71 24 10 -13 -35 4 hvcurveto
          -20 -7 -14 -18 -29 vvcurveto
          -28 10 -14 20 -4 vhcurveto
          -119 -15 -51 -90 -50 hhcurveto
          endchar
        </CharString>
        <CharString name="otilde">
          -18 17 callsubr
          64 78 -41 74 hstemhm
          3 149 140 113 -82 82 hintmask 11101010
          -105 callsubr
          hintmask 11101100
          -69 callsubr
          255 582 -13 callsubr
          hintmask 11011100
          -79 callsubr
          hintmask 11101100
          -39 callsubr
          endchar
        </CharString>
        <CharString name="p">
          11 -229 -21 244 87 352 72 -72 104 hstemhm
          323 137 hintmask 11011000
          93 537 rmoveto
          -167 -787 151 36 52 244 rlineto
          -19 11 24 -17 50 hhcurveto
          194 52 218 135 hvcurveto
          hintmask 11101000
          119 -54 39 -68 -50 -38 -18 -25 -29 vhcurveto
          hintmask 11011000
          16 75 rlineto
          -54 -456 rmoveto
          -23 -11 12 11 -4 hvcurveto
          59 280 rlineto
          32 19 28 17 22 hhcurveto
          18 32 -6 -77 -94 -35 -175 -105 hvcurveto
          endchar
        </CharString>
        <CharString name="p.calt">
          48 -229 -21 244 97 322 91 -91 124 -8 callsubr
          hintmask 11100100
          52 callsubr
          hintmask 11101000
          -83 callgsubr
          hintmask 11100100
          -64 callsubr
          -31 -44 -8 -48 -42 vhcurveto
          hintmask 11010100
          19 89 rlineto
          -144 hlineto
          -167 -787 151 36 114 535 rlineto
          -49 callgsubr
          endchar
        </CharString>
        <CharString name="p.salt">
          25 -229 -21 265 -21 419 91 -91 124 hstemhm
          335 116 hintmask 11101000
          551 282 rmoveto
          -33 -6 -37 -7 -37 -9 rrcurveto
          4 27 3 28 28 vvcurveto
          88 -38 73 -74 -35 -44 -8 -48 -42 vhcurveto
          hintmask 11011000
          19 89 rlineto
          -144 hlineto
          -167 -787 151 36 114 535 rlineto
          50 15 26 42 39 hhcurveto
          48 16 -46 -56 -28 -4 -31 -6 -29 hvcurveto
          -88 -34 -69 -49 -71 vvcurveto
          -47 24 -28 57 77 72 95 118 34 vhcurveto
          37 9 37 6 32 2 rrcurveto
          -309 -138 rmoveto
          25 33 27 47 24 vhcurveto
          -6 -17 rlineto
          -57 -21 -23 -16 -15 hhcurveto
          -9 -6 7 7 hvcurveto
          endchar
        </CharString>
        <CharString name="paragraph">
          62 -60 -21 830 -20 hstem
          415 85 vstem
          232 -81 rmoveto
          77 369 14 3 14 3 15 5 rlinecurve
          -81 -380 rlineto
          94 hlineto
          127 593 rlineto
          5 26 3 24 22 vvcurveto
          121 -85 44 -100 -165 -85 -134 -124 -94 49 -89 101 -20 vhcurveto
          -77 -369 rlineto
          182 420 rmoveto
          72 343 rlineto
          14 -13 9 -19 -31 vvcurveto
          -14 -2 -16 -4 -19 vhcurveto
          -48 -227 rlineto
          -3 -11 -12 -1 -12 hhcurveto
          endchar
        </CharString>
        <CharString name="parenleft">
          -176 51 callsubr
          12 73 vstem
          338 750 rmoveto
          -198 -95 -128 -294 -261 vvcurveto
          -136 35 -128 78 -86 vhcurveto
          33 29 rlineto
          -51 75 -22 105 114 vvcurveto
          260 117 303 149 74 vhcurveto
          endchar
        </CharString>
        <CharString name="parenright">
          -176 51 callsubr
          167 73 vstem
          -86 -250 rmoveto
          198 95 128 293 262 vvcurveto
          136 -35 128 -78 86 vhcurveto
          -33 -29 rlineto
          51 -75 22 -106 -113 vvcurveto
          -261 -117 -302 -149 -74 vhcurveto
          endchar
        </CharString>
        <CharString name="percent">
          166 59 callsubr
          69 72 112 60 4 67 109 78 vstem
          541 -76 callgsubr
          endchar
        </CharString>
        <CharString name="period">
          -217 -4 159 hstem
          -9 159 vstem
          -9 75 -101 callgsubr
          endchar
        </CharString>
        <CharString name="periodcentered">
          -1 callsubr
        </CharString>
        <CharString name="perthousand">
          455 59 callsubr
          70 72 112 60 4 67 109 78 34 67 109 78 vstem
          542 -76 callgsubr
          381 183 rmoveto
          -100 -62 -96 -118 -72 18 -42 78 116 42 130 85 73 -34 40 -58 hvcurveto
          -93 -183 rmoveto
          97 8 43 49 28 hhcurveto
          21 7 -33 -35 -101 -29 -85 -53 -22 -5 33 32 16 1 15 1 12 hvcurveto
          endchar
        </CharString>
        <CharString name="plus">
          -15 82 70 callgsubr
          hintmask 00100000
          304 439 rmoveto
          -113 hlineto
          hintmask 10000000
          -27 -122 rlineto
          -128 hlineto
          hintmask 01000000
          -24 -112 rlineto
          128 hlineto
          hintmask 10000000
          -27 -123 rlineto
          113 hlineto
          hintmask 01000000
          55 callsubr
          endchar
        </CharString>
        <CharString name="plusminus">
          22 68 79 39 70 callgsubr
          hintmask 10010000
          346 543 rmoveto
          -113 hlineto
          hintmask 11000000
          -27 -122 rlineto
          -128 hlineto
          hintmask 10100000
          -24 -112 rlineto
          128 hlineto
          hintmask 11000000
          -27 -123 rlineto
          113 hlineto
          hintmask 10100000
          55 callsubr
          hintmask 10010000
          68 -274 rmoveto
          -367 hlineto
          -18 -79 rlineto
          368 hlineto
          endchar
        </CharString>
        <CharString name="q">
          29 -229 -21 244 97 352 75 callsubr
          hintmask 11011000
          352 -44 callsubr
          -10 -44 rlineto
          hintmask 11101000
          44 -8 -41 5 -32 hhcurveto
          -89 callgsubr
          51 39 24 31 29 hvcurveto
          -63 -299 151 36 rlineto
          hintmask 11011000
          152 714 rlineto
          hintmask 11101000
          -204 -57 rmoveto
          28 10 -22 -12 2 hvcurveto
          -52 -247 rlineto
          -47 -16 -36 -24 -26 hhcurveto
          -18 -32 1 77 94 55 180 85 hvcurveto
          endchar
        </CharString>
        <CharString name="question">
          -37 0 159 296 245 -54 54 hstemhm
          73 111 -111 152 -88 47 140 119 hintmask 11010010
          443 572 rmoveto
          74 -33 54 -122 -159 -56 -93 -68 -56 37 -28 39 28 28 14 28 17 vhcurveto
          -28 8 -10 35 24 vvcurveto
          hintmask 10100110
          49 42 33 39 28 31 -17 -60 vhcurveto
          -146 -187 -54 -137 vvcurveto
          66 hlineto
          48 145 192 24 171 vvcurveto
          hintmask 11001010
          -218 -492 28 callgsubr
        </CharString>
        <CharString name="questiondown">
          -40 -247 54 -54 245 296 159 hstemhm
          -64 119 99 152 -111 47 -47 111 hintmask 01110010
          -64 -119 rmoveto
          -74 33 -54 122 159 56 93 68 56 -37 28 -39 -28 -28 -14 -28 -17 vhcurveto
          28 -8 10 -35 -24 vvcurveto
          hintmask 10110100
          -49 -42 -33 -39 -28 -31 17 60 vhcurveto
          146 187 54 137 vvcurveto
          -66 hlineto
          -48 -145 -192 -24 -171 vvcurveto
          hintmask 10111000
          218 492 -101 callgsubr
          endchar
        </CharString>
        <CharString name="quotedbl">
          -104 41 callsubr
          96 -189 rmoveto
          75 hlineto
          91 -12 callsubr
          endchar
        </CharString>
        <CharString name="quotedblbase">
          -17 -67 62 callgsubr
          -10 137 83 137 vstem
          -10 76 -52 callgsubr
        </CharString>
        <CharString name="quotedblleft">
          -28 535 62 callgsubr
          93 137 83 137 vstem
          450 584 rmoveto
          -45 callsubr
          -220 hmoveto
          -45 callsubr
          endchar
        </CharString>
        <CharString name="quotedblright">
          -31 535 62 callgsubr
          109 137 83 137 vstem
          109 678 -52 callgsubr
        </CharString>
        <CharString name="quoteleft">
          -248 535 62 callgsubr
          93 137 vstem
          230 584 rmoveto
          -45 callsubr
          endchar
        </CharString>
        <CharString name="quoteright">
          -251 535 62 callgsubr
          109 137 vstem
          109 678 -7 callsubr
          endchar
        </CharString>
        <CharString name="quotesinglbase">
          -237 -67 62 callgsubr
          -10 137 vstem
          -10 76 -7 callsubr
          endchar
        </CharString>
        <CharString name="quotesingle">
          -261 41 callsubr
          endchar
        </CharString>
        <CharString name="r">
          -81 21 -21 357 148 -85 85 -5 -20 hstemhm
          hintmask 10010000
          85 -44 callsubr
          71 callgsubr
          hintmask 10100000
          24 26 22 16 25 hhcurveto
          hintmask 11000000
          30 callgsubr
          hintmask 10010000
          14 63 rlineto
          endchar
        </CharString>
        <CharString name="r_x">
          328 -29 104 -81 97 -70 -21 357 143 -80 80 -47 103 hstemhm
          351 122 189 124 hintmask 10010011
          439 -44 callsubr
          58 -260 rlineto
          -73 -47 -73 -85 -66 vvcurveto
          -51 callsubr
          hintmask 01000111
          -130 29 27 -55 73 hhcurveto
          54 92 22 -66 callsubr
          -6 50 38 -9 hvcurveto
          -15 64 rlineto
          105 93 44 64 67 -46 callsubr
          -39 -38 -48 -64 -58 vhcurveto
          hintmask 00110011
          -45 202 rlineto
          -495 hmoveto
          71 callgsubr
          hintmask 10001011
          24 26 22 16 25 hhcurveto
          30 callgsubr
          14 63 rlineto
          endchar
        </CharString>
        <CharString name="r_z">
          197 0 65 -65 77 -77 155 197 148 -82 82 -57 57 hstemhm
          530 100 hintmask 10001010
          276 418 rmoveto
          hintmask 10010010
          30 -28 -66 56 hhcurveto
          45 26 34 42 hvcurveto
          hintmask 10000110
          5 0 5 -1 5 vhcurveto
          93 hlineto
          -254 -443 rlineto
          265 hlineto
          77 45 61 46 hvcurveto
          hintmask 00110010
          -84 callgsubr
          hintmask 10010010
          -20 -4 -12 -6 -16 hhcurveto
          hintmask 01010010
          -29 -25 12 -37 hhcurveto
          245 423 rlineto
          -334 hlineto
          -48 -38 -32 -30 -35 hvcurveto
          13 62 rlineto
          -144 hlineto
          71 callgsubr
          hintmask 10001010
          23 25 18 15 30 hhcurveto
          endchar
        </CharString>
        <CharString name="registered">
          107 79 42 321 41 64 43 hstem
          43 46 100 46 116 46 87 43 vstem
          285 79 -36 callsubr
          100 -142 rmoveto
          46 123 59 hlineto
          62 -125 47 7 -65 125 rlineto
          35 10 24 30 37 vvcurveto
          54 -40 30 -70 vhcurveto
          -97 hlineto
          45 -41 rmoveto
          55 hlineto
          33 28 -10 -35 -37 -42 -7 -29 hvcurveto
          -45 hlineto
          endchar
        </CharString>
        <CharString name="ring">
          -301 552 35 93 33 hstem
          0 40 80 37 vstem
          85 713 -52 callsubr
        </CharString>
        <CharString name="s">
          -75 -6 79 0 57 401 -56 callsubr
          hintmask 10110001
          399 179 rmoveto
          -19 -16 -26 -18 -27 -16 rrcurveto
          3 12 1 12 14 vvcurveto
          hintmask 10110100
          -63 callgsubr
          46 27 55 38 52 60 rrcurveto
          hintmask 10101100
          48 callsubr
          hintmask 01110010
          -66 callgsubr
          hintmask 10101100
          26 18 25 24 hvcurveto
          endchar
        </CharString>
        <CharString name="s.end">
          -67 -6 79 0 57 401 -56 callsubr
          hintmask 10110001
          8 callsubr
          hintmask 10101100
          66 -10 39 -12 259 vhcurveto
          -200 -352 54 callgsubr
          hintmask 01110010
          -66 callgsubr
          hintmask 10101100
          26 18 25 24 hvcurveto
          endchar
        </CharString>
        <CharString name="s_x">
          272 -6 79 -79 97 362 103 -56 -56 callsubr
          274 124 hintmask 1001100011000000
          395 -44 callsubr
          56 -305 -34 -30 -50 -26 -41 -17 rlinecurve
          3 14 2 15 16 vvcurveto
          hintmask 1010101001000000
          -63 callgsubr
          41 22 77 27 55 39 rrcurveto
          -104 23 30 -44 66 hhcurveto
          54 95 22 -91 callsubr
          hintmask 0110101001000000
          -13 callgsubr
          -8 50 38 -7 hvcurveto
          -9 50 rlineto
          98 104 45 69 65 vvcurveto
          -107 callgsubr
          hintmask 1001011001000000
          -39 216 rlineto
          -427 -321 54 callgsubr
          hintmask 1010100101000000
          -66 callgsubr
          hintmask 1010011001000000
          26 18 25 24 hvcurveto
          endchar
        </CharString>
        <CharString name="s_z">
          287 -6 77 -77 45 callgsubr
          446 54 31 -56 callsubr
          57 -11 callsubr
          hintmask 1001110001110000
          8 callsubr
          hintmask 1001110100110000
          66 -10 39 -12 259 vhcurveto
          330 -440 rmoveto
          -107 callsubr
          -37 callgsubr
          56 hlineto
          hintmask 0011110100110000
          -255 -446 rlineto
          265 hlineto
          77 45 61 46 hvcurveto
          hintmask 0101101100110000
          -84 callgsubr
          -530 88 54 callgsubr
          hintmask 1001110010110000
          -66 callgsubr
          hintmask 1001101100110000
          26 18 25 24 hvcurveto
          endchar
        </CharString>
        <CharString name="sacute">
          -82 callgsubr
          95 382 -100 callsubr
          endchar
        </CharString>
        <CharString name="scaron">
          -82 callgsubr
          46 571 rmoveto
          60 -189 rlineto
          21 hlineto
          212 189 rlineto
          -44 hlineto
          -157 -80 -60 80 rlineto
          endchar
        </CharString>
        <CharString name="section">
          64 -54 50 578 176 -37 37 hstemhm
          -11 94 -18 106 -7 125 -44 44 -44 126 13 103 -48 48 -48 67 hintmask 1011010000100000
          506 655 rmoveto
          88 -93 7 -37 -101 -111 -54 -119 -15 2 -14 3 -13 vhcurveto
          hintmask 1100100110000000
          -60 -23 -44 -50 -64 -130 180 -11 -165 vvcurveto
          -69 -31 -27 -54 vhcurveto
          hintmask 1101010010000000
          -54 -23 28 50 50 22 21 59 5 hvcurveto
          22 -17 -22 28 -40 hhcurveto
          -54 -42 -50 -73 -117 106 -14 59 hvcurveto
          hintmask 1101000101000000
          136 81 73 117 hvcurveto
          74 15 42 76 76 vvcurveto
          hintmask 1011010000100000
          165 -198 14 124 vvcurveto
          56 40 51 54 39 17 -26 -28 -26 -14 -30 -22 -13 vhcurveto
          hintmask 1101010000100000
          -13 12 13 -3 12 hhcurveto
          41 25 35 46 hvcurveto
          hintmask 1100101010000000
          -122 -409 rmoveto
          -25 -7 -23 -12 -15 vhcurveto
          -32 139 -162 46 83 vvcurveto
          19 8 10 11 6 vhcurveto
          59 -90 135 -34 -116 vvcurveto
          endchar
        </CharString>
        <CharString name="semicolon">
          -188 -89 -21 281 81 0 159 hstemhm
          19 139 -99 159 hintmask 10101000
          59 331 -101 callgsubr
          -48 -240 rmoveto
          -52 54 -10 -25 vvcurveto
          hintmask 11010000
          11 callgsubr
        </CharString>
        <CharString name="seven">
          42 12 -21 577 181 -104 79 hstemhm
          83 194 -148 148 150 151 hintmask 10110100
          578 732 rmoveto
          -6 -29 -27 -2 -26 hhcurveto
          hintmask 11010100
          -90 -119 25 -86 hhcurveto
          -65 -53 -14 -76 -53 26 -37 36 -1 hvcurveto
          hintmask 10101100
          60 5 55 17 61 hhcurveto
          50 76 -11 -8 35 hvcurveto
          -89 -298 -222 -190 vvcurveto
          -84 33 -50 69 18 22 5 11 23 vhcurveto
          -12 49 -5 25 38 254 301 283 76 vvcurveto
          endchar
        </CharString>
        <CharString name="six">
          101 -6 91 217 161 -77 77 133 154 -60 60 hstemhm
          41 136 47 47 128 115 -55 71 hintmask 1101011100000000
          274 302 rmoveto
          -2 7 -1 7 7 vvcurveto
          hintmask 1010111100000000
          34 25 29 35 34 34 -29 -71 -76 -38 -125 -101 -56 -27 38 104 198 99 265 124 vhcurveto
          hintmask 1101011010000000
          33 26 -19 -29 -15 -7 -17 -11 -10 hvcurveto
          -2 9 6 -2 9 hhcurveto
          45 20 43 29 41 -43 41 -89 -226 -131 -280 -261 -132 38 -83 148 hvcurveto
          hintmask 1101011100000000
          186 101 152 146 88 -37 83 -103 -92 -58 -66 -51 -19 8 -25 42 hvcurveto
          endchar
        </CharString>
        <CharString name="slash">
          -240 51 callsubr
          236 46 callgsubr
          -212 -1000 rlineto
          72 hlineto
          endchar
        </CharString>
        <CharString name="space">
          -242 endchar
        </CharString>
        <CharString name="sterling">
          31 21 -21 322 78 350 -20 hstem
          420 423 -13 callsubr
          -32 -25 10 9 -28 hvcurveto
          80 331 -150 -31 -72 -295 -46 -14 -37 -30 -22 -45 rlinecurve
          6 -2 rlineto
          17 18 22 9 26 6 6 -1 5 hhcurveto
          -86 -358 rlineto
          295 hlineto
          54 40 62 96 10 hvcurveto
          -108 -80 -56 22 -70 -9 56 231 rcurveline
          16 hlineto
          76 74 53 47 11 hvcurveto
          endchar
        </CharString>
        <CharString name="t">
          -6 97 369 40 158 -20 hstem
          9 144 vstem
          115 638 rmoveto
          10 callsubr
          -60 -281 rlineto
          -106 callsubr
          64 300 rlineto
          60 1 callgsubr
          -60 hlineto
          34 158 rlineto
          endchar
        </CharString>
        <CharString name="t.end">
          -179 15 -21 466 40 158 -20 hstem
          11 145 vstem
          225 -42 callsubr
          endchar
        </CharString>
        <CharString name="t_x">
          175 -6 97 362 47 -47 103 102 -20 hstemhm
          9 144 355 124 hintmask 10111100
          17 179 rmoveto
          31 callsubr
          95 64 73 65 vhcurveto
          -97 22 30 -40 -35 callgsubr
          -107 callgsubr
          hintmask 11011100
          -39 216 rlineto
          -210 hlineto
          34 158 -148 -20 10 callsubr
          144 hmoveto
          84 hlineto
          51 -275 rlineto
          -55 -44 -65 -38 -50 hhcurveto
          -26 -18 11 25 -96 callsubr
          endchar
        </CharString>
        <CharString name="t_z">
          243 0 71 -71 -21 callsubr
          -40 40 158 -20 hstemhm
          7 145 192 -11 callsubr
          hintmask 0010011111000000
          221 -42 callsubr
          438 -69 rmoveto
          hintmask 1001001111000000
          -107 callsubr
          hintmask 1000101111000000
          -103 callgsubr
          hintmask 0101001111000000
          9 callsubr
        </CharString>
        <CharString name="thorn">
          16 -229 -21 244 87 352 72 195 -20 hstem
          93 128 102 137 vstem
          -75 -250 rmoveto
          151 36 52 245 rlineto
          -19 10 24 -18 52 hhcurveto
          194 52 218 135 119 -54 39 -68 -52 -40 -20 -26 -29 hvcurveto
          3 18 1 16 15 vvcurveto
          113 -61 43 -65 36 vhcurveto
          -45 hlineto
          30 -40 13 -36 -46 vvcurveto
          -26 -4 -31 -8 -36 vhcurveto
          102 -404 rmoveto
          -24 -11 13 12 -4 hvcurveto
          59 275 rlineto
          34 18 30 18 22 hhcurveto
          18 32 -6 -77 -94 -35 -175 -105 hvcurveto
          endchar
        </CharString>
        <CharString name="three">
          83 -6 80 183 51 204 237 -60 60 hstemhm
          11 111 -12 110 117 155 -117 117 hintmask 11101001
          210 257 rmoveto
          38 -8 -33 13 -37 hhcurveto
          -80 -41 -60 -83 -154 141 -17 58 171 111 132 116 75 -38 69 -88 31 hvcurveto
          92 46 45 74 66 vvcurveto
          78 -63 68 -123 vhcurveto
          hintmask 11100110
          -116 -91 -61 -91 -54 32 -31 40 24 27 11 23 25 hvcurveto
          -28 8 -10 36 27 vvcurveto
          hintmask 11011001
          47 31 25 48 51 25 -37 -46 -70 -58 -87 -113 -31 vhcurveto
          hintmask 11101010
          93 -11 40 -78 -79 vvcurveto
          -89 -50 -87 -79 -41 -45 10 78 39 16 56 72 vhcurveto
          endchar
        </CharString>
        <CharString name="threequarters">
          321 -144 -21 166 188 -39 39 33 80 callsubr
          121 -20 hstemhm
          25 65 -7 64 65 91 -67 67 238 61 hintmask 1100110110011000
          555 24 callgsubr
          -150 529 -5 callgsubr
          hintmask 1101010101101000
          -87 -38 10 callgsubr
          hvcurveto
          -16 4 -6 20 13 vvcurveto
          hintmask 1101001110011000
          55 callgsubr
          hintmask 1011010110101000
          27 callgsubr
          457 -214 rmoveto
          hintmask 1101010110101000
          -34 -149 rlineto
          83 hlineto
          hintmask 1011010110101000
          -18 callsubr
          endchar
        </CharString>
        <CharString name="threesuperior">
          -107 342 80 callsubr
          hstemhm
          67 65 -7 64 65 91 -67 67 hintmask 01101001
          183 484 -5 callgsubr
          hintmask 10100110
          -87 -38 10 callgsubr
          hvcurveto
          -16 4 -6 20 13 vvcurveto
          hintmask 10011001
          55 callgsubr
          hintmask 10101010
          27 callgsubr
          endchar
        </CharString>
        <CharString name="tilde">
          -54 569 78 -41 74 hstemhm
          hintmask 10000000
          433 670 -13 callsubr
          hintmask 01000000
          -79 callsubr
          hintmask 10000000
          -39 callsubr
          endchar
        </CharString>
        <CharString name="trademark">
          36 433 221 -35 35 -22 22 4 -20 hstemhm
          107 28 208 45 hintmask 10001100
          463 433 rmoveto
          38 221 rlineto
          -47 hlineto
          -66 -174 rlineto
          169 vlineto
          -41 -6 -68 -210 rlineto
          24 hlineto
          40 131 rlineto
          -131 41 vlineto
          63 156 -27 -156 rlineto
          -183 195 rmoveto
          hintmask 01001100
          -3 22 21 -6 16 hhcurveto
          hintmask 00011100
          17 6 27 12 2 hvcurveto
          -4 -9 -13 -1 -15 -29 -34 5 -12 hhcurveto
          -74 -28 -38 -40 -21 11 -8 21 hvcurveto
          -1 3 -3 2 15 vvcurveto
          hintmask 00101100
          47 26 13 34 1 vhcurveto
          hintmask 10001100
          -43 -199 rlineto
          43 hlineto
          endchar
        </CharString>
        <CharString name="two">
          72 -11 115 -79 79 -79 97 390 237 -60 60 hstemhm
          87 110 142 119 -119 144 hintmask 00110101
          134 122 rmoveto
          -4 -4 -1 -4 hhcurveto
          74 141 287 98 227 vvcurveto
          98 -53 64 -137 -151 -55 -78 -72 -59 33 -28 39 25 28 13 21 23 vhcurveto
          -29 9 -9 34 28 vvcurveto
          hintmask 01001110
          36 14 36 56 50 22 -27 -62 vhcurveto
          -240 -329 -117 -213 vvcurveto
          -11 0 -11 2 -11 vhcurveto
          7 20 36 21 23 hhcurveto
          hintmask 10010110
          98 50 -36 93 hhcurveto
          106 20 44 96 14 0 14 -1 16 hvcurveto
          -47 -38 -27 -22 -72 hhcurveto
          hintmask 00110110
          -67 -67 18 -52 hhcurveto
          endchar
        </CharString>
        <CharString name="twosuperior">
          -108 339 67 -47 47 215 128 -29 29 hstemhm
          114 64 82 69 -69 84 hintmask 10101010
          141 416 -4 callsubr
          hintmask 01011100
          9 callgsubr
          hintmask 10101100
          81 callgsubr
          67 callgsubr
        </CharString>
        <CharString name="u">
          68 callgsubr
          hstem
          9 145 vstem
          -105 callgsubr
          endchar
        </CharString>
        <CharString name="u.end">
          68 -2 callgsubr
          hstem
          9 145 vstem
          85 500 rmoveto
          -68 -321 rlineto
          -86 callgsubr
          endchar
        </CharString>
        <CharString name="u_v">
          458 -27 callsubr
          415 105 -20 -20 69 callgsubr
          358 144 140 121 -58 58 hintmask 10011110
          -55 callgsubr
          34 44 9 48 43 vhcurveto
          hintmask 01011110
          -11 -51 rlineto
          143 hlineto
          106 500 rlineto
          -143 hlineto
          -68 -321 rlineto
          hintmask 10011110
          -32 callsubr
          hintmask 10101110
          624 20 rmoveto
          -33 -24 -28 -21 -28 13 -28 29 hvcurveto
          hintmask 10011101
          6 9 2 2 6 hvcurveto
          -16 vlineto
          -113 -77 -199 -88 -29 -9 13 19 11 3 12 3 14 vhcurveto
          73 340 rlineto
          -176 hlineto
          -8 -41 26 -13 -59 -286 rlineto
          -4 -19 -2 -17 -15 vvcurveto
          -75 47 -40 77 202 79 280 156 vhcurveto
          hintmask 10101110
          52 -21 38 -43 vhcurveto
          endchar
        </CharString>
        <CharString name="u_x">
          423 35 callgsubr
          69 callgsubr
          602 124 hintmask 10111000
          -6 callsubr
          -95 23 30 -39 63 hhcurveto
          54 95 22 -68 callsubr
          hintmask 11011000
          -107 callgsubr
          hintmask 10111000
          -60 callgsubr
          -144 hlineto
          -20 callsubr
          endchar
        </CharString>
        <CharString name="u_x.end">
          437 -27 callsubr
          453 103 -56 -20 69 callgsubr
          602 124 hintmask 10011100
          -6 callsubr
          hintmask 01101100
          -94 23 30 -34 63 hhcurveto
          54 51 26 71 5 hvcurveto
          hintmask 10101100
          -3 -6 -8 -3 -18 hhcurveto
          -44 -8 29 59 -11 hvcurveto
          -9 50 rlineto
          98 104 45 69 65 vvcurveto
          -36 callgsubr
          -144 hlineto
          -20 callsubr
          endchar
        </CharString>
        <CharString name="uacute">
          68 callgsubr
          270 -20 hstem
          9 145 vstem
          -105 callgsubr
          -220 71 callsubr
          endchar
        </CharString>
        <CharString name="uacute.end">
          68 -2 callgsubr
          270 -20 hstem
          9 145 vstem
          85 500 rmoveto
          -68 -321 rlineto
          -86 callgsubr
          7 71 callsubr
          endchar
        </CharString>
        <CharString name="ucircumflex">
          48 -6 97 409 61 189 -20 hstem
          9 145 vstem
          -105 callgsubr
          -40 61 rmoveto
          -60 189 rlineto
          -21 hlineto
          -212 -189 rlineto
          44 hlineto
          157 80 60 -80 rlineto
          endchar
        </CharString>
        <CharString name="udieresis">
          68 callgsubr
          93 122 69 callgsubr
          -1 18 callgsubr
          hintmask 11110100
          -105 callgsubr
          -143 134 rmoveto
          -104 callsubr
          hintmask 11101100
          -180 -45 callgsubr
        </CharString>
        <CharString name="ugrave">
          68 callgsubr
          81 189 hstem
          9 145 vstem
          -105 callgsubr
          -215 61 -42 callgsubr
        </CharString>
        <CharString name="uhungarumlaut">
          68 callgsubr
          81 189 hstem
          9 145 vstem
          -105 callgsubr
          -163 61 -48 callgsubr
          -221 -189 -48 callgsubr
          endchar
        </CharString>
        <CharString name="underscore">
          -14 0 79 hstem
          347 79 7 callsubr
        </CharString>
        <CharString name="uni00AD">
          21 callsubr
        </CharString>
        <CharString name="v">
          -43 -6 97 324 105 -20 -20 hstemhm
          8 144 139 125 -57 57 hintmask 11011000
          353 520 rmoveto
          -42 -20 -23 -31 -22 12 -29 24 hvcurveto
          hintmask 10110100
          8 21 3 7 3 hvcurveto
          -110 -75 -224 -98 -24 -10 13 20 9 2 13 3 14 vhcurveto
          -80 callsubr
          -144 hlineto
          -72 -340 rlineto
          -4 -19 -1 -18 -11 vvcurveto
          -79 47 -39 76 204 81 279 160 vhcurveto
          hintmask 11011000
          44 -15 43 -48 vhcurveto
          endchar
        </CharString>
        <CharString name="w">
          204 -6 97 324 105 -20 -20 69 callgsubr
          384 125 -57 57 hintmask 10111000
          -55 callgsubr
          40 53 12 72 49 vhcurveto
          -56 12 43 -28 65 hhcurveto
          204 81 279 160 hvcurveto
          hintmask 11011000
          44 -15 43 -48 -42 -20 -23 -31 -22 12 -29 24 vhcurveto
          hintmask 10110100
          8 21 3 7 3 hvcurveto
          -110 -75 -224 -98 -24 -10 13 20 9 2 13 3 14 vhcurveto
          -80 callsubr
          -144 hlineto
          -20 callsubr
          endchar
        </CharString>
        <CharString name="x">
          65 47 callgsubr
          378 248 rmoveto
          93 102 46 53 63 22 callgsubr
          -30 -45 -55 -62 -9 76 rcurveline
          hintmask 01101000
          51 -6 -22 -22 callsubr
          43 -52 59 hhcurveto
          58 92 30 155 54 hvcurveto
          -34 callgsubr
          -35 -19 22 65 -8 hvcurveto
          endchar
        </CharString>
        <CharString name="x.end">
          81 47 callgsubr
          383 254 rmoveto
          90 98 44 52 62 22 callgsubr
          -29 -43 -53 -61 -12 73 rcurveline
          hintmask 01101000
          51 -9 -19 -22 callsubr
          39 -52 59 hhcurveto
          55 58 30 73 5 hvcurveto
          -4 -11 -7 -2 -19 hhcurveto
          -35 -12 22 65 -11 hvcurveto
          endchar
        </CharString>
        <CharString name="y">
          29 45 callsubr
          5 callgsubr
          69 callgsubr
          -93 55 hintmask 11110000
          332 -44 callsubr
          -70 -327 rlineto
          -47 -15 -26 -35 -37 -62 callgsubr
          -144 hlineto
          -68 -321 rlineto
          -5 -24 4 callsubr
          hintmask 11101000
          14 callsubr
          -12 -54 rlineto
          -75 -97 callsubr
          -360 -639 -93 callsubr
        </CharString>
        <CharString name="y.end">
          27 -250 89 155 5 callgsubr
          hstemhm
          9 101 -101 145 -99 55 hintmask 11101000
          -55 callgsubr
          34 45 9 49 43 vhcurveto
          -10 -44 rlineto
          hintmask 11100100
          -3 callgsubr
          hintmask 11101000
          -88 callgsubr
          hintmask 11110000
          -119 -628 19 callgsubr
        </CharString>
        <CharString name="y_p">
          497 45 callsubr
          82 -82 97 342 67 -67 104 69 callgsubr
          -93 55 693 137 hintmask 11001101
          579 60 callgsubr
          hintmask 10110101
          98 459 rlineto
          -144 hlineto
          -70 -327 rlineto
          -47 -15 -26 -35 -37 -62 callgsubr
          -144 hlineto
          -68 -321 rlineto
          -5 -24 4 callsubr
          hintmask 11001011
          14 callsubr
          -11 -49 rlineto
          -76 -25 -88 -45 -77 callgsubr
          71 34 7 32 3 31 1 rlinecurve
          -53 -252 151 36 45 211 rlineto
          -2 28 30 -1 34 hhcurveto
          194 52 218 135 119 -54 39 -68 -50 -38 -18 -25 -29 hvcurveto
          2 callgsubr
          -553 -215 -93 callsubr
        </CharString>
        <CharString name="y_x">
          416 -250 78 167 96 362 103 -56 -20 69 callgsubr
          -93 55 633 124 hintmask 11011010
          332 -44 callsubr
          -20 callsubr
          -144 hlineto
          -68 -321 rlineto
          -5 -24 4 callsubr
          hintmask 11100110
          -84 47 -35 60 34 44 8 48 43 vhcurveto
          -13 -58 rlineto
          -75 -24 callsubr
          -96 22 30 -40 64 hhcurveto
          54 95 21 -68 callsubr
          -107 callgsubr
          hintmask 11010110
          -39 216 rlineto
          -141 hlineto
          13 callsubr
          -360 -639 rmoveto
          41 -25 callsubr
          -30 12 callsubr
          -24 -30 -21 hhcurveto
          -22 -12 58 callgsubr
        </CharString>
        <CharString name="y_z">
          431 -250 89 161 -29 callgsubr
          hstemhm
          9 101 -101 145 -99 55 422 -11 callsubr
          hintmask 1000110010110000
          -55 callgsubr
          34 45 9 49 43 vhcurveto
          -10 -44 rlineto
          hintmask 1010010001110000
          -3 callgsubr
          hintmask 1010010010110000
          -88 callgsubr
          554 -409 rmoveto
          hintmask 1100010100110000
          -107 callsubr
          hintmask 1100001100110000
          -103 callgsubr
          hintmask 1001010100110000
          -26 callsubr
          hintmask 1010010100110000
          -11 6 -9 13 -1 vhcurveto
          -673 -219 19 callgsubr
        </CharString>
        <CharString name="yacute">
          29 45 callsubr
          5 callgsubr
          270 -20 69 callgsubr
          -93 55 hintmask 11111000
          332 -44 callsubr
          -70 -327 rlineto
          -47 -15 -26 -35 -37 -62 callgsubr
          -144 hlineto
          -68 -321 rlineto
          -5 -24 4 callsubr
          hintmask 11110100
          14 callsubr
          -12 -54 rlineto
          -75 -97 callsubr
          -221 71 callsubr
          -230 -889 -93 callsubr
        </CharString>
        <CharString name="ydieresis">
          29 45 callsubr
          5 callgsubr
          93 122 69 callgsubr
          -93 55 24 18 callgsubr
          hintmask 11110111
          332 -44 callsubr
          -70 -327 rlineto
          -47 -15 -26 -35 -37 hhcurveto
          hintmask 11111001
          -88 callgsubr
          -144 hlineto
          -68 -321 rlineto
          -5 -24 4 callsubr
          hintmask 11110111
          14 callsubr
          -12 -54 rlineto
          -75 -97 callsubr
          -336 134 rmoveto
          -104 callsubr
          180 hmoveto
          -104 callsubr
          -204 -773 -93 callsubr
        </CharString>
        <CharString name="yen">
          101 0 192 -50 50 65 50 443 -20 hstemhm
          hintmask 10110000
          379 307 rmoveto
          196 443 rlineto
          -66 hlineto
          -150 -361 -88 361 rlineto
          -164 hlineto
          112 -443 rlineto
          -96 hlineto
          -14 -50 rlineto
          99 hlineto
          -14 -65 rlineto
          -96 hlineto
          hintmask 01110000
          -14 -50 rlineto
          99 hlineto
          hintmask 10110000
          -30 -142 rlineto
          160 hlineto
          hintmask 01110000
          30 142 rlineto
          128 hlineto
          14 50 rlineto
          -131 hlineto
          14 65 rlineto
          128 hlineto
          14 50 rlineto
          endchar
        </CharString>
</ttFont>
